<?xml version="1.0" encoding="utf-8"?>
<!--
  HolaRuta Sticker · Hostel · „Reta a tu compañero" (Hostel-Mode, 1 vs 1)
  Druckgröße: 70 × 50 mm · Vinyl, abgerundetes Rechteck.
  Platzierung: Common Room, Bar, Gemeinschaftsküche — passend zum Flyer hostel-reto.html.
  QR → holaruta.com (Pfaddaten aus docs/anleitungen/qr-holaruta.svg).
-->
<svg xmlns="http://www.w3.org/2000/svg" width="70mm" height="50mm" viewBox="0 0 700 500">
  <defs>
    <style>
      @font-face{font-family:'Bricolage Grotesque';src:url('../../fonts/bricolage-grotesque-600-800-latin.woff2') format('woff2');font-weight:600 800;}
      @font-face{font-family:'Instrument Sans';src:url('../../fonts/instrument-sans-400-700-latin.woff2') format('woff2');font-weight:400 700;}
    </style>
  </defs>
  <rect x="8" y="8" width="684" height="484" rx="40" fill="#241510" stroke="#FBF3E4" stroke-width="10"/>
  <text x="56" y="118" font-family="Bricolage Grotesque, Segoe UI, Arial, sans-serif"
        font-size="50" font-weight="800" letter-spacing="-1"><tspan fill="#FBF3E4">Reta a tu </tspan><tspan fill="#E9A23B">compañero.</tspan></text>
  <rect x="56" y="146" width="280" height="46" rx="23" fill="#E9A23B"/>
  <text x="196" y="177" font-family="Instrument Sans, Segoe UI, Arial, sans-serif"
        font-size="26" font-weight="700" fill="#241510" text-anchor="middle">1 vs 1 · Hostel-Modus</text>
  <!-- Zwei Karteikarten (Stil aus og-image.svg) -->
  <g transform="rotate(-8 155 300)">
    <rect x="60" y="234" width="190" height="126" rx="18" fill="#FFFDF6"/>
    <rect x="70" y="246" width="7" height="102" rx="3.5" fill="#C2502E"/>
    <text x="94" y="300" font-family="Bricolage Grotesque, Segoe UI, Arial, sans-serif"
          font-size="42" font-weight="800" fill="#A23E20">¡Hola!</text>
  </g>
  <g transform="rotate(6 290 390)">
    <rect x="195" y="328" width="190" height="126" rx="18" fill="#FFFDF6"/>
    <rect x="205" y="340" width="7" height="102" rx="3.5" fill="#2F6B70"/>
    <text x="229" y="400" font-family="Bricolage Grotesque, Segoe UI, Arial, sans-serif"
          font-size="34" font-weight="800" fill="#2F6B70">¿Qué más?</text>
  </g>
  <rect x="470" y="235" width="200" height="200" rx="18" fill="#FFFFFF"/>
  <g transform="translate(494.242,259.242) scale(6.06061)"><path fill="#fff" d="M0 0h25v25h-25z"/><path fill="#241510" d="M0,0l1,0 0,1 -1,0 0,-1z M1,0l1,0 0,1 -1,0 0,-1z M2,0l1,0 0,1 -1,0 0,-1z M3,0l1,0 0,1 -1,0 0,-1z M4,0l1,0 0,1 -1,0 0,-1z M5,0l1,0 0,1 -1,0 0,-1z M6,0l1,0 0,1 -1,0 0,-1z M9,0l1,0 0,1 -1,0 0,-1z M10,0l1,0 0,1 -1,0 0,-1z M14,0l1,0 0,1 -1,0 0,-1z M15,0l1,0 0,1 -1,0 0,-1z M18,0l1,0 0,1 -1,0 0,-1z M19,0l1,0 0,1 -1,0 0,-1z M20,0l1,0 0,1 -1,0 0,-1z M21,0l1,0 0,1 -1,0 0,-1z M22,0l1,0 0,1 -1,0 0,-1z M23,0l1,0 0,1 -1,0 0,-1z M24,0l1,0 0,1 -1,0 0,-1z M0,1l1,0 0,1 -1,0 0,-1z M6,1l1,0 0,1 -1,0 0,-1z M8,1l1,0 0,1 -1,0 0,-1z M9,1l1,0 0,1 -1,0 0,-1z M15,1l1,0 0,1 -1,0 0,-1z M18,1l1,0 0,1 -1,0 0,-1z M24,1l1,0 0,1 -1,0 0,-1z M0,2l1,0 0,1 -1,0 0,-1z M2,2l1,0 0,1 -1,0 0,-1z M3,2l1,0 0,1 -1,0 0,-1z M4,2l1,0 0,1 -1,0 0,-1z M6,2l1,0 0,1 -1,0 0,-1z M9,2l1,0 0,1 -1,0 0,-1z M12,2l1,0 0,1 -1,0 0,-1z M15,2l1,0 0,1 -1,0 0,-1z M18,2l1,0 0,1 -1,0 0,-1z M20,2l1,0 0,1 -1,0 0,-1z M21,2l1,0 0,1 -1,0 0,-1z M22,2l1,0 0,1 -1,0 0,-1z M24,2l1,0 0,1 -1,0 0,-1z M0,3l1,0 0,1 -1,0 0,-1z M2,3l1,0 0,1 -1,0 0,-1z M3,3l1,0 0,1 -1,0 0,-1z M4,3l1,0 0,1 -1,0 0,-1z M6,3l1,0 0,1 -1,0 0,-1z M10,3l1,0 0,1 -1,0 0,-1z M11,3l1,0 0,1 -1,0 0,-1z M12,3l1,0 0,1 -1,0 0,-1z M14,3l1,0 0,1 -1,0 0,-1z M18,3l1,0 0,1 -1,0 0,-1z M20,3l1,0 0,1 -1,0 0,-1z M21,3l1,0 0,1 -1,0 0,-1z M22,3l1,0 0,1 -1,0 0,-1z M24,3l1,0 0,1 -1,0 0,-1z M0,4l1,0 0,1 -1,0 0,-1z M2,4l1,0 0,1 -1,0 0,-1z M3,4l1,0 0,1 -1,0 0,-1z M4,4l1,0 0,1 -1,0 0,-1z M6,4l1,0 0,1 -1,0 0,-1z M8,4l1,0 0,1 -1,0 0,-1z M9,4l1,0 0,1 -1,0 0,-1z M12,4l1,0 0,1 -1,0 0,-1z M13,4l1,0 0,1 -1,0 0,-1z M14,4l1,0 0,1 -1,0 0,-1z M15,4l1,0 0,1 -1,0 0,-1z M16,4l1,0 0,1 -1,0 0,-1z M18,4l1,0 0,1 -1,0 0,-1z M20,4l1,0 0,1 -1,0 0,-1z M21,4l1,0 0,1 -1,0 0,-1z M22,4l1,0 0,1 -1,0 0,-1z M24,4l1,0 0,1 -1,0 0,-1z M0,5l1,0 0,1 -1,0 0,-1z M6,5l1,0 0,1 -1,0 0,-1z M11,5l1,0 0,1 -1,0 0,-1z M12,5l1,0 0,1 -1,0 0,-1z M14,5l1,0 0,1 -1,0 0,-1z M15,5l1,0 0,1 -1,0 0,-1z M16,5l1,0 0,1 -1,0 0,-1z M18,5l1,0 0,1 -1,0 0,-1z M24,5l1,0 0,1 -1,0 0,-1z M0,6l1,0 0,1 -1,0 0,-1z M1,6l1,0 0,1 -1,0 0,-1z M2,6l1,0 0,1 -1,0 0,-1z M3,6l1,0 0,1 -1,0 0,-1z M4,6l1,0 0,1 -1,0 0,-1z M5,6l1,0 0,1 -1,0 0,-1z M6,6l1,0 0,1 -1,0 0,-1z M8,6l1,0 0,1 -1,0 0,-1z M10,6l1,0 0,1 -1,0 0,-1z M12,6l1,0 0,1 -1,0 0,-1z M14,6l1,0 0,1 -1,0 0,-1z M16,6l1,0 0,1 -1,0 0,-1z M18,6l1,0 0,1 -1,0 0,-1z M19,6l1,0 0,1 -1,0 0,-1z M20,6l1,0 0,1 -1,0 0,-1z M21,6l1,0 0,1 -1,0 0,-1z M22,6l1,0 0,1 -1,0 0,-1z M23,6l1,0 0,1 -1,0 0,-1z M24,6l1,0 0,1 -1,0 0,-1z M10,7l1,0 0,1 -1,0 0,-1z M11,7l1,0 0,1 -1,0 0,-1z M13,7l1,0 0,1 -1,0 0,-1z M14,7l1,0 0,1 -1,0 0,-1z M15,7l1,0 0,1 -1,0 0,-1z M0,8l1,0 0,1 -1,0 0,-1z M2,8l1,0 0,1 -1,0 0,-1z M4,8l1,0 0,1 -1,0 0,-1z M6,8l1,0 0,1 -1,0 0,-1z M9,8l1,0 0,1 -1,0 0,-1z M11,8l1,0 0,1 -1,0 0,-1z M12,8l1,0 0,1 -1,0 0,-1z M13,8l1,0 0,1 -1,0 0,-1z M16,8l1,0 0,1 -1,0 0,-1z M20,8l1,0 0,1 -1,0 0,-1z M23,8l1,0 0,1 -1,0 0,-1z M0,9l1,0 0,1 -1,0 0,-1z M2,9l1,0 0,1 -1,0 0,-1z M3,9l1,0 0,1 -1,0 0,-1z M8,9l1,0 0,1 -1,0 0,-1z M9,9l1,0 0,1 -1,0 0,-1z M10,9l1,0 0,1 -1,0 0,-1z M12,9l1,0 0,1 -1,0 0,-1z M16,9l1,0 0,1 -1,0 0,-1z M17,9l1,0 0,1 -1,0 0,-1z M18,9l1,0 0,1 -1,0 0,-1z M24,9l1,0 0,1 -1,0 0,-1z M2,10l1,0 0,1 -1,0 0,-1z M3,10l1,0 0,1 -1,0 0,-1z M6,10l1,0 0,1 -1,0 0,-1z M7,10l1,0 0,1 -1,0 0,-1z M8,10l1,0 0,1 -1,0 0,-1z M9,10l1,0 0,1 -1,0 0,-1z M12,10l1,0 0,1 -1,0 0,-1z M16,10l1,0 0,1 -1,0 0,-1z M17,10l1,0 0,1 -1,0 0,-1z M20,10l1,0 0,1 -1,0 0,-1z M22,10l1,0 0,1 -1,0 0,-1z M23,10l1,0 0,1 -1,0 0,-1z M24,10l1,0 0,1 -1,0 0,-1z M0,11l1,0 0,1 -1,0 0,-1z M1,11l1,0 0,1 -1,0 0,-1z M2,11l1,0 0,1 -1,0 0,-1z M7,11l1,0 0,1 -1,0 0,-1z M10,11l1,0 0,1 -1,0 0,-1z M11,11l1,0 0,1 -1,0 0,-1z M12,11l1,0 0,1 -1,0 0,-1z M13,11l1,0 0,1 -1,0 0,-1z M14,11l1,0 0,1 -1,0 0,-1z M15,11l1,0 0,1 -1,0 0,-1z M16,11l1,0 0,1 -1,0 0,-1z M18,11l1,0 0,1 -1,0 0,-1z M19,11l1,0 0,1 -1,0 0,-1z M20,11l1,0 0,1 -1,0 0,-1z M23,11l1,0 0,1 -1,0 0,-1z M3,12l1,0 0,1 -1,0 0,-1z M5,12l1,0 0,1 -1,0 0,-1z M6,12l1,0 0,1 -1,0 0,-1z M7,12l1,0 0,1 -1,0 0,-1z M12,12l1,0 0,1 -1,0 0,-1z M13,12l1,0 0,1 -1,0 0,-1z M14,12l1,0 0,1 -1,0 0,-1z M17,12l1,0 0,1 -1,0 0,-1z M18,12l1,0 0,1 -1,0 0,-1z M21,12l1,0 0,1 -1,0 0,-1z M23,12l1,0 0,1 -1,0 0,-1z M24,12l1,0 0,1 -1,0 0,-1z M1,13l1,0 0,1 -1,0 0,-1z M2,13l1,0 0,1 -1,0 0,-1z M7,13l1,0 0,1 -1,0 0,-1z M9,13l1,0 0,1 -1,0 0,-1z M11,13l1,0 0,1 -1,0 0,-1z M12,13l1,0 0,1 -1,0 0,-1z M16,13l1,0 0,1 -1,0 0,-1z M17,13l1,0 0,1 -1,0 0,-1z M18,13l1,0 0,1 -1,0 0,-1z M21,13l1,0 0,1 -1,0 0,-1z M24,13l1,0 0,1 -1,0 0,-1z M0,14l1,0 0,1 -1,0 0,-1z M3,14l1,0 0,1 -1,0 0,-1z M4,14l1,0 0,1 -1,0 0,-1z M6,14l1,0 0,1 -1,0 0,-1z M7,14l1,0 0,1 -1,0 0,-1z M8,14l1,0 0,1 -1,0 0,-1z M9,14l1,0 0,1 -1,0 0,-1z M10,14l1,0 0,1 -1,0 0,-1z M11,14l1,0 0,1 -1,0 0,-1z M12,14l1,0 0,1 -1,0 0,-1z M13,14l1,0 0,1 -1,0 0,-1z M17,14l1,0 0,1 -1,0 0,-1z M19,14l1,0 0,1 -1,0 0,-1z M22,14l1,0 0,1 -1,0 0,-1z M23,14l1,0 0,1 -1,0 0,-1z M24,14l1,0 0,1 -1,0 0,-1z M1,15l1,0 0,1 -1,0 0,-1z M3,15l1,0 0,1 -1,0 0,-1z M4,15l1,0 0,1 -1,0 0,-1z M5,15l1,0 0,1 -1,0 0,-1z M7,15l1,0 0,1 -1,0 0,-1z M10,15l1,0 0,1 -1,0 0,-1z M12,15l1,0 0,1 -1,0 0,-1z M13,15l1,0 0,1 -1,0 0,-1z M14,15l1,0 0,1 -1,0 0,-1z M15,15l1,0 0,1 -1,0 0,-1z M16,15l1,0 0,1 -1,0 0,-1z M17,15l1,0 0,1 -1,0 0,-1z M20,15l1,0 0,1 -1,0 0,-1z M23,15l1,0 0,1 -1,0 0,-1z M0,16l1,0 0,1 -1,0 0,-1z M2,16l1,0 0,1 -1,0 0,-1z M6,16l1,0 0,1 -1,0 0,-1z M7,16l1,0 0,1 -1,0 0,-1z M8,16l1,0 0,1 -1,0 0,-1z M9,16l1,0 0,1 -1,0 0,-1z M10,16l1,0 0,1 -1,0 0,-1z M11,16l1,0 0,1 -1,0 0,-1z M14,16l1,0 0,1 -1,0 0,-1z M16,16l1,0 0,1 -1,0 0,-1z M17,16l1,0 0,1 -1,0 0,-1z M18,16l1,0 0,1 -1,0 0,-1z M19,16l1,0 0,1 -1,0 0,-1z M20,16l1,0 0,1 -1,0 0,-1z M21,16l1,0 0,1 -1,0 0,-1z M8,17l1,0 0,1 -1,0 0,-1z M9,17l1,0 0,1 -1,0 0,-1z M11,17l1,0 0,1 -1,0 0,-1z M16,17l1,0 0,1 -1,0 0,-1z M20,17l1,0 0,1 -1,0 0,-1z M21,17l1,0 0,1 -1,0 0,-1z M23,17l1,0 0,1 -1,0 0,-1z M24,17l1,0 0,1 -1,0 0,-1z M0,18l1,0 0,1 -1,0 0,-1z M1,18l1,0 0,1 -1,0 0,-1z M2,18l1,0 0,1 -1,0 0,-1z M3,18l1,0 0,1 -1,0 0,-1z M4,18l1,0 0,1 -1,0 0,-1z M5,18l1,0 0,1 -1,0 0,-1z M6,18l1,0 0,1 -1,0 0,-1z M9,18l1,0 0,1 -1,0 0,-1z M10,18l1,0 0,1 -1,0 0,-1z M13,18l1,0 0,1 -1,0 0,-1z M15,18l1,0 0,1 -1,0 0,-1z M16,18l1,0 0,1 -1,0 0,-1z M18,18l1,0 0,1 -1,0 0,-1z M20,18l1,0 0,1 -1,0 0,-1z M21,18l1,0 0,1 -1,0 0,-1z M23,18l1,0 0,1 -1,0 0,-1z M24,18l1,0 0,1 -1,0 0,-1z M0,19l1,0 0,1 -1,0 0,-1z M6,19l1,0 0,1 -1,0 0,-1z M11,19l1,0 0,1 -1,0 0,-1z M16,19l1,0 0,1 -1,0 0,-1z M20,19l1,0 0,1 -1,0 0,-1z M21,19l1,0 0,1 -1,0 0,-1z M0,20l1,0 0,1 -1,0 0,-1z M2,20l1,0 0,1 -1,0 0,-1z M3,20l1,0 0,1 -1,0 0,-1z M4,20l1,0 0,1 -1,0 0,-1z M6,20l1,0 0,1 -1,0 0,-1z M8,20l1,0 0,1 -1,0 0,-1z M12,20l1,0 0,1 -1,0 0,-1z M16,20l1,0 0,1 -1,0 0,-1z M17,20l1,0 0,1 -1,0 0,-1z M18,20l1,0 0,1 -1,0 0,-1z M19,20l1,0 0,1 -1,0 0,-1z M20,20l1,0 0,1 -1,0 0,-1z M21,20l1,0 0,1 -1,0 0,-1z M23,20l1,0 0,1 -1,0 0,-1z M24,20l1,0 0,1 -1,0 0,-1z M0,21l1,0 0,1 -1,0 0,-1z M2,21l1,0 0,1 -1,0 0,-1z M3,21l1,0 0,1 -1,0 0,-1z M4,21l1,0 0,1 -1,0 0,-1z M6,21l1,0 0,1 -1,0 0,-1z M10,21l1,0 0,1 -1,0 0,-1z M11,21l1,0 0,1 -1,0 0,-1z M12,21l1,0 0,1 -1,0 0,-1z M13,21l1,0 0,1 -1,0 0,-1z M15,21l1,0 0,1 -1,0 0,-1z M16,21l1,0 0,1 -1,0 0,-1z M19,21l1,0 0,1 -1,0 0,-1z M20,21l1,0 0,1 -1,0 0,-1z M21,21l1,0 0,1 -1,0 0,-1z M22,21l1,0 0,1 -1,0 0,-1z M0,22l1,0 0,1 -1,0 0,-1z M2,22l1,0 0,1 -1,0 0,-1z M3,22l1,0 0,1 -1,0 0,-1z M4,22l1,0 0,1 -1,0 0,-1z M6,22l1,0 0,1 -1,0 0,-1z M8,22l1,0 0,1 -1,0 0,-1z M10,22l1,0 0,1 -1,0 0,-1z M11,22l1,0 0,1 -1,0 0,-1z M12,22l1,0 0,1 -1,0 0,-1z M14,22l1,0 0,1 -1,0 0,-1z M16,22l1,0 0,1 -1,0 0,-1z M20,22l1,0 0,1 -1,0 0,-1z M24,22l1,0 0,1 -1,0 0,-1z M0,23l1,0 0,1 -1,0 0,-1z M6,23l1,0 0,1 -1,0 0,-1z M9,23l1,0 0,1 -1,0 0,-1z M12,23l1,0 0,1 -1,0 0,-1z M13,23l1,0 0,1 -1,0 0,-1z M14,23l1,0 0,1 -1,0 0,-1z M16,23l1,0 0,1 -1,0 0,-1z M17,23l1,0 0,1 -1,0 0,-1z M20,23l1,0 0,1 -1,0 0,-1z M21,23l1,0 0,1 -1,0 0,-1z M23,23l1,0 0,1 -1,0 0,-1z M0,24l1,0 0,1 -1,0 0,-1z M1,24l1,0 0,1 -1,0 0,-1z M2,24l1,0 0,1 -1,0 0,-1z M3,24l1,0 0,1 -1,0 0,-1z M4,24l1,0 0,1 -1,0 0,-1z M5,24l1,0 0,1 -1,0 0,-1z M6,24l1,0 0,1 -1,0 0,-1z M8,24l1,0 0,1 -1,0 0,-1z M9,24l1,0 0,1 -1,0 0,-1z M10,24l1,0 0,1 -1,0 0,-1z M11,24l1,0 0,1 -1,0 0,-1z M14,24l1,0 0,1 -1,0 0,-1z M15,24l1,0 0,1 -1,0 0,-1z M16,24l1,0 0,1 -1,0 0,-1z M17,24l1,0 0,1 -1,0 0,-1z M18,24l1,0 0,1 -1,0 0,-1z M19,24l1,0 0,1 -1,0 0,-1z M23,24l1,0 0,1 -1,0 0,-1z M24,24l1,0 0,1 -1,0 0,-1z "/></g>
  <text x="570" y="468" font-family="Instrument Sans, Segoe UI, Arial, sans-serif"
        font-size="17" font-weight="700" fill="#F0996B" text-anchor="middle">holaruta.com</text>
</svg>
