<?xml version="1.0" encoding="utf-8"?>
<!--
  HolaRuta Sticker · Hostel · „Rezeption/Pinnwand" (quadratisch)
  Druckgröße: 70 × 70 mm · Vinyl matt, abgerundetes Quadrat.
  Platzierung: Rezeptionstresen, Common-Room-Board, Spind-Innenseite, Tischecke.
  QR → moarci.github.io/holaRuta (Pfaddaten aus docs/anleitungen/qr-holaruta.svg).
-->
<svg xmlns="http://www.w3.org/2000/svg" width="70mm" height="70mm" viewBox="0 0 700 700">
  <defs>
    <linearGradient id="g" x1="0" y1="0" x2="1" y2="1">
      <stop offset="0" stop-color="#C2502E"/>
      <stop offset="1" stop-color="#E9A23B"/>
    </linearGradient>
    <clipPath id="card"><rect x="8" y="8" width="684" height="684" rx="48"/></clipPath>
    <style>
      @font-face{font-family:'Bricolage Grotesque';src:url('../../fonts/bricolage-grotesque-600-800-latin.woff2') format('woff2');font-weight:600 800;}
      @font-face{font-family:'Instrument Sans';src:url('../../fonts/instrument-sans-400-700-latin.woff2') format('woff2');font-weight:400 700;}
    </style>
  </defs>
  <rect x="8" y="8" width="684" height="684" rx="48" fill="#FFFDF6" stroke="#2D1B12" stroke-opacity="0.14" stroke-width="3"/>
  <!-- Gradient-Kopfstreifen (Stil aus og-image.svg) -->
  <rect x="8" y="8" width="684" height="26" fill="url(#g)" clip-path="url(#card)"/>
  <!-- Brand-Zeile: Mini-Icon + Wortmarke -->
  <g transform="translate(56,64) scale(0.125)">
    <rect width="512" height="512" rx="116" fill="url(#g)"/>
    <path d="M256 86 C326 86 382 142 382 212 C382 296 296 360 256 446 C216 360 130 296 130 212 C130 142 186 86 256 86 Z" fill="#FBF3E4"/>
    <text x="256" y="252" font-family="Bricolage Grotesque, Segoe UI, Arial, sans-serif"
          font-size="118" font-weight="800" fill="#C2502E" text-anchor="middle">¿?</text>
  </g>
  <text x="136" y="112" font-family="Bricolage Grotesque, Segoe UI, Arial, sans-serif"
        font-size="52" font-weight="800" letter-spacing="-1"><tspan fill="#2D1B12">Hola</tspan><tspan fill="#C2502E">Ruta</tspan></text>
  <text x="56" y="208" font-family="Bricolage Grotesque, Segoe UI, Arial, sans-serif"
        font-size="60" font-weight="800" fill="#2D1B12" letter-spacing="-1">Survival Spanish</text>
  <text x="56" y="272" font-family="Bricolage Grotesque, Segoe UI, Arial, sans-serif"
        font-size="60" font-weight="800" fill="#C2502E" letter-spacing="-1">for your trip.</text>
  <rect x="210" y="298" width="280" height="280" rx="22" fill="#FFFFFF" stroke="#2D1B12" stroke-opacity="0.12" stroke-width="2"/>
  <g transform="translate(220,308) scale(7.8788)">
    <path fill="#fff" d="M0 0h33v33h-33z"/><path class="qrline" stroke="#241510" d="M2 2.5h7m1 0h2m1 0h5m2 0h1m3 0h7m-29 1h1m5 0h1m1 0h2m2 0h4m2 0h3m1 0h1m5 0h1m-29 1h1m1 0h3m1 0h1m1 0h1m2 0h1m1 0h2m5 0h1m1 0h1m1 0h3m1 0h1m-29 1h1m1 0h3m1 0h1m2 0h4m1 0h4m1 0h2m1 0h1m1 0h3m1 0h1m-29 1h1m1 0h3m1 0h1m1 0h3m1 0h2m1 0h1m2 0h3m1 0h1m1 0h3m1 0h1m-29 1h1m5 0h1m2 0h1m1 0h4m1 0h1m5 0h1m5 0h1m-29 1h7m1 0h1m1 0h1m1 0h1m1 0h1m1 0h1m1 0h1m1 0h1m1 0h7m-20 1h3m2 0h1m5 0h1m-21 1h1m2 0h6m1 0h2m1 0h7m1 0h1m2 0h1m1 0h3m-29 1h1m1 0h1m1 0h2m1 0h3m1 0h1m2 0h1m1 0h4m3 0h2m1 0h2m-28 1h3m2 0h2m1 0h3m1 0h1m1 0h3m4 0h1m1 0h1m2 0h1m-27 1h1m3 0h2m8 0h2m1 0h1m2 0h2m1 0h3m2 0h1m-28 1h3m2 0h1m1 0h7m1 0h1m2 0h1m2 0h1m5 0h1m-28 1h1m9 0h1m3 0h1m1 0h2m3 0h7m-28 1h2m2 0h3m1 0h2m1 0h1m1 0h2m2 0h2m1 0h1m1 0h2m1 0h1m1 0h1m-27 1h4m1 0h1m5 0h2m1 0h1m1 0h1m1 0h3m1 0h1m1 0h1m1 0h1m-29 1h1m3 0h6m1 0h1m3 0h1m3 0h3m1 0h1m1 0h1m-26 1h3m6 0h2m1 0h1m2 0h1m2 0h3m3 0h1m1 0h2m-28 1h3m1 0h1m1 0h1m1 0h1m3 0h5m2 0h2m4 0h1m2 0h1m-29 1h2m1 0h1m3 0h2m4 0h1m2 0h1m2 0h1m2 0h2m1 0h2m-27 1h5m1 0h1m3 0h2m1 0h1m1 0h1m1 0h1m1 0h9m-20 1h2m1 0h1m1 0h1m1 0h1m1 0h4m3 0h2m-26 1h7m1 0h1m1 0h2m1 0h1m1 0h3m1 0h2m1 0h1m1 0h2m-26 1h1m5 0h1m1 0h1m1 0h1m1 0h2m3 0h4m3 0h1m-25 1h1m1 0h3m1 0h1m1 0h2m1 0h3m1 0h1m3 0h7m1 0h2m-29 1h1m1 0h3m1 0h1m1 0h1m1 0h1m3 0h3m1 0h1m1 0h2m6 0h1m-29 1h1m1 0h3m1 0h1m4 0h1m1 0h1m1 0h2m1 0h4m1 0h2m1 0h3m-29 1h1m5 0h1m2 0h1m3 0h1m1 0h2m4 0h6m1 0h1m-29 1h7m1 0h1m1 0h3m2 0h3m1 0h2m1 0h1"/>
  </g>
  <text x="350" y="608" font-family="Instrument Sans, Segoe UI, Arial, sans-serif"
        font-size="23" font-weight="600" fill="#6E5848" text-anchor="middle">moarci.github.io/holaRuta</text>
  <!-- Trust-Pill (Stil aus og-image.svg) -->
  <rect x="96" y="624" width="508" height="50" rx="25" fill="#3F7355" fill-opacity="0.12"/>
  <path d="M128 649 l8 9 l14 -20" fill="none" stroke="#3F7355" stroke-width="4" stroke-linecap="round" stroke-linejoin="round"/>
  <text x="162" y="658" font-family="Instrument Sans, Segoe UI, Arial, sans-serif"
        font-size="26" font-weight="700" fill="#3F7355">Offline · ohne Konto · kostenlos</text>
</svg>
