<?xml version="1.0" encoding="utf-8"?>
<!--
  HolaRuta Sticker · Hostel · „Rezeption/Pinnwand" (quadratisch)
  Druckgröße: 70 × 70 mm · Vinyl matt, abgerundetes Quadrat.
  Platzierung: Rezeptionstresen, Common-Room-Board, Spind-Innenseite, Tischecke.
  QR → app.holaruta.com (Pfaddaten aus docs/anleitungen/qr-holaruta.svg).
-->
<svg xmlns="http://www.w3.org/2000/svg" width="70mm" height="70mm" viewBox="0 0 700 700">
  <defs>
    <linearGradient id="g" x1="0" y1="0" x2="1" y2="1">
      <stop offset="0" stop-color="#C2502E"/>
      <stop offset="1" stop-color="#E9A23B"/>
    </linearGradient>
    <clipPath id="card"><rect x="8" y="8" width="684" height="684" rx="48"/></clipPath>
    <style>
      @font-face{font-family:'Bricolage Grotesque';src:url('../../fonts/bricolage-grotesque-600-800-latin.woff2') format('woff2');font-weight:600 800;}
      @font-face{font-family:'Instrument Sans';src:url('../../fonts/instrument-sans-400-700-latin.woff2') format('woff2');font-weight:400 700;}
    </style>
  </defs>
  <rect x="8" y="8" width="684" height="684" rx="48" fill="#FFFDF6" stroke="#2D1B12" stroke-opacity="0.14" stroke-width="3"/>
  <!-- Gradient-Kopfstreifen (Stil aus og-image.svg) -->
  <rect x="8" y="8" width="684" height="26" fill="url(#g)" clip-path="url(#card)"/>
  <!-- Brand-Zeile: Mini-Icon + Wortmarke -->
  <g transform="translate(56,64) scale(0.125)">
    <rect width="512" height="512" rx="116" fill="url(#g)"/>
    <path d="M256 86 C326 86 382 142 382 212 C382 296 296 360 256 446 C216 360 130 296 130 212 C130 142 186 86 256 86 Z" fill="#FBF3E4"/>
    <text x="256" y="252" font-family="Bricolage Grotesque, Segoe UI, Arial, sans-serif"
          font-size="118" font-weight="800" fill="#C2502E" text-anchor="middle">¿?</text>
  </g>
  <text x="136" y="112" font-family="Bricolage Grotesque, Segoe UI, Arial, sans-serif"
        font-size="52" font-weight="800" letter-spacing="-1"><tspan fill="#2D1B12">Hola</tspan><tspan fill="#C2502E">Ruta</tspan></text>
  <text x="56" y="208" font-family="Bricolage Grotesque, Segoe UI, Arial, sans-serif"
        font-size="60" font-weight="800" fill="#2D1B12" letter-spacing="-1">Survival Spanish</text>
  <text x="56" y="272" font-family="Bricolage Grotesque, Segoe UI, Arial, sans-serif"
        font-size="60" font-weight="800" fill="#C2502E" letter-spacing="-1">for your trip.</text>
  <rect x="210" y="298" width="280" height="280" rx="22" fill="#FFFFFF" stroke="#2D1B12" stroke-opacity="0.12" stroke-width="2"/>
  <g transform="translate(243.939,331.939) scale(8.48485)"><path fill="#fff" d="M0 0h25v25h-25z"/><path fill="#241510" d="M0,0l1,0 0,1 -1,0 0,-1z M1,0l1,0 0,1 -1,0 0,-1z M2,0l1,0 0,1 -1,0 0,-1z M3,0l1,0 0,1 -1,0 0,-1z M4,0l1,0 0,1 -1,0 0,-1z M5,0l1,0 0,1 -1,0 0,-1z M6,0l1,0 0,1 -1,0 0,-1z M8,0l1,0 0,1 -1,0 0,-1z M9,0l1,0 0,1 -1,0 0,-1z M13,0l1,0 0,1 -1,0 0,-1z M18,0l1,0 0,1 -1,0 0,-1z M19,0l1,0 0,1 -1,0 0,-1z M20,0l1,0 0,1 -1,0 0,-1z M21,0l1,0 0,1 -1,0 0,-1z M22,0l1,0 0,1 -1,0 0,-1z M23,0l1,0 0,1 -1,0 0,-1z M24,0l1,0 0,1 -1,0 0,-1z M0,1l1,0 0,1 -1,0 0,-1z M6,1l1,0 0,1 -1,0 0,-1z M8,1l1,0 0,1 -1,0 0,-1z M13,1l1,0 0,1 -1,0 0,-1z M18,1l1,0 0,1 -1,0 0,-1z M24,1l1,0 0,1 -1,0 0,-1z M0,2l1,0 0,1 -1,0 0,-1z M2,2l1,0 0,1 -1,0 0,-1z M3,2l1,0 0,1 -1,0 0,-1z M4,2l1,0 0,1 -1,0 0,-1z M6,2l1,0 0,1 -1,0 0,-1z M8,2l1,0 0,1 -1,0 0,-1z M9,2l1,0 0,1 -1,0 0,-1z M10,2l1,0 0,1 -1,0 0,-1z M13,2l1,0 0,1 -1,0 0,-1z M14,2l1,0 0,1 -1,0 0,-1z M16,2l1,0 0,1 -1,0 0,-1z M18,2l1,0 0,1 -1,0 0,-1z M20,2l1,0 0,1 -1,0 0,-1z M21,2l1,0 0,1 -1,0 0,-1z M22,2l1,0 0,1 -1,0 0,-1z M24,2l1,0 0,1 -1,0 0,-1z M0,3l1,0 0,1 -1,0 0,-1z M2,3l1,0 0,1 -1,0 0,-1z M3,3l1,0 0,1 -1,0 0,-1z M4,3l1,0 0,1 -1,0 0,-1z M6,3l1,0 0,1 -1,0 0,-1z M11,3l1,0 0,1 -1,0 0,-1z M13,3l1,0 0,1 -1,0 0,-1z M18,3l1,0 0,1 -1,0 0,-1z M20,3l1,0 0,1 -1,0 0,-1z M21,3l1,0 0,1 -1,0 0,-1z M22,3l1,0 0,1 -1,0 0,-1z M24,3l1,0 0,1 -1,0 0,-1z M0,4l1,0 0,1 -1,0 0,-1z M2,4l1,0 0,1 -1,0 0,-1z M3,4l1,0 0,1 -1,0 0,-1z M4,4l1,0 0,1 -1,0 0,-1z M6,4l1,0 0,1 -1,0 0,-1z M8,4l1,0 0,1 -1,0 0,-1z M9,4l1,0 0,1 -1,0 0,-1z M16,4l1,0 0,1 -1,0 0,-1z M18,4l1,0 0,1 -1,0 0,-1z M20,4l1,0 0,1 -1,0 0,-1z M21,4l1,0 0,1 -1,0 0,-1z M22,4l1,0 0,1 -1,0 0,-1z M24,4l1,0 0,1 -1,0 0,-1z M0,5l1,0 0,1 -1,0 0,-1z M6,5l1,0 0,1 -1,0 0,-1z M9,5l1,0 0,1 -1,0 0,-1z M12,5l1,0 0,1 -1,0 0,-1z M14,5l1,0 0,1 -1,0 0,-1z M18,5l1,0 0,1 -1,0 0,-1z M24,5l1,0 0,1 -1,0 0,-1z M0,6l1,0 0,1 -1,0 0,-1z M1,6l1,0 0,1 -1,0 0,-1z M2,6l1,0 0,1 -1,0 0,-1z M3,6l1,0 0,1 -1,0 0,-1z M4,6l1,0 0,1 -1,0 0,-1z M5,6l1,0 0,1 -1,0 0,-1z M6,6l1,0 0,1 -1,0 0,-1z M8,6l1,0 0,1 -1,0 0,-1z M10,6l1,0 0,1 -1,0 0,-1z M12,6l1,0 0,1 -1,0 0,-1z M14,6l1,0 0,1 -1,0 0,-1z M16,6l1,0 0,1 -1,0 0,-1z M18,6l1,0 0,1 -1,0 0,-1z M19,6l1,0 0,1 -1,0 0,-1z M20,6l1,0 0,1 -1,0 0,-1z M21,6l1,0 0,1 -1,0 0,-1z M22,6l1,0 0,1 -1,0 0,-1z M23,6l1,0 0,1 -1,0 0,-1z M24,6l1,0 0,1 -1,0 0,-1z M13,7l1,0 0,1 -1,0 0,-1z M14,7l1,0 0,1 -1,0 0,-1z M0,8l1,0 0,1 -1,0 0,-1z M3,8l1,0 0,1 -1,0 0,-1z M4,8l1,0 0,1 -1,0 0,-1z M5,8l1,0 0,1 -1,0 0,-1z M6,8l1,0 0,1 -1,0 0,-1z M7,8l1,0 0,1 -1,0 0,-1z M8,8l1,0 0,1 -1,0 0,-1z M9,8l1,0 0,1 -1,0 0,-1z M10,8l1,0 0,1 -1,0 0,-1z M11,8l1,0 0,1 -1,0 0,-1z M12,8l1,0 0,1 -1,0 0,-1z M14,8l1,0 0,1 -1,0 0,-1z M15,8l1,0 0,1 -1,0 0,-1z M16,8l1,0 0,1 -1,0 0,-1z M17,8l1,0 0,1 -1,0 0,-1z M20,8l1,0 0,1 -1,0 0,-1z M22,8l1,0 0,1 -1,0 0,-1z M23,8l1,0 0,1 -1,0 0,-1z M24,8l1,0 0,1 -1,0 0,-1z M0,9l1,0 0,1 -1,0 0,-1z M1,9l1,0 0,1 -1,0 0,-1z M2,9l1,0 0,1 -1,0 0,-1z M9,9l1,0 0,1 -1,0 0,-1z M10,9l1,0 0,1 -1,0 0,-1z M14,9l1,0 0,1 -1,0 0,-1z M15,9l1,0 0,1 -1,0 0,-1z M17,9l1,0 0,1 -1,0 0,-1z M19,9l1,0 0,1 -1,0 0,-1z M20,9l1,0 0,1 -1,0 0,-1z M21,9l1,0 0,1 -1,0 0,-1z M22,9l1,0 0,1 -1,0 0,-1z M23,9l1,0 0,1 -1,0 0,-1z M0,10l1,0 0,1 -1,0 0,-1z M2,10l1,0 0,1 -1,0 0,-1z M6,10l1,0 0,1 -1,0 0,-1z M7,10l1,0 0,1 -1,0 0,-1z M11,10l1,0 0,1 -1,0 0,-1z M14,10l1,0 0,1 -1,0 0,-1z M15,10l1,0 0,1 -1,0 0,-1z M17,10l1,0 0,1 -1,0 0,-1z M18,10l1,0 0,1 -1,0 0,-1z M19,10l1,0 0,1 -1,0 0,-1z M20,10l1,0 0,1 -1,0 0,-1z M21,10l1,0 0,1 -1,0 0,-1z M24,10l1,0 0,1 -1,0 0,-1z M0,11l1,0 0,1 -1,0 0,-1z M2,11l1,0 0,1 -1,0 0,-1z M5,11l1,0 0,1 -1,0 0,-1z M8,11l1,0 0,1 -1,0 0,-1z M9,11l1,0 0,1 -1,0 0,-1z M10,11l1,0 0,1 -1,0 0,-1z M12,11l1,0 0,1 -1,0 0,-1z M14,11l1,0 0,1 -1,0 0,-1z M17,11l1,0 0,1 -1,0 0,-1z M18,11l1,0 0,1 -1,0 0,-1z M21,11l1,0 0,1 -1,0 0,-1z M22,11l1,0 0,1 -1,0 0,-1z M23,11l1,0 0,1 -1,0 0,-1z M24,11l1,0 0,1 -1,0 0,-1z M0,12l1,0 0,1 -1,0 0,-1z M2,12l1,0 0,1 -1,0 0,-1z M5,12l1,0 0,1 -1,0 0,-1z M6,12l1,0 0,1 -1,0 0,-1z M10,12l1,0 0,1 -1,0 0,-1z M11,12l1,0 0,1 -1,0 0,-1z M12,12l1,0 0,1 -1,0 0,-1z M14,12l1,0 0,1 -1,0 0,-1z M16,12l1,0 0,1 -1,0 0,-1z M18,12l1,0 0,1 -1,0 0,-1z M19,12l1,0 0,1 -1,0 0,-1z M24,12l1,0 0,1 -1,0 0,-1z M0,13l1,0 0,1 -1,0 0,-1z M1,13l1,0 0,1 -1,0 0,-1z M2,13l1,0 0,1 -1,0 0,-1z M3,13l1,0 0,1 -1,0 0,-1z M8,13l1,0 0,1 -1,0 0,-1z M14,13l1,0 0,1 -1,0 0,-1z M15,13l1,0 0,1 -1,0 0,-1z M16,13l1,0 0,1 -1,0 0,-1z M17,13l1,0 0,1 -1,0 0,-1z M20,13l1,0 0,1 -1,0 0,-1z M23,13l1,0 0,1 -1,0 0,-1z M0,14l1,0 0,1 -1,0 0,-1z M1,14l1,0 0,1 -1,0 0,-1z M6,14l1,0 0,1 -1,0 0,-1z M7,14l1,0 0,1 -1,0 0,-1z M9,14l1,0 0,1 -1,0 0,-1z M11,14l1,0 0,1 -1,0 0,-1z M12,14l1,0 0,1 -1,0 0,-1z M14,14l1,0 0,1 -1,0 0,-1z M15,14l1,0 0,1 -1,0 0,-1z M18,14l1,0 0,1 -1,0 0,-1z M20,14l1,0 0,1 -1,0 0,-1z M21,14l1,0 0,1 -1,0 0,-1z M22,14l1,0 0,1 -1,0 0,-1z M23,14l1,0 0,1 -1,0 0,-1z M24,14l1,0 0,1 -1,0 0,-1z M0,15l1,0 0,1 -1,0 0,-1z M2,15l1,0 0,1 -1,0 0,-1z M11,15l1,0 0,1 -1,0 0,-1z M14,15l1,0 0,1 -1,0 0,-1z M15,15l1,0 0,1 -1,0 0,-1z M18,15l1,0 0,1 -1,0 0,-1z M19,15l1,0 0,1 -1,0 0,-1z M21,15l1,0 0,1 -1,0 0,-1z M22,15l1,0 0,1 -1,0 0,-1z M24,15l1,0 0,1 -1,0 0,-1z M0,16l1,0 0,1 -1,0 0,-1z M4,16l1,0 0,1 -1,0 0,-1z M6,16l1,0 0,1 -1,0 0,-1z M7,16l1,0 0,1 -1,0 0,-1z M8,16l1,0 0,1 -1,0 0,-1z M9,16l1,0 0,1 -1,0 0,-1z M10,16l1,0 0,1 -1,0 0,-1z M12,16l1,0 0,1 -1,0 0,-1z M13,16l1,0 0,1 -1,0 0,-1z M16,16l1,0 0,1 -1,0 0,-1z M17,16l1,0 0,1 -1,0 0,-1z M18,16l1,0 0,1 -1,0 0,-1z M19,16l1,0 0,1 -1,0 0,-1z M20,16l1,0 0,1 -1,0 0,-1z M22,16l1,0 0,1 -1,0 0,-1z M23,16l1,0 0,1 -1,0 0,-1z M8,17l1,0 0,1 -1,0 0,-1z M9,17l1,0 0,1 -1,0 0,-1z M10,17l1,0 0,1 -1,0 0,-1z M11,17l1,0 0,1 -1,0 0,-1z M12,17l1,0 0,1 -1,0 0,-1z M16,17l1,0 0,1 -1,0 0,-1z M20,17l1,0 0,1 -1,0 0,-1z M22,17l1,0 0,1 -1,0 0,-1z M23,17l1,0 0,1 -1,0 0,-1z M0,18l1,0 0,1 -1,0 0,-1z M1,18l1,0 0,1 -1,0 0,-1z M2,18l1,0 0,1 -1,0 0,-1z M3,18l1,0 0,1 -1,0 0,-1z M4,18l1,0 0,1 -1,0 0,-1z M5,18l1,0 0,1 -1,0 0,-1z M6,18l1,0 0,1 -1,0 0,-1z M8,18l1,0 0,1 -1,0 0,-1z M9,18l1,0 0,1 -1,0 0,-1z M11,18l1,0 0,1 -1,0 0,-1z M14,18l1,0 0,1 -1,0 0,-1z M16,18l1,0 0,1 -1,0 0,-1z M18,18l1,0 0,1 -1,0 0,-1z M20,18l1,0 0,1 -1,0 0,-1z M24,18l1,0 0,1 -1,0 0,-1z M0,19l1,0 0,1 -1,0 0,-1z M6,19l1,0 0,1 -1,0 0,-1z M8,19l1,0 0,1 -1,0 0,-1z M9,19l1,0 0,1 -1,0 0,-1z M11,19l1,0 0,1 -1,0 0,-1z M13,19l1,0 0,1 -1,0 0,-1z M15,19l1,0 0,1 -1,0 0,-1z M16,19l1,0 0,1 -1,0 0,-1z M20,19l1,0 0,1 -1,0 0,-1z M23,19l1,0 0,1 -1,0 0,-1z M24,19l1,0 0,1 -1,0 0,-1z M0,20l1,0 0,1 -1,0 0,-1z M2,20l1,0 0,1 -1,0 0,-1z M3,20l1,0 0,1 -1,0 0,-1z M4,20l1,0 0,1 -1,0 0,-1z M6,20l1,0 0,1 -1,0 0,-1z M8,20l1,0 0,1 -1,0 0,-1z M9,20l1,0 0,1 -1,0 0,-1z M10,20l1,0 0,1 -1,0 0,-1z M11,20l1,0 0,1 -1,0 0,-1z M12,20l1,0 0,1 -1,0 0,-1z M14,20l1,0 0,1 -1,0 0,-1z M15,20l1,0 0,1 -1,0 0,-1z M16,20l1,0 0,1 -1,0 0,-1z M17,20l1,0 0,1 -1,0 0,-1z M18,20l1,0 0,1 -1,0 0,-1z M19,20l1,0 0,1 -1,0 0,-1z M20,20l1,0 0,1 -1,0 0,-1z M0,21l1,0 0,1 -1,0 0,-1z M2,21l1,0 0,1 -1,0 0,-1z M3,21l1,0 0,1 -1,0 0,-1z M4,21l1,0 0,1 -1,0 0,-1z M6,21l1,0 0,1 -1,0 0,-1z M8,21l1,0 0,1 -1,0 0,-1z M11,21l1,0 0,1 -1,0 0,-1z M12,21l1,0 0,1 -1,0 0,-1z M13,21l1,0 0,1 -1,0 0,-1z M14,21l1,0 0,1 -1,0 0,-1z M16,21l1,0 0,1 -1,0 0,-1z M18,21l1,0 0,1 -1,0 0,-1z M23,21l1,0 0,1 -1,0 0,-1z M24,21l1,0 0,1 -1,0 0,-1z M0,22l1,0 0,1 -1,0 0,-1z M2,22l1,0 0,1 -1,0 0,-1z M3,22l1,0 0,1 -1,0 0,-1z M4,22l1,0 0,1 -1,0 0,-1z M6,22l1,0 0,1 -1,0 0,-1z M10,22l1,0 0,1 -1,0 0,-1z M11,22l1,0 0,1 -1,0 0,-1z M13,22l1,0 0,1 -1,0 0,-1z M15,22l1,0 0,1 -1,0 0,-1z M16,22l1,0 0,1 -1,0 0,-1z M17,22l1,0 0,1 -1,0 0,-1z M20,22l1,0 0,1 -1,0 0,-1z M21,22l1,0 0,1 -1,0 0,-1z M22,22l1,0 0,1 -1,0 0,-1z M23,22l1,0 0,1 -1,0 0,-1z M24,22l1,0 0,1 -1,0 0,-1z M0,23l1,0 0,1 -1,0 0,-1z M6,23l1,0 0,1 -1,0 0,-1z M9,23l1,0 0,1 -1,0 0,-1z M11,23l1,0 0,1 -1,0 0,-1z M14,23l1,0 0,1 -1,0 0,-1z M19,23l1,0 0,1 -1,0 0,-1z M20,23l1,0 0,1 -1,0 0,-1z M22,23l1,0 0,1 -1,0 0,-1z M23,23l1,0 0,1 -1,0 0,-1z M24,23l1,0 0,1 -1,0 0,-1z M0,24l1,0 0,1 -1,0 0,-1z M1,24l1,0 0,1 -1,0 0,-1z M2,24l1,0 0,1 -1,0 0,-1z M3,24l1,0 0,1 -1,0 0,-1z M4,24l1,0 0,1 -1,0 0,-1z M5,24l1,0 0,1 -1,0 0,-1z M6,24l1,0 0,1 -1,0 0,-1z M8,24l1,0 0,1 -1,0 0,-1z M12,24l1,0 0,1 -1,0 0,-1z M16,24l1,0 0,1 -1,0 0,-1z M17,24l1,0 0,1 -1,0 0,-1z M21,24l1,0 0,1 -1,0 0,-1z M24,24l1,0 0,1 -1,0 0,-1z "/></g>
  <text x="350" y="608" font-family="Instrument Sans, Segoe UI, Arial, sans-serif"
        font-size="23" font-weight="600" fill="#6E5848" text-anchor="middle">holaruta.com</text>
  <!-- Trust-Pill (Stil aus og-image.svg) -->
  <rect x="96" y="624" width="508" height="50" rx="25" fill="#3F7355" fill-opacity="0.12"/>
  <path d="M128 649 l8 9 l14 -20" fill="none" stroke="#3F7355" stroke-width="4" stroke-linecap="round" stroke-linejoin="round"/>
  <text x="162" y="658" font-family="Instrument Sans, Segoe UI, Arial, sans-serif"
        font-size="26" font-weight="700" fill="#3F7355">Offline · ohne Konto · kostenlos</text>
</svg>
