<?xml version="1.0" encoding="utf-8"?>
<!--
  HolaRuta Sticker · Hostel · Edition „HOSTEL"
  Automatisch erzeugt von docs/sticker/gen-editions.js – nicht von Hand editieren.
  QR → https://holaruta.com/?edition=hostel  ·  Akzent aus editions/registry.js
  Druckgröße: 70 × 70 mm · Vinyl matt · abgerundetes Quadrat.
-->
<svg xmlns="http://www.w3.org/2000/svg" width="70mm" height="70mm" viewBox="0 0 700 700">
  <defs>
    <linearGradient id="g" x1="0" y1="0" x2="1" y2="1">
      <stop offset="0" stop-color="#E08A2C"/>
      <stop offset="1" stop-color="#F0B45E"/>
    </linearGradient>
    <clipPath id="card"><rect x="8" y="8" width="684" height="684" rx="48"/></clipPath>
    <style>
      @font-face{font-family:'Bricolage Grotesque';src:url('../../fonts/bricolage-grotesque-600-800-latin.woff2') format('woff2');font-weight:600 800;}
      @font-face{font-family:'Instrument Sans';src:url('../../fonts/instrument-sans-400-700-latin.woff2') format('woff2');font-weight:400 700;}
    </style>
  </defs>
  <rect x="8" y="8" width="684" height="684" rx="48" fill="#FFFDF6" stroke="#2D1B12" stroke-opacity="0.14" stroke-width="3"/>
  <rect x="8" y="8" width="684" height="26" fill="url(#g)" clip-path="url(#card)"/>
  <g transform="translate(56,64) scale(0.125)">
    <rect width="512" height="512" rx="116" fill="url(#g)"/>
    <path d="M256 86 C326 86 382 142 382 212 C382 296 296 360 256 446 C216 360 130 296 130 212 C130 142 186 86 256 86 Z" fill="#FBF3E4"/>
    <text x="256" y="252" font-family="Bricolage Grotesque, Segoe UI, Arial, sans-serif" font-size="118" font-weight="800" fill="#E08A2C" text-anchor="middle">¿?</text>
  </g>
  <text x="136" y="108" font-family="Bricolage Grotesque, Segoe UI, Arial, sans-serif" font-size="50" font-weight="800" letter-spacing="-1"><tspan fill="#2D1B12">Hola</tspan><tspan fill="#E08A2C">Ruta</tspan></text>
  <rect x="138" y="122" width="106" height="34" rx="17" fill="#E08A2C" fill-opacity="0.14"/>
  <text x="191" y="145" font-family="Instrument Sans, Segoe UI, Arial, sans-serif" font-size="20" font-weight="700" fill="#B5681C" text-anchor="middle" letter-spacing="1">HOSTEL</text>
  <text x="56" y="228" font-family="Bricolage Grotesque, Segoe UI, Arial, sans-serif" font-size="58" font-weight="800" fill="#2D1B12" letter-spacing="-1">Survival Spanish</text>
  <text x="56" y="286" font-family="Bricolage Grotesque, Segoe UI, Arial, sans-serif" font-size="58" font-weight="800" fill="#E08A2C" letter-spacing="-1">for your trip.</text>
  <rect x="210" y="300" width="280" height="280" rx="22" fill="#FFFFFF" stroke="#2D1B12" stroke-opacity="0.12" stroke-width="2"/><g transform="translate(240.270,330.270) scale(7.56757)"><path d="M0,0l1,0 0,1 -1,0 0,-1z M1,0l1,0 0,1 -1,0 0,-1z M2,0l1,0 0,1 -1,0 0,-1z M3,0l1,0 0,1 -1,0 0,-1z M4,0l1,0 0,1 -1,0 0,-1z M5,0l1,0 0,1 -1,0 0,-1z M6,0l1,0 0,1 -1,0 0,-1z M10,0l1,0 0,1 -1,0 0,-1z M11,0l1,0 0,1 -1,0 0,-1z M13,0l1,0 0,1 -1,0 0,-1z M14,0l1,0 0,1 -1,0 0,-1z M16,0l1,0 0,1 -1,0 0,-1z M18,0l1,0 0,1 -1,0 0,-1z M19,0l1,0 0,1 -1,0 0,-1z M22,0l1,0 0,1 -1,0 0,-1z M23,0l1,0 0,1 -1,0 0,-1z M24,0l1,0 0,1 -1,0 0,-1z M25,0l1,0 0,1 -1,0 0,-1z M26,0l1,0 0,1 -1,0 0,-1z M27,0l1,0 0,1 -1,0 0,-1z M28,0l1,0 0,1 -1,0 0,-1z M0,1l1,0 0,1 -1,0 0,-1z M6,1l1,0 0,1 -1,0 0,-1z M8,1l1,0 0,1 -1,0 0,-1z M9,1l1,0 0,1 -1,0 0,-1z M11,1l1,0 0,1 -1,0 0,-1z M14,1l1,0 0,1 -1,0 0,-1z M15,1l1,0 0,1 -1,0 0,-1z M17,1l1,0 0,1 -1,0 0,-1z M18,1l1,0 0,1 -1,0 0,-1z M19,1l1,0 0,1 -1,0 0,-1z M20,1l1,0 0,1 -1,0 0,-1z M22,1l1,0 0,1 -1,0 0,-1z M28,1l1,0 0,1 -1,0 0,-1z M0,2l1,0 0,1 -1,0 0,-1z M2,2l1,0 0,1 -1,0 0,-1z M3,2l1,0 0,1 -1,0 0,-1z M4,2l1,0 0,1 -1,0 0,-1z M6,2l1,0 0,1 -1,0 0,-1z M9,2l1,0 0,1 -1,0 0,-1z M11,2l1,0 0,1 -1,0 0,-1z M13,2l1,0 0,1 -1,0 0,-1z M14,2l1,0 0,1 -1,0 0,-1z M19,2l1,0 0,1 -1,0 0,-1z M22,2l1,0 0,1 -1,0 0,-1z M24,2l1,0 0,1 -1,0 0,-1z M25,2l1,0 0,1 -1,0 0,-1z M26,2l1,0 0,1 -1,0 0,-1z M28,2l1,0 0,1 -1,0 0,-1z M0,3l1,0 0,1 -1,0 0,-1z M2,3l1,0 0,1 -1,0 0,-1z M3,3l1,0 0,1 -1,0 0,-1z M4,3l1,0 0,1 -1,0 0,-1z M6,3l1,0 0,1 -1,0 0,-1z M10,3l1,0 0,1 -1,0 0,-1z M13,3l1,0 0,1 -1,0 0,-1z M14,3l1,0 0,1 -1,0 0,-1z M18,3l1,0 0,1 -1,0 0,-1z M20,3l1,0 0,1 -1,0 0,-1z M22,3l1,0 0,1 -1,0 0,-1z M24,3l1,0 0,1 -1,0 0,-1z M25,3l1,0 0,1 -1,0 0,-1z M26,3l1,0 0,1 -1,0 0,-1z M28,3l1,0 0,1 -1,0 0,-1z M0,4l1,0 0,1 -1,0 0,-1z M2,4l1,0 0,1 -1,0 0,-1z M3,4l1,0 0,1 -1,0 0,-1z M4,4l1,0 0,1 -1,0 0,-1z M6,4l1,0 0,1 -1,0 0,-1z M8,4l1,0 0,1 -1,0 0,-1z M10,4l1,0 0,1 -1,0 0,-1z M14,4l1,0 0,1 -1,0 0,-1z M15,4l1,0 0,1 -1,0 0,-1z M18,4l1,0 0,1 -1,0 0,-1z M19,4l1,0 0,1 -1,0 0,-1z M20,4l1,0 0,1 -1,0 0,-1z M22,4l1,0 0,1 -1,0 0,-1z M24,4l1,0 0,1 -1,0 0,-1z M25,4l1,0 0,1 -1,0 0,-1z M26,4l1,0 0,1 -1,0 0,-1z M28,4l1,0 0,1 -1,0 0,-1z M0,5l1,0 0,1 -1,0 0,-1z M6,5l1,0 0,1 -1,0 0,-1z M9,5l1,0 0,1 -1,0 0,-1z M10,5l1,0 0,1 -1,0 0,-1z M11,5l1,0 0,1 -1,0 0,-1z M12,5l1,0 0,1 -1,0 0,-1z M13,5l1,0 0,1 -1,0 0,-1z M15,5l1,0 0,1 -1,0 0,-1z M16,5l1,0 0,1 -1,0 0,-1z M17,5l1,0 0,1 -1,0 0,-1z M18,5l1,0 0,1 -1,0 0,-1z M19,5l1,0 0,1 -1,0 0,-1z M20,5l1,0 0,1 -1,0 0,-1z M22,5l1,0 0,1 -1,0 0,-1z M28,5l1,0 0,1 -1,0 0,-1z M0,6l1,0 0,1 -1,0 0,-1z M1,6l1,0 0,1 -1,0 0,-1z M2,6l1,0 0,1 -1,0 0,-1z M3,6l1,0 0,1 -1,0 0,-1z M4,6l1,0 0,1 -1,0 0,-1z M5,6l1,0 0,1 -1,0 0,-1z M6,6l1,0 0,1 -1,0 0,-1z M8,6l1,0 0,1 -1,0 0,-1z M10,6l1,0 0,1 -1,0 0,-1z M12,6l1,0 0,1 -1,0 0,-1z M14,6l1,0 0,1 -1,0 0,-1z M16,6l1,0 0,1 -1,0 0,-1z M18,6l1,0 0,1 -1,0 0,-1z M20,6l1,0 0,1 -1,0 0,-1z M22,6l1,0 0,1 -1,0 0,-1z M23,6l1,0 0,1 -1,0 0,-1z M24,6l1,0 0,1 -1,0 0,-1z M25,6l1,0 0,1 -1,0 0,-1z M26,6l1,0 0,1 -1,0 0,-1z M27,6l1,0 0,1 -1,0 0,-1z M28,6l1,0 0,1 -1,0 0,-1z M9,7l1,0 0,1 -1,0 0,-1z M10,7l1,0 0,1 -1,0 0,-1z M11,7l1,0 0,1 -1,0 0,-1z M13,7l1,0 0,1 -1,0 0,-1z M14,7l1,0 0,1 -1,0 0,-1z M15,7l1,0 0,1 -1,0 0,-1z M16,7l1,0 0,1 -1,0 0,-1z M17,7l1,0 0,1 -1,0 0,-1z M20,7l1,0 0,1 -1,0 0,-1z M0,8l1,0 0,1 -1,0 0,-1z M2,8l1,0 0,1 -1,0 0,-1z M4,8l1,0 0,1 -1,0 0,-1z M6,8l1,0 0,1 -1,0 0,-1z M9,8l1,0 0,1 -1,0 0,-1z M10,8l1,0 0,1 -1,0 0,-1z M14,8l1,0 0,1 -1,0 0,-1z M16,8l1,0 0,1 -1,0 0,-1z M17,8l1,0 0,1 -1,0 0,-1z M19,8l1,0 0,1 -1,0 0,-1z M20,8l1,0 0,1 -1,0 0,-1z M24,8l1,0 0,1 -1,0 0,-1z M27,8l1,0 0,1 -1,0 0,-1z M3,9l1,0 0,1 -1,0 0,-1z M4,9l1,0 0,1 -1,0 0,-1z M5,9l1,0 0,1 -1,0 0,-1z M10,9l1,0 0,1 -1,0 0,-1z M14,9l1,0 0,1 -1,0 0,-1z M16,9l1,0 0,1 -1,0 0,-1z M22,9l1,0 0,1 -1,0 0,-1z M25,9l1,0 0,1 -1,0 0,-1z M28,9l1,0 0,1 -1,0 0,-1z M0,10l1,0 0,1 -1,0 0,-1z M2,10l1,0 0,1 -1,0 0,-1z M3,10l1,0 0,1 -1,0 0,-1z M4,10l1,0 0,1 -1,0 0,-1z M5,10l1,0 0,1 -1,0 0,-1z M6,10l1,0 0,1 -1,0 0,-1z M10,10l1,0 0,1 -1,0 0,-1z M11,10l1,0 0,1 -1,0 0,-1z M12,10l1,0 0,1 -1,0 0,-1z M13,10l1,0 0,1 -1,0 0,-1z M16,10l1,0 0,1 -1,0 0,-1z M18,10l1,0 0,1 -1,0 0,-1z M22,10l1,0 0,1 -1,0 0,-1z M23,10l1,0 0,1 -1,0 0,-1z M24,10l1,0 0,1 -1,0 0,-1z M26,10l1,0 0,1 -1,0 0,-1z M27,10l1,0 0,1 -1,0 0,-1z M28,10l1,0 0,1 -1,0 0,-1z M0,11l1,0 0,1 -1,0 0,-1z M2,11l1,0 0,1 -1,0 0,-1z M3,11l1,0 0,1 -1,0 0,-1z M5,11l1,0 0,1 -1,0 0,-1z M7,11l1,0 0,1 -1,0 0,-1z M8,11l1,0 0,1 -1,0 0,-1z M11,11l1,0 0,1 -1,0 0,-1z M15,11l1,0 0,1 -1,0 0,-1z M16,11l1,0 0,1 -1,0 0,-1z M17,11l1,0 0,1 -1,0 0,-1z M18,11l1,0 0,1 -1,0 0,-1z M19,11l1,0 0,1 -1,0 0,-1z M20,11l1,0 0,1 -1,0 0,-1z M21,11l1,0 0,1 -1,0 0,-1z M22,11l1,0 0,1 -1,0 0,-1z M23,11l1,0 0,1 -1,0 0,-1z M27,11l1,0 0,1 -1,0 0,-1z M1,12l1,0 0,1 -1,0 0,-1z M3,12l1,0 0,1 -1,0 0,-1z M5,12l1,0 0,1 -1,0 0,-1z M6,12l1,0 0,1 -1,0 0,-1z M9,12l1,0 0,1 -1,0 0,-1z M10,12l1,0 0,1 -1,0 0,-1z M12,12l1,0 0,1 -1,0 0,-1z M17,12l1,0 0,1 -1,0 0,-1z M19,12l1,0 0,1 -1,0 0,-1z M20,12l1,0 0,1 -1,0 0,-1z M21,12l1,0 0,1 -1,0 0,-1z M22,12l1,0 0,1 -1,0 0,-1z M25,12l1,0 0,1 -1,0 0,-1z M27,12l1,0 0,1 -1,0 0,-1z M28,12l1,0 0,1 -1,0 0,-1z M1,13l1,0 0,1 -1,0 0,-1z M3,13l1,0 0,1 -1,0 0,-1z M8,13l1,0 0,1 -1,0 0,-1z M9,13l1,0 0,1 -1,0 0,-1z M10,13l1,0 0,1 -1,0 0,-1z M13,13l1,0 0,1 -1,0 0,-1z M16,13l1,0 0,1 -1,0 0,-1z M17,13l1,0 0,1 -1,0 0,-1z M18,13l1,0 0,1 -1,0 0,-1z M20,13l1,0 0,1 -1,0 0,-1z M22,13l1,0 0,1 -1,0 0,-1z M25,13l1,0 0,1 -1,0 0,-1z M28,13l1,0 0,1 -1,0 0,-1z M0,14l1,0 0,1 -1,0 0,-1z M1,14l1,0 0,1 -1,0 0,-1z M4,14l1,0 0,1 -1,0 0,-1z M6,14l1,0 0,1 -1,0 0,-1z M10,14l1,0 0,1 -1,0 0,-1z M14,14l1,0 0,1 -1,0 0,-1z M21,14l1,0 0,1 -1,0 0,-1z M22,14l1,0 0,1 -1,0 0,-1z M24,14l1,0 0,1 -1,0 0,-1z M25,14l1,0 0,1 -1,0 0,-1z M27,14l1,0 0,1 -1,0 0,-1z M28,14l1,0 0,1 -1,0 0,-1z M0,15l1,0 0,1 -1,0 0,-1z M1,15l1,0 0,1 -1,0 0,-1z M2,15l1,0 0,1 -1,0 0,-1z M4,15l1,0 0,1 -1,0 0,-1z M8,15l1,0 0,1 -1,0 0,-1z M9,15l1,0 0,1 -1,0 0,-1z M10,15l1,0 0,1 -1,0 0,-1z M13,15l1,0 0,1 -1,0 0,-1z M14,15l1,0 0,1 -1,0 0,-1z M17,15l1,0 0,1 -1,0 0,-1z M20,15l1,0 0,1 -1,0 0,-1z M24,15l1,0 0,1 -1,0 0,-1z M25,15l1,0 0,1 -1,0 0,-1z M27,15l1,0 0,1 -1,0 0,-1z M2,16l1,0 0,1 -1,0 0,-1z M4,16l1,0 0,1 -1,0 0,-1z M5,16l1,0 0,1 -1,0 0,-1z M6,16l1,0 0,1 -1,0 0,-1z M8,16l1,0 0,1 -1,0 0,-1z M12,16l1,0 0,1 -1,0 0,-1z M14,16l1,0 0,1 -1,0 0,-1z M17,16l1,0 0,1 -1,0 0,-1z M19,16l1,0 0,1 -1,0 0,-1z M20,16l1,0 0,1 -1,0 0,-1z M21,16l1,0 0,1 -1,0 0,-1z M22,16l1,0 0,1 -1,0 0,-1z M25,16l1,0 0,1 -1,0 0,-1z M27,16l1,0 0,1 -1,0 0,-1z M28,16l1,0 0,1 -1,0 0,-1z M1,17l1,0 0,1 -1,0 0,-1z M3,17l1,0 0,1 -1,0 0,-1z M4,17l1,0 0,1 -1,0 0,-1z M8,17l1,0 0,1 -1,0 0,-1z M9,17l1,0 0,1 -1,0 0,-1z M11,17l1,0 0,1 -1,0 0,-1z M12,17l1,0 0,1 -1,0 0,-1z M14,17l1,0 0,1 -1,0 0,-1z M16,17l1,0 0,1 -1,0 0,-1z M20,17l1,0 0,1 -1,0 0,-1z M22,17l1,0 0,1 -1,0 0,-1z M25,17l1,0 0,1 -1,0 0,-1z M26,17l1,0 0,1 -1,0 0,-1z M28,17l1,0 0,1 -1,0 0,-1z M0,18l1,0 0,1 -1,0 0,-1z M3,18l1,0 0,1 -1,0 0,-1z M4,18l1,0 0,1 -1,0 0,-1z M5,18l1,0 0,1 -1,0 0,-1z M6,18l1,0 0,1 -1,0 0,-1z M7,18l1,0 0,1 -1,0 0,-1z M9,18l1,0 0,1 -1,0 0,-1z M11,18l1,0 0,1 -1,0 0,-1z M13,18l1,0 0,1 -1,0 0,-1z M18,18l1,0 0,1 -1,0 0,-1z M21,18l1,0 0,1 -1,0 0,-1z M22,18l1,0 0,1 -1,0 0,-1z M23,18l1,0 0,1 -1,0 0,-1z M27,18l1,0 0,1 -1,0 0,-1z M28,18l1,0 0,1 -1,0 0,-1z M1,19l1,0 0,1 -1,0 0,-1z M3,19l1,0 0,1 -1,0 0,-1z M4,19l1,0 0,1 -1,0 0,-1z M7,19l1,0 0,1 -1,0 0,-1z M16,19l1,0 0,1 -1,0 0,-1z M17,19l1,0 0,1 -1,0 0,-1z M18,19l1,0 0,1 -1,0 0,-1z M21,19l1,0 0,1 -1,0 0,-1z M24,19l1,0 0,1 -1,0 0,-1z M25,19l1,0 0,1 -1,0 0,-1z M27,19l1,0 0,1 -1,0 0,-1z M0,20l1,0 0,1 -1,0 0,-1z M2,20l1,0 0,1 -1,0 0,-1z M6,20l1,0 0,1 -1,0 0,-1z M7,20l1,0 0,1 -1,0 0,-1z M10,20l1,0 0,1 -1,0 0,-1z M12,20l1,0 0,1 -1,0 0,-1z M15,20l1,0 0,1 -1,0 0,-1z M16,20l1,0 0,1 -1,0 0,-1z M17,20l1,0 0,1 -1,0 0,-1z M20,20l1,0 0,1 -1,0 0,-1z M21,20l1,0 0,1 -1,0 0,-1z M22,20l1,0 0,1 -1,0 0,-1z M23,20l1,0 0,1 -1,0 0,-1z M24,20l1,0 0,1 -1,0 0,-1z M8,21l1,0 0,1 -1,0 0,-1z M9,21l1,0 0,1 -1,0 0,-1z M11,21l1,0 0,1 -1,0 0,-1z M13,21l1,0 0,1 -1,0 0,-1z M16,21l1,0 0,1 -1,0 0,-1z M19,21l1,0 0,1 -1,0 0,-1z M20,21l1,0 0,1 -1,0 0,-1z M24,21l1,0 0,1 -1,0 0,-1z M26,21l1,0 0,1 -1,0 0,-1z M27,21l1,0 0,1 -1,0 0,-1z M28,21l1,0 0,1 -1,0 0,-1z M0,22l1,0 0,1 -1,0 0,-1z M1,22l1,0 0,1 -1,0 0,-1z M2,22l1,0 0,1 -1,0 0,-1z M3,22l1,0 0,1 -1,0 0,-1z M4,22l1,0 0,1 -1,0 0,-1z M5,22l1,0 0,1 -1,0 0,-1z M6,22l1,0 0,1 -1,0 0,-1z M11,22l1,0 0,1 -1,0 0,-1z M14,22l1,0 0,1 -1,0 0,-1z M16,22l1,0 0,1 -1,0 0,-1z M17,22l1,0 0,1 -1,0 0,-1z M19,22l1,0 0,1 -1,0 0,-1z M20,22l1,0 0,1 -1,0 0,-1z M22,22l1,0 0,1 -1,0 0,-1z M24,22l1,0 0,1 -1,0 0,-1z M25,22l1,0 0,1 -1,0 0,-1z M27,22l1,0 0,1 -1,0 0,-1z M28,22l1,0 0,1 -1,0 0,-1z M0,23l1,0 0,1 -1,0 0,-1z M6,23l1,0 0,1 -1,0 0,-1z M9,23l1,0 0,1 -1,0 0,-1z M10,23l1,0 0,1 -1,0 0,-1z M11,23l1,0 0,1 -1,0 0,-1z M13,23l1,0 0,1 -1,0 0,-1z M14,23l1,0 0,1 -1,0 0,-1z M15,23l1,0 0,1 -1,0 0,-1z M17,23l1,0 0,1 -1,0 0,-1z M18,23l1,0 0,1 -1,0 0,-1z M20,23l1,0 0,1 -1,0 0,-1z M24,23l1,0 0,1 -1,0 0,-1z M25,23l1,0 0,1 -1,0 0,-1z M27,23l1,0 0,1 -1,0 0,-1z M0,24l1,0 0,1 -1,0 0,-1z M2,24l1,0 0,1 -1,0 0,-1z M3,24l1,0 0,1 -1,0 0,-1z M4,24l1,0 0,1 -1,0 0,-1z M6,24l1,0 0,1 -1,0 0,-1z M8,24l1,0 0,1 -1,0 0,-1z M11,24l1,0 0,1 -1,0 0,-1z M12,24l1,0 0,1 -1,0 0,-1z M14,24l1,0 0,1 -1,0 0,-1z M15,24l1,0 0,1 -1,0 0,-1z M16,24l1,0 0,1 -1,0 0,-1z M17,24l1,0 0,1 -1,0 0,-1z M20,24l1,0 0,1 -1,0 0,-1z M21,24l1,0 0,1 -1,0 0,-1z M22,24l1,0 0,1 -1,0 0,-1z M23,24l1,0 0,1 -1,0 0,-1z M24,24l1,0 0,1 -1,0 0,-1z M27,24l1,0 0,1 -1,0 0,-1z M28,24l1,0 0,1 -1,0 0,-1z M0,25l1,0 0,1 -1,0 0,-1z M2,25l1,0 0,1 -1,0 0,-1z M3,25l1,0 0,1 -1,0 0,-1z M4,25l1,0 0,1 -1,0 0,-1z M6,25l1,0 0,1 -1,0 0,-1z M9,25l1,0 0,1 -1,0 0,-1z M11,25l1,0 0,1 -1,0 0,-1z M12,25l1,0 0,1 -1,0 0,-1z M14,25l1,0 0,1 -1,0 0,-1z M16,25l1,0 0,1 -1,0 0,-1z M19,25l1,0 0,1 -1,0 0,-1z M20,25l1,0 0,1 -1,0 0,-1z M23,25l1,0 0,1 -1,0 0,-1z M24,25l1,0 0,1 -1,0 0,-1z M26,25l1,0 0,1 -1,0 0,-1z M27,25l1,0 0,1 -1,0 0,-1z M28,25l1,0 0,1 -1,0 0,-1z M0,26l1,0 0,1 -1,0 0,-1z M2,26l1,0 0,1 -1,0 0,-1z M3,26l1,0 0,1 -1,0 0,-1z M4,26l1,0 0,1 -1,0 0,-1z M6,26l1,0 0,1 -1,0 0,-1z M8,26l1,0 0,1 -1,0 0,-1z M10,26l1,0 0,1 -1,0 0,-1z M12,26l1,0 0,1 -1,0 0,-1z M13,26l1,0 0,1 -1,0 0,-1z M14,26l1,0 0,1 -1,0 0,-1z M17,26l1,0 0,1 -1,0 0,-1z M19,26l1,0 0,1 -1,0 0,-1z M23,26l1,0 0,1 -1,0 0,-1z M24,26l1,0 0,1 -1,0 0,-1z M25,26l1,0 0,1 -1,0 0,-1z M28,26l1,0 0,1 -1,0 0,-1z M0,27l1,0 0,1 -1,0 0,-1z M6,27l1,0 0,1 -1,0 0,-1z M9,27l1,0 0,1 -1,0 0,-1z M10,27l1,0 0,1 -1,0 0,-1z M11,27l1,0 0,1 -1,0 0,-1z M13,27l1,0 0,1 -1,0 0,-1z M15,27l1,0 0,1 -1,0 0,-1z M16,27l1,0 0,1 -1,0 0,-1z M17,27l1,0 0,1 -1,0 0,-1z M19,27l1,0 0,1 -1,0 0,-1z M20,27l1,0 0,1 -1,0 0,-1z M21,27l1,0 0,1 -1,0 0,-1z M23,27l1,0 0,1 -1,0 0,-1z M27,27l1,0 0,1 -1,0 0,-1z M0,28l1,0 0,1 -1,0 0,-1z M1,28l1,0 0,1 -1,0 0,-1z M2,28l1,0 0,1 -1,0 0,-1z M3,28l1,0 0,1 -1,0 0,-1z M4,28l1,0 0,1 -1,0 0,-1z M5,28l1,0 0,1 -1,0 0,-1z M6,28l1,0 0,1 -1,0 0,-1z M8,28l1,0 0,1 -1,0 0,-1z M9,28l1,0 0,1 -1,0 0,-1z M11,28l1,0 0,1 -1,0 0,-1z M13,28l1,0 0,1 -1,0 0,-1z M15,28l1,0 0,1 -1,0 0,-1z M17,28l1,0 0,1 -1,0 0,-1z M18,28l1,0 0,1 -1,0 0,-1z M20,28l1,0 0,1 -1,0 0,-1z M21,28l1,0 0,1 -1,0 0,-1z M22,28l1,0 0,1 -1,0 0,-1z M27,28l1,0 0,1 -1,0 0,-1z M28,28l1,0 0,1 -1,0 0,-1z " fill="#B5681C"/></g>
  <text x="350" y="612" font-family="Instrument Sans, Segoe UI, Arial, sans-serif" font-size="22" font-weight="600" fill="#6E5848" text-anchor="middle">holaruta.com · Für deinen Aufenthalt</text>
  <rect x="96" y="628" width="508" height="50" rx="25" fill="#3F7355" fill-opacity="0.12"/>
  <path d="M128 653 l8 9 l14 -20" fill="none" stroke="#3F7355" stroke-width="4" stroke-linecap="round" stroke-linejoin="round"/>
  <text x="162" y="662" font-family="Instrument Sans, Segoe UI, Arial, sans-serif" font-size="26" font-weight="700" fill="#3F7355">Offline · ohne Konto · kostenlos</text>
</svg>
