<?xml version="1.0" encoding="utf-8"?>
<!--
  HolaRuta Sticker · Hostel · „Reta a tu compañero" (Hostel-Mode, 1 vs 1)
  Druckgröße: 70 × 50 mm · Vinyl, abgerundetes Rechteck.
  Platzierung: Common Room, Bar, Gemeinschaftsküche — passend zum Flyer hostel-reto.html.
  QR → moarci.github.io/holaRuta (Pfaddaten aus docs/anleitungen/qr-holaruta.svg).
-->
<svg xmlns="http://www.w3.org/2000/svg" width="70mm" height="50mm" viewBox="0 0 700 500">
  <defs>
    <style>
      @font-face{font-family:'Bricolage Grotesque';src:url('../../fonts/bricolage-grotesque-600-800-latin.woff2') format('woff2');font-weight:600 800;}
      @font-face{font-family:'Instrument Sans';src:url('../../fonts/instrument-sans-400-700-latin.woff2') format('woff2');font-weight:400 700;}
    </style>
  </defs>
  <rect x="8" y="8" width="684" height="484" rx="40" fill="#241510" stroke="#FBF3E4" stroke-width="10"/>
  <text x="56" y="118" font-family="Bricolage Grotesque, Segoe UI, Arial, sans-serif"
        font-size="50" font-weight="800" letter-spacing="-1"><tspan fill="#FBF3E4">Reta a tu </tspan><tspan fill="#E9A23B">compañero.</tspan></text>
  <rect x="56" y="146" width="280" height="46" rx="23" fill="#E9A23B"/>
  <text x="196" y="177" font-family="Instrument Sans, Segoe UI, Arial, sans-serif"
        font-size="26" font-weight="700" fill="#241510" text-anchor="middle">1 vs 1 · Hostel-Modus</text>
  <!-- Zwei Karteikarten (Stil aus og-image.svg) -->
  <g transform="rotate(-8 155 300)">
    <rect x="60" y="234" width="190" height="126" rx="18" fill="#FFFDF6"/>
    <rect x="70" y="246" width="7" height="102" rx="3.5" fill="#C2502E"/>
    <text x="94" y="300" font-family="Bricolage Grotesque, Segoe UI, Arial, sans-serif"
          font-size="42" font-weight="800" fill="#A23E20">¡Hola!</text>
  </g>
  <g transform="rotate(6 290 390)">
    <rect x="195" y="328" width="190" height="126" rx="18" fill="#FFFDF6"/>
    <rect x="205" y="340" width="7" height="102" rx="3.5" fill="#2F6B70"/>
    <text x="229" y="400" font-family="Bricolage Grotesque, Segoe UI, Arial, sans-serif"
          font-size="34" font-weight="800" fill="#2F6B70">¿Qué más?</text>
  </g>
  <rect x="470" y="235" width="200" height="200" rx="18" fill="#FFFFFF"/>
  <g transform="translate(480,245) scale(5.4545)">
    <path fill="#fff" d="M0 0h33v33h-33z"/><path class="qrline" stroke="#241510" d="M2 2.5h7m1 0h2m1 0h5m2 0h1m3 0h7m-29 1h1m5 0h1m1 0h2m2 0h4m2 0h3m1 0h1m5 0h1m-29 1h1m1 0h3m1 0h1m1 0h1m2 0h1m1 0h2m5 0h1m1 0h1m1 0h3m1 0h1m-29 1h1m1 0h3m1 0h1m2 0h4m1 0h4m1 0h2m1 0h1m1 0h3m1 0h1m-29 1h1m1 0h3m1 0h1m1 0h3m1 0h2m1 0h1m2 0h3m1 0h1m1 0h3m1 0h1m-29 1h1m5 0h1m2 0h1m1 0h4m1 0h1m5 0h1m5 0h1m-29 1h7m1 0h1m1 0h1m1 0h1m1 0h1m1 0h1m1 0h1m1 0h1m1 0h7m-20 1h3m2 0h1m5 0h1m-21 1h1m2 0h6m1 0h2m1 0h7m1 0h1m2 0h1m1 0h3m-29 1h1m1 0h1m1 0h2m1 0h3m1 0h1m2 0h1m1 0h4m3 0h2m1 0h2m-28 1h3m2 0h2m1 0h3m1 0h1m1 0h3m4 0h1m1 0h1m2 0h1m-27 1h1m3 0h2m8 0h2m1 0h1m2 0h2m1 0h3m2 0h1m-28 1h3m2 0h1m1 0h7m1 0h1m2 0h1m2 0h1m5 0h1m-28 1h1m9 0h1m3 0h1m1 0h2m3 0h7m-28 1h2m2 0h3m1 0h2m1 0h1m1 0h2m2 0h2m1 0h1m1 0h2m1 0h1m1 0h1m-27 1h4m1 0h1m5 0h2m1 0h1m1 0h1m1 0h3m1 0h1m1 0h1m1 0h1m-29 1h1m3 0h6m1 0h1m3 0h1m3 0h3m1 0h1m1 0h1m-26 1h3m6 0h2m1 0h1m2 0h1m2 0h3m3 0h1m1 0h2m-28 1h3m1 0h1m1 0h1m1 0h1m3 0h5m2 0h2m4 0h1m2 0h1m-29 1h2m1 0h1m3 0h2m4 0h1m2 0h1m2 0h1m2 0h2m1 0h2m-27 1h5m1 0h1m3 0h2m1 0h1m1 0h1m1 0h1m1 0h9m-20 1h2m1 0h1m1 0h1m1 0h1m1 0h4m3 0h2m-26 1h7m1 0h1m1 0h2m1 0h1m1 0h3m1 0h2m1 0h1m1 0h2m-26 1h1m5 0h1m1 0h1m1 0h1m1 0h2m3 0h4m3 0h1m-25 1h1m1 0h3m1 0h1m1 0h2m1 0h3m1 0h1m3 0h7m1 0h2m-29 1h1m1 0h3m1 0h1m1 0h1m1 0h1m3 0h3m1 0h1m1 0h2m6 0h1m-29 1h1m1 0h3m1 0h1m4 0h1m1 0h1m1 0h2m1 0h4m1 0h2m1 0h3m-29 1h1m5 0h1m2 0h1m3 0h1m1 0h2m4 0h6m1 0h1m-29 1h7m1 0h1m1 0h3m2 0h3m1 0h2m1 0h1"/>
  </g>
  <text x="570" y="468" font-family="Instrument Sans, Segoe UI, Arial, sans-serif"
        font-size="17" font-weight="700" fill="#F0996B" text-anchor="middle">moarci.github.io/holaRuta</text>
</svg>
