<?xml version="1.0" encoding="utf-8"?>
<!--
  HolaRuta Sticker · Hostel · Edition „WEROAD"
  Automatisch erzeugt von docs/sticker/gen-editions.js – nicht von Hand editieren.
  QR → https://moarci.github.io/holaRuta/?edition=weroad  ·  Akzent aus editions/registry.js
  Druckgröße: 70 × 70 mm · Vinyl matt · abgerundetes Quadrat.
-->
<svg xmlns="http://www.w3.org/2000/svg" width="70mm" height="70mm" viewBox="0 0 700 700">
  <defs>
    <linearGradient id="g" x1="0" y1="0" x2="1" y2="1">
      <stop offset="0" stop-color="#FB5A47"/>
      <stop offset="1" stop-color="#FF8A72"/>
    </linearGradient>
    <clipPath id="card"><rect x="8" y="8" width="684" height="684" rx="48"/></clipPath>
    <style>
      @font-face{font-family:'Bricolage Grotesque';src:url('../../fonts/bricolage-grotesque-600-800-latin.woff2') format('woff2');font-weight:600 800;}
      @font-face{font-family:'Instrument Sans';src:url('../../fonts/instrument-sans-400-700-latin.woff2') format('woff2');font-weight:400 700;}
    </style>
  </defs>
  <rect x="8" y="8" width="684" height="684" rx="48" fill="#FFFDF6" stroke="#2D1B12" stroke-opacity="0.14" stroke-width="3"/>
  <rect x="8" y="8" width="684" height="26" fill="url(#g)" clip-path="url(#card)"/>
  <g transform="translate(56,64) scale(0.125)">
    <rect width="512" height="512" rx="116" fill="url(#g)"/>
    <path d="M256 86 C326 86 382 142 382 212 C382 296 296 360 256 446 C216 360 130 296 130 212 C130 142 186 86 256 86 Z" fill="#FBF3E4"/>
    <text x="256" y="252" font-family="Bricolage Grotesque, Segoe UI, Arial, sans-serif" font-size="118" font-weight="800" fill="#FB5A47" text-anchor="middle">¿?</text>
  </g>
  <text x="136" y="108" font-family="Bricolage Grotesque, Segoe UI, Arial, sans-serif" font-size="50" font-weight="800" letter-spacing="-1"><tspan fill="#2D1B12">Hola</tspan><tspan fill="#FB5A47">Ruta</tspan></text>
  <rect x="138" y="122" width="106" height="34" rx="17" fill="#FB5A47" fill-opacity="0.14"/>
  <text x="191" y="145" font-family="Instrument Sans, Segoe UI, Arial, sans-serif" font-size="20" font-weight="700" fill="#D33A2C" text-anchor="middle" letter-spacing="1">WEROAD</text>
  <text x="56" y="228" font-family="Bricolage Grotesque, Segoe UI, Arial, sans-serif" font-size="58" font-weight="800" fill="#2D1B12" letter-spacing="-1">Survival Spanish</text>
  <text x="56" y="286" font-family="Bricolage Grotesque, Segoe UI, Arial, sans-serif" font-size="58" font-weight="800" fill="#FB5A47" letter-spacing="-1">for your trip.</text>
  <rect x="210" y="300" width="280" height="280" rx="22" fill="#FFFFFF" stroke="#2D1B12" stroke-opacity="0.12" stroke-width="2"/><g transform="translate(237.317,327.317) scale(6.82927)"><path d="M0,0l1,0 0,1 -1,0 0,-1z M1,0l1,0 0,1 -1,0 0,-1z M2,0l1,0 0,1 -1,0 0,-1z M3,0l1,0 0,1 -1,0 0,-1z M4,0l1,0 0,1 -1,0 0,-1z M5,0l1,0 0,1 -1,0 0,-1z M6,0l1,0 0,1 -1,0 0,-1z M9,0l1,0 0,1 -1,0 0,-1z M18,0l1,0 0,1 -1,0 0,-1z M19,0l1,0 0,1 -1,0 0,-1z M20,0l1,0 0,1 -1,0 0,-1z M22,0l1,0 0,1 -1,0 0,-1z M23,0l1,0 0,1 -1,0 0,-1z M26,0l1,0 0,1 -1,0 0,-1z M27,0l1,0 0,1 -1,0 0,-1z M28,0l1,0 0,1 -1,0 0,-1z M29,0l1,0 0,1 -1,0 0,-1z M30,0l1,0 0,1 -1,0 0,-1z M31,0l1,0 0,1 -1,0 0,-1z M32,0l1,0 0,1 -1,0 0,-1z M0,1l1,0 0,1 -1,0 0,-1z M6,1l1,0 0,1 -1,0 0,-1z M9,1l1,0 0,1 -1,0 0,-1z M10,1l1,0 0,1 -1,0 0,-1z M15,1l1,0 0,1 -1,0 0,-1z M17,1l1,0 0,1 -1,0 0,-1z M21,1l1,0 0,1 -1,0 0,-1z M23,1l1,0 0,1 -1,0 0,-1z M24,1l1,0 0,1 -1,0 0,-1z M26,1l1,0 0,1 -1,0 0,-1z M32,1l1,0 0,1 -1,0 0,-1z M0,2l1,0 0,1 -1,0 0,-1z M2,2l1,0 0,1 -1,0 0,-1z M3,2l1,0 0,1 -1,0 0,-1z M4,2l1,0 0,1 -1,0 0,-1z M6,2l1,0 0,1 -1,0 0,-1z M9,2l1,0 0,1 -1,0 0,-1z M11,2l1,0 0,1 -1,0 0,-1z M12,2l1,0 0,1 -1,0 0,-1z M14,2l1,0 0,1 -1,0 0,-1z M16,2l1,0 0,1 -1,0 0,-1z M17,2l1,0 0,1 -1,0 0,-1z M19,2l1,0 0,1 -1,0 0,-1z M24,2l1,0 0,1 -1,0 0,-1z M26,2l1,0 0,1 -1,0 0,-1z M28,2l1,0 0,1 -1,0 0,-1z M29,2l1,0 0,1 -1,0 0,-1z M30,2l1,0 0,1 -1,0 0,-1z M32,2l1,0 0,1 -1,0 0,-1z M0,3l1,0 0,1 -1,0 0,-1z M2,3l1,0 0,1 -1,0 0,-1z M3,3l1,0 0,1 -1,0 0,-1z M4,3l1,0 0,1 -1,0 0,-1z M6,3l1,0 0,1 -1,0 0,-1z M11,3l1,0 0,1 -1,0 0,-1z M12,3l1,0 0,1 -1,0 0,-1z M13,3l1,0 0,1 -1,0 0,-1z M15,3l1,0 0,1 -1,0 0,-1z M17,3l1,0 0,1 -1,0 0,-1z M19,3l1,0 0,1 -1,0 0,-1z M22,3l1,0 0,1 -1,0 0,-1z M23,3l1,0 0,1 -1,0 0,-1z M26,3l1,0 0,1 -1,0 0,-1z M28,3l1,0 0,1 -1,0 0,-1z M29,3l1,0 0,1 -1,0 0,-1z M30,3l1,0 0,1 -1,0 0,-1z M32,3l1,0 0,1 -1,0 0,-1z M0,4l1,0 0,1 -1,0 0,-1z M2,4l1,0 0,1 -1,0 0,-1z M3,4l1,0 0,1 -1,0 0,-1z M4,4l1,0 0,1 -1,0 0,-1z M6,4l1,0 0,1 -1,0 0,-1z M9,4l1,0 0,1 -1,0 0,-1z M10,4l1,0 0,1 -1,0 0,-1z M11,4l1,0 0,1 -1,0 0,-1z M13,4l1,0 0,1 -1,0 0,-1z M16,4l1,0 0,1 -1,0 0,-1z M17,4l1,0 0,1 -1,0 0,-1z M19,4l1,0 0,1 -1,0 0,-1z M21,4l1,0 0,1 -1,0 0,-1z M22,4l1,0 0,1 -1,0 0,-1z M23,4l1,0 0,1 -1,0 0,-1z M26,4l1,0 0,1 -1,0 0,-1z M28,4l1,0 0,1 -1,0 0,-1z M29,4l1,0 0,1 -1,0 0,-1z M30,4l1,0 0,1 -1,0 0,-1z M32,4l1,0 0,1 -1,0 0,-1z M0,5l1,0 0,1 -1,0 0,-1z M6,5l1,0 0,1 -1,0 0,-1z M8,5l1,0 0,1 -1,0 0,-1z M9,5l1,0 0,1 -1,0 0,-1z M11,5l1,0 0,1 -1,0 0,-1z M12,5l1,0 0,1 -1,0 0,-1z M14,5l1,0 0,1 -1,0 0,-1z M17,5l1,0 0,1 -1,0 0,-1z M18,5l1,0 0,1 -1,0 0,-1z M20,5l1,0 0,1 -1,0 0,-1z M21,5l1,0 0,1 -1,0 0,-1z M24,5l1,0 0,1 -1,0 0,-1z M26,5l1,0 0,1 -1,0 0,-1z M32,5l1,0 0,1 -1,0 0,-1z M0,6l1,0 0,1 -1,0 0,-1z M1,6l1,0 0,1 -1,0 0,-1z M2,6l1,0 0,1 -1,0 0,-1z M3,6l1,0 0,1 -1,0 0,-1z M4,6l1,0 0,1 -1,0 0,-1z M5,6l1,0 0,1 -1,0 0,-1z M6,6l1,0 0,1 -1,0 0,-1z M8,6l1,0 0,1 -1,0 0,-1z M10,6l1,0 0,1 -1,0 0,-1z M12,6l1,0 0,1 -1,0 0,-1z M14,6l1,0 0,1 -1,0 0,-1z M16,6l1,0 0,1 -1,0 0,-1z M18,6l1,0 0,1 -1,0 0,-1z M20,6l1,0 0,1 -1,0 0,-1z M22,6l1,0 0,1 -1,0 0,-1z M24,6l1,0 0,1 -1,0 0,-1z M26,6l1,0 0,1 -1,0 0,-1z M27,6l1,0 0,1 -1,0 0,-1z M28,6l1,0 0,1 -1,0 0,-1z M29,6l1,0 0,1 -1,0 0,-1z M30,6l1,0 0,1 -1,0 0,-1z M31,6l1,0 0,1 -1,0 0,-1z M32,6l1,0 0,1 -1,0 0,-1z M9,7l1,0 0,1 -1,0 0,-1z M11,7l1,0 0,1 -1,0 0,-1z M17,7l1,0 0,1 -1,0 0,-1z M19,7l1,0 0,1 -1,0 0,-1z M20,7l1,0 0,1 -1,0 0,-1z M21,7l1,0 0,1 -1,0 0,-1z M24,7l1,0 0,1 -1,0 0,-1z M0,8l1,0 0,1 -1,0 0,-1z M3,8l1,0 0,1 -1,0 0,-1z M5,8l1,0 0,1 -1,0 0,-1z M6,8l1,0 0,1 -1,0 0,-1z M8,8l1,0 0,1 -1,0 0,-1z M11,8l1,0 0,1 -1,0 0,-1z M12,8l1,0 0,1 -1,0 0,-1z M13,8l1,0 0,1 -1,0 0,-1z M14,8l1,0 0,1 -1,0 0,-1z M15,8l1,0 0,1 -1,0 0,-1z M16,8l1,0 0,1 -1,0 0,-1z M19,8l1,0 0,1 -1,0 0,-1z M21,8l1,0 0,1 -1,0 0,-1z M22,8l1,0 0,1 -1,0 0,-1z M23,8l1,0 0,1 -1,0 0,-1z M24,8l1,0 0,1 -1,0 0,-1z M25,8l1,0 0,1 -1,0 0,-1z M27,8l1,0 0,1 -1,0 0,-1z M0,9l1,0 0,1 -1,0 0,-1z M2,9l1,0 0,1 -1,0 0,-1z M5,9l1,0 0,1 -1,0 0,-1z M7,9l1,0 0,1 -1,0 0,-1z M10,9l1,0 0,1 -1,0 0,-1z M11,9l1,0 0,1 -1,0 0,-1z M14,9l1,0 0,1 -1,0 0,-1z M16,9l1,0 0,1 -1,0 0,-1z M20,9l1,0 0,1 -1,0 0,-1z M21,9l1,0 0,1 -1,0 0,-1z M24,9l1,0 0,1 -1,0 0,-1z M25,9l1,0 0,1 -1,0 0,-1z M26,9l1,0 0,1 -1,0 0,-1z M27,9l1,0 0,1 -1,0 0,-1z M31,9l1,0 0,1 -1,0 0,-1z M32,9l1,0 0,1 -1,0 0,-1z M0,10l1,0 0,1 -1,0 0,-1z M1,10l1,0 0,1 -1,0 0,-1z M2,10l1,0 0,1 -1,0 0,-1z M4,10l1,0 0,1 -1,0 0,-1z M6,10l1,0 0,1 -1,0 0,-1z M8,10l1,0 0,1 -1,0 0,-1z M10,10l1,0 0,1 -1,0 0,-1z M12,10l1,0 0,1 -1,0 0,-1z M17,10l1,0 0,1 -1,0 0,-1z M19,10l1,0 0,1 -1,0 0,-1z M21,10l1,0 0,1 -1,0 0,-1z M24,10l1,0 0,1 -1,0 0,-1z M26,10l1,0 0,1 -1,0 0,-1z M27,10l1,0 0,1 -1,0 0,-1z M28,10l1,0 0,1 -1,0 0,-1z M30,10l1,0 0,1 -1,0 0,-1z M31,10l1,0 0,1 -1,0 0,-1z M32,10l1,0 0,1 -1,0 0,-1z M3,11l1,0 0,1 -1,0 0,-1z M4,11l1,0 0,1 -1,0 0,-1z M7,11l1,0 0,1 -1,0 0,-1z M8,11l1,0 0,1 -1,0 0,-1z M10,11l1,0 0,1 -1,0 0,-1z M14,11l1,0 0,1 -1,0 0,-1z M15,11l1,0 0,1 -1,0 0,-1z M16,11l1,0 0,1 -1,0 0,-1z M17,11l1,0 0,1 -1,0 0,-1z M19,11l1,0 0,1 -1,0 0,-1z M21,11l1,0 0,1 -1,0 0,-1z M23,11l1,0 0,1 -1,0 0,-1z M25,11l1,0 0,1 -1,0 0,-1z M26,11l1,0 0,1 -1,0 0,-1z M28,11l1,0 0,1 -1,0 0,-1z M29,11l1,0 0,1 -1,0 0,-1z M32,11l1,0 0,1 -1,0 0,-1z M0,12l1,0 0,1 -1,0 0,-1z M6,12l1,0 0,1 -1,0 0,-1z M7,12l1,0 0,1 -1,0 0,-1z M11,12l1,0 0,1 -1,0 0,-1z M12,12l1,0 0,1 -1,0 0,-1z M15,12l1,0 0,1 -1,0 0,-1z M21,12l1,0 0,1 -1,0 0,-1z M25,12l1,0 0,1 -1,0 0,-1z M26,12l1,0 0,1 -1,0 0,-1z M27,12l1,0 0,1 -1,0 0,-1z M29,12l1,0 0,1 -1,0 0,-1z M32,12l1,0 0,1 -1,0 0,-1z M1,13l1,0 0,1 -1,0 0,-1z M4,13l1,0 0,1 -1,0 0,-1z M5,13l1,0 0,1 -1,0 0,-1z M10,13l1,0 0,1 -1,0 0,-1z M11,13l1,0 0,1 -1,0 0,-1z M13,13l1,0 0,1 -1,0 0,-1z M15,13l1,0 0,1 -1,0 0,-1z M16,13l1,0 0,1 -1,0 0,-1z M22,13l1,0 0,1 -1,0 0,-1z M24,13l1,0 0,1 -1,0 0,-1z M26,13l1,0 0,1 -1,0 0,-1z M28,13l1,0 0,1 -1,0 0,-1z M30,13l1,0 0,1 -1,0 0,-1z M31,13l1,0 0,1 -1,0 0,-1z M32,13l1,0 0,1 -1,0 0,-1z M0,14l1,0 0,1 -1,0 0,-1z M1,14l1,0 0,1 -1,0 0,-1z M2,14l1,0 0,1 -1,0 0,-1z M3,14l1,0 0,1 -1,0 0,-1z M4,14l1,0 0,1 -1,0 0,-1z M5,14l1,0 0,1 -1,0 0,-1z M6,14l1,0 0,1 -1,0 0,-1z M10,14l1,0 0,1 -1,0 0,-1z M11,14l1,0 0,1 -1,0 0,-1z M13,14l1,0 0,1 -1,0 0,-1z M17,14l1,0 0,1 -1,0 0,-1z M18,14l1,0 0,1 -1,0 0,-1z M20,14l1,0 0,1 -1,0 0,-1z M21,14l1,0 0,1 -1,0 0,-1z M23,14l1,0 0,1 -1,0 0,-1z M25,14l1,0 0,1 -1,0 0,-1z M26,14l1,0 0,1 -1,0 0,-1z M27,14l1,0 0,1 -1,0 0,-1z M28,14l1,0 0,1 -1,0 0,-1z M31,14l1,0 0,1 -1,0 0,-1z M0,15l1,0 0,1 -1,0 0,-1z M1,15l1,0 0,1 -1,0 0,-1z M2,15l1,0 0,1 -1,0 0,-1z M4,15l1,0 0,1 -1,0 0,-1z M8,15l1,0 0,1 -1,0 0,-1z M13,15l1,0 0,1 -1,0 0,-1z M14,15l1,0 0,1 -1,0 0,-1z M15,15l1,0 0,1 -1,0 0,-1z M17,15l1,0 0,1 -1,0 0,-1z M18,15l1,0 0,1 -1,0 0,-1z M19,15l1,0 0,1 -1,0 0,-1z M21,15l1,0 0,1 -1,0 0,-1z M23,15l1,0 0,1 -1,0 0,-1z M24,15l1,0 0,1 -1,0 0,-1z M26,15l1,0 0,1 -1,0 0,-1z M27,15l1,0 0,1 -1,0 0,-1z M28,15l1,0 0,1 -1,0 0,-1z M29,15l1,0 0,1 -1,0 0,-1z M31,15l1,0 0,1 -1,0 0,-1z M2,16l1,0 0,1 -1,0 0,-1z M6,16l1,0 0,1 -1,0 0,-1z M8,16l1,0 0,1 -1,0 0,-1z M10,16l1,0 0,1 -1,0 0,-1z M17,16l1,0 0,1 -1,0 0,-1z M19,16l1,0 0,1 -1,0 0,-1z M21,16l1,0 0,1 -1,0 0,-1z M22,16l1,0 0,1 -1,0 0,-1z M23,16l1,0 0,1 -1,0 0,-1z M26,16l1,0 0,1 -1,0 0,-1z M28,16l1,0 0,1 -1,0 0,-1z M29,16l1,0 0,1 -1,0 0,-1z M31,16l1,0 0,1 -1,0 0,-1z M0,17l1,0 0,1 -1,0 0,-1z M1,17l1,0 0,1 -1,0 0,-1z M2,17l1,0 0,1 -1,0 0,-1z M3,17l1,0 0,1 -1,0 0,-1z M7,17l1,0 0,1 -1,0 0,-1z M8,17l1,0 0,1 -1,0 0,-1z M9,17l1,0 0,1 -1,0 0,-1z M11,17l1,0 0,1 -1,0 0,-1z M13,17l1,0 0,1 -1,0 0,-1z M14,17l1,0 0,1 -1,0 0,-1z M16,17l1,0 0,1 -1,0 0,-1z M23,17l1,0 0,1 -1,0 0,-1z M24,17l1,0 0,1 -1,0 0,-1z M25,17l1,0 0,1 -1,0 0,-1z M27,17l1,0 0,1 -1,0 0,-1z M29,17l1,0 0,1 -1,0 0,-1z M31,17l1,0 0,1 -1,0 0,-1z M4,18l1,0 0,1 -1,0 0,-1z M5,18l1,0 0,1 -1,0 0,-1z M6,18l1,0 0,1 -1,0 0,-1z M9,18l1,0 0,1 -1,0 0,-1z M10,18l1,0 0,1 -1,0 0,-1z M12,18l1,0 0,1 -1,0 0,-1z M13,18l1,0 0,1 -1,0 0,-1z M14,18l1,0 0,1 -1,0 0,-1z M18,18l1,0 0,1 -1,0 0,-1z M20,18l1,0 0,1 -1,0 0,-1z M21,18l1,0 0,1 -1,0 0,-1z M30,18l1,0 0,1 -1,0 0,-1z M31,18l1,0 0,1 -1,0 0,-1z M32,18l1,0 0,1 -1,0 0,-1z M0,19l1,0 0,1 -1,0 0,-1z M2,19l1,0 0,1 -1,0 0,-1z M3,19l1,0 0,1 -1,0 0,-1z M4,19l1,0 0,1 -1,0 0,-1z M9,19l1,0 0,1 -1,0 0,-1z M11,19l1,0 0,1 -1,0 0,-1z M13,19l1,0 0,1 -1,0 0,-1z M17,19l1,0 0,1 -1,0 0,-1z M18,19l1,0 0,1 -1,0 0,-1z M21,19l1,0 0,1 -1,0 0,-1z M23,19l1,0 0,1 -1,0 0,-1z M25,19l1,0 0,1 -1,0 0,-1z M27,19l1,0 0,1 -1,0 0,-1z M0,20l1,0 0,1 -1,0 0,-1z M1,20l1,0 0,1 -1,0 0,-1z M6,20l1,0 0,1 -1,0 0,-1z M7,20l1,0 0,1 -1,0 0,-1z M9,20l1,0 0,1 -1,0 0,-1z M15,20l1,0 0,1 -1,0 0,-1z M16,20l1,0 0,1 -1,0 0,-1z M17,20l1,0 0,1 -1,0 0,-1z M18,20l1,0 0,1 -1,0 0,-1z M19,20l1,0 0,1 -1,0 0,-1z M21,20l1,0 0,1 -1,0 0,-1z M23,20l1,0 0,1 -1,0 0,-1z M25,20l1,0 0,1 -1,0 0,-1z M31,20l1,0 0,1 -1,0 0,-1z M2,21l1,0 0,1 -1,0 0,-1z M4,21l1,0 0,1 -1,0 0,-1z M11,21l1,0 0,1 -1,0 0,-1z M12,21l1,0 0,1 -1,0 0,-1z M13,21l1,0 0,1 -1,0 0,-1z M15,21l1,0 0,1 -1,0 0,-1z M16,21l1,0 0,1 -1,0 0,-1z M18,21l1,0 0,1 -1,0 0,-1z M19,21l1,0 0,1 -1,0 0,-1z M20,21l1,0 0,1 -1,0 0,-1z M21,21l1,0 0,1 -1,0 0,-1z M25,21l1,0 0,1 -1,0 0,-1z M26,21l1,0 0,1 -1,0 0,-1z M30,21l1,0 0,1 -1,0 0,-1z M31,21l1,0 0,1 -1,0 0,-1z M32,21l1,0 0,1 -1,0 0,-1z M0,22l1,0 0,1 -1,0 0,-1z M1,22l1,0 0,1 -1,0 0,-1z M4,22l1,0 0,1 -1,0 0,-1z M5,22l1,0 0,1 -1,0 0,-1z M6,22l1,0 0,1 -1,0 0,-1z M7,22l1,0 0,1 -1,0 0,-1z M8,22l1,0 0,1 -1,0 0,-1z M9,22l1,0 0,1 -1,0 0,-1z M12,22l1,0 0,1 -1,0 0,-1z M15,22l1,0 0,1 -1,0 0,-1z M17,22l1,0 0,1 -1,0 0,-1z M20,22l1,0 0,1 -1,0 0,-1z M21,22l1,0 0,1 -1,0 0,-1z M22,22l1,0 0,1 -1,0 0,-1z M24,22l1,0 0,1 -1,0 0,-1z M29,22l1,0 0,1 -1,0 0,-1z M32,22l1,0 0,1 -1,0 0,-1z M1,23l1,0 0,1 -1,0 0,-1z M3,23l1,0 0,1 -1,0 0,-1z M7,23l1,0 0,1 -1,0 0,-1z M8,23l1,0 0,1 -1,0 0,-1z M9,23l1,0 0,1 -1,0 0,-1z M13,23l1,0 0,1 -1,0 0,-1z M16,23l1,0 0,1 -1,0 0,-1z M18,23l1,0 0,1 -1,0 0,-1z M21,23l1,0 0,1 -1,0 0,-1z M22,23l1,0 0,1 -1,0 0,-1z M23,23l1,0 0,1 -1,0 0,-1z M24,23l1,0 0,1 -1,0 0,-1z M26,23l1,0 0,1 -1,0 0,-1z M29,23l1,0 0,1 -1,0 0,-1z M32,23l1,0 0,1 -1,0 0,-1z M0,24l1,0 0,1 -1,0 0,-1z M3,24l1,0 0,1 -1,0 0,-1z M5,24l1,0 0,1 -1,0 0,-1z M6,24l1,0 0,1 -1,0 0,-1z M7,24l1,0 0,1 -1,0 0,-1z M8,24l1,0 0,1 -1,0 0,-1z M9,24l1,0 0,1 -1,0 0,-1z M11,24l1,0 0,1 -1,0 0,-1z M12,24l1,0 0,1 -1,0 0,-1z M15,24l1,0 0,1 -1,0 0,-1z M16,24l1,0 0,1 -1,0 0,-1z M17,24l1,0 0,1 -1,0 0,-1z M18,24l1,0 0,1 -1,0 0,-1z M19,24l1,0 0,1 -1,0 0,-1z M20,24l1,0 0,1 -1,0 0,-1z M21,24l1,0 0,1 -1,0 0,-1z M23,24l1,0 0,1 -1,0 0,-1z M24,24l1,0 0,1 -1,0 0,-1z M25,24l1,0 0,1 -1,0 0,-1z M26,24l1,0 0,1 -1,0 0,-1z M27,24l1,0 0,1 -1,0 0,-1z M28,24l1,0 0,1 -1,0 0,-1z M32,24l1,0 0,1 -1,0 0,-1z M8,25l1,0 0,1 -1,0 0,-1z M9,25l1,0 0,1 -1,0 0,-1z M10,25l1,0 0,1 -1,0 0,-1z M11,25l1,0 0,1 -1,0 0,-1z M12,25l1,0 0,1 -1,0 0,-1z M14,25l1,0 0,1 -1,0 0,-1z M19,25l1,0 0,1 -1,0 0,-1z M20,25l1,0 0,1 -1,0 0,-1z M21,25l1,0 0,1 -1,0 0,-1z M22,25l1,0 0,1 -1,0 0,-1z M23,25l1,0 0,1 -1,0 0,-1z M24,25l1,0 0,1 -1,0 0,-1z M28,25l1,0 0,1 -1,0 0,-1z M29,25l1,0 0,1 -1,0 0,-1z M31,25l1,0 0,1 -1,0 0,-1z M32,25l1,0 0,1 -1,0 0,-1z M0,26l1,0 0,1 -1,0 0,-1z M1,26l1,0 0,1 -1,0 0,-1z M2,26l1,0 0,1 -1,0 0,-1z M3,26l1,0 0,1 -1,0 0,-1z M4,26l1,0 0,1 -1,0 0,-1z M5,26l1,0 0,1 -1,0 0,-1z M6,26l1,0 0,1 -1,0 0,-1z M9,26l1,0 0,1 -1,0 0,-1z M10,26l1,0 0,1 -1,0 0,-1z M11,26l1,0 0,1 -1,0 0,-1z M13,26l1,0 0,1 -1,0 0,-1z M16,26l1,0 0,1 -1,0 0,-1z M22,26l1,0 0,1 -1,0 0,-1z M24,26l1,0 0,1 -1,0 0,-1z M26,26l1,0 0,1 -1,0 0,-1z M28,26l1,0 0,1 -1,0 0,-1z M29,26l1,0 0,1 -1,0 0,-1z M30,26l1,0 0,1 -1,0 0,-1z M31,26l1,0 0,1 -1,0 0,-1z M0,27l1,0 0,1 -1,0 0,-1z M6,27l1,0 0,1 -1,0 0,-1z M8,27l1,0 0,1 -1,0 0,-1z M13,27l1,0 0,1 -1,0 0,-1z M15,27l1,0 0,1 -1,0 0,-1z M19,27l1,0 0,1 -1,0 0,-1z M20,27l1,0 0,1 -1,0 0,-1z M21,27l1,0 0,1 -1,0 0,-1z M22,27l1,0 0,1 -1,0 0,-1z M24,27l1,0 0,1 -1,0 0,-1z M28,27l1,0 0,1 -1,0 0,-1z M0,28l1,0 0,1 -1,0 0,-1z M2,28l1,0 0,1 -1,0 0,-1z M3,28l1,0 0,1 -1,0 0,-1z M4,28l1,0 0,1 -1,0 0,-1z M6,28l1,0 0,1 -1,0 0,-1z M9,28l1,0 0,1 -1,0 0,-1z M10,28l1,0 0,1 -1,0 0,-1z M11,28l1,0 0,1 -1,0 0,-1z M12,28l1,0 0,1 -1,0 0,-1z M15,28l1,0 0,1 -1,0 0,-1z M16,28l1,0 0,1 -1,0 0,-1z M19,28l1,0 0,1 -1,0 0,-1z M20,28l1,0 0,1 -1,0 0,-1z M21,28l1,0 0,1 -1,0 0,-1z M22,28l1,0 0,1 -1,0 0,-1z M24,28l1,0 0,1 -1,0 0,-1z M25,28l1,0 0,1 -1,0 0,-1z M26,28l1,0 0,1 -1,0 0,-1z M27,28l1,0 0,1 -1,0 0,-1z M28,28l1,0 0,1 -1,0 0,-1z M29,28l1,0 0,1 -1,0 0,-1z M32,28l1,0 0,1 -1,0 0,-1z M0,29l1,0 0,1 -1,0 0,-1z M2,29l1,0 0,1 -1,0 0,-1z M3,29l1,0 0,1 -1,0 0,-1z M4,29l1,0 0,1 -1,0 0,-1z M6,29l1,0 0,1 -1,0 0,-1z M8,29l1,0 0,1 -1,0 0,-1z M9,29l1,0 0,1 -1,0 0,-1z M11,29l1,0 0,1 -1,0 0,-1z M13,29l1,0 0,1 -1,0 0,-1z M15,29l1,0 0,1 -1,0 0,-1z M17,29l1,0 0,1 -1,0 0,-1z M19,29l1,0 0,1 -1,0 0,-1z M20,29l1,0 0,1 -1,0 0,-1z M23,29l1,0 0,1 -1,0 0,-1z M24,29l1,0 0,1 -1,0 0,-1z M26,29l1,0 0,1 -1,0 0,-1z M28,29l1,0 0,1 -1,0 0,-1z M29,29l1,0 0,1 -1,0 0,-1z M0,30l1,0 0,1 -1,0 0,-1z M2,30l1,0 0,1 -1,0 0,-1z M3,30l1,0 0,1 -1,0 0,-1z M4,30l1,0 0,1 -1,0 0,-1z M6,30l1,0 0,1 -1,0 0,-1z M9,30l1,0 0,1 -1,0 0,-1z M10,30l1,0 0,1 -1,0 0,-1z M13,30l1,0 0,1 -1,0 0,-1z M17,30l1,0 0,1 -1,0 0,-1z M20,30l1,0 0,1 -1,0 0,-1z M22,30l1,0 0,1 -1,0 0,-1z M23,30l1,0 0,1 -1,0 0,-1z M28,30l1,0 0,1 -1,0 0,-1z M29,30l1,0 0,1 -1,0 0,-1z M30,30l1,0 0,1 -1,0 0,-1z M32,30l1,0 0,1 -1,0 0,-1z M0,31l1,0 0,1 -1,0 0,-1z M6,31l1,0 0,1 -1,0 0,-1z M11,31l1,0 0,1 -1,0 0,-1z M12,31l1,0 0,1 -1,0 0,-1z M13,31l1,0 0,1 -1,0 0,-1z M15,31l1,0 0,1 -1,0 0,-1z M16,31l1,0 0,1 -1,0 0,-1z M17,31l1,0 0,1 -1,0 0,-1z M18,31l1,0 0,1 -1,0 0,-1z M20,31l1,0 0,1 -1,0 0,-1z M21,31l1,0 0,1 -1,0 0,-1z M23,31l1,0 0,1 -1,0 0,-1z M24,31l1,0 0,1 -1,0 0,-1z M25,31l1,0 0,1 -1,0 0,-1z M26,31l1,0 0,1 -1,0 0,-1z M0,32l1,0 0,1 -1,0 0,-1z M1,32l1,0 0,1 -1,0 0,-1z M2,32l1,0 0,1 -1,0 0,-1z M3,32l1,0 0,1 -1,0 0,-1z M4,32l1,0 0,1 -1,0 0,-1z M5,32l1,0 0,1 -1,0 0,-1z M6,32l1,0 0,1 -1,0 0,-1z M8,32l1,0 0,1 -1,0 0,-1z M9,32l1,0 0,1 -1,0 0,-1z M16,32l1,0 0,1 -1,0 0,-1z M20,32l1,0 0,1 -1,0 0,-1z M21,32l1,0 0,1 -1,0 0,-1z M24,32l1,0 0,1 -1,0 0,-1z M25,32l1,0 0,1 -1,0 0,-1z M26,32l1,0 0,1 -1,0 0,-1z M28,32l1,0 0,1 -1,0 0,-1z M29,32l1,0 0,1 -1,0 0,-1z M31,32l1,0 0,1 -1,0 0,-1z " fill="#D33A2C"/></g>
  <text x="350" y="612" font-family="Instrument Sans, Segoe UI, Arial, sans-serif" font-size="22" font-weight="600" fill="#6E5848" text-anchor="middle">moarci.github.io/holaRuta · Spanish for the road</text>
  <rect x="96" y="628" width="508" height="50" rx="25" fill="#3F7355" fill-opacity="0.12"/>
  <path d="M128 653 l8 9 l14 -20" fill="none" stroke="#3F7355" stroke-width="4" stroke-linecap="round" stroke-linejoin="round"/>
  <text x="162" y="662" font-family="Instrument Sans, Segoe UI, Arial, sans-serif" font-size="26" font-weight="700" fill="#3F7355">Offline · ohne Konto · kostenlos</text>
</svg>
