<?xml version="1.0" encoding="utf-8"?>
<!--
  HolaRuta Sticker · Hostel · Edition „WEROAD"
  Automatisch erzeugt von docs/sticker/gen-editions.js – nicht von Hand editieren.
  QR → https://holaruta.com/?edition=weroad  ·  Akzent aus editions/registry.js
  Druckgröße: 70 × 70 mm · Vinyl matt · abgerundetes Quadrat.
-->
<svg xmlns="http://www.w3.org/2000/svg" width="70mm" height="70mm" viewBox="0 0 700 700">
  <defs>
    <linearGradient id="g" x1="0" y1="0" x2="1" y2="1">
      <stop offset="0" stop-color="#FB5A47"/>
      <stop offset="1" stop-color="#FF8A72"/>
    </linearGradient>
    <clipPath id="card"><rect x="8" y="8" width="684" height="684" rx="48"/></clipPath>
    <style>
      @font-face{font-family:'Bricolage Grotesque';src:url('../../fonts/bricolage-grotesque-600-800-latin.woff2') format('woff2');font-weight:600 800;}
      @font-face{font-family:'Instrument Sans';src:url('../../fonts/instrument-sans-400-700-latin.woff2') format('woff2');font-weight:400 700;}
    </style>
  </defs>
  <rect x="8" y="8" width="684" height="684" rx="48" fill="#FFFDF6" stroke="#2D1B12" stroke-opacity="0.14" stroke-width="3"/>
  <rect x="8" y="8" width="684" height="26" fill="url(#g)" clip-path="url(#card)"/>
  <g transform="translate(56,64) scale(0.125)">
    <rect width="512" height="512" rx="116" fill="url(#g)"/>
    <path d="M256 86 C326 86 382 142 382 212 C382 296 296 360 256 446 C216 360 130 296 130 212 C130 142 186 86 256 86 Z" fill="#FBF3E4"/>
    <text x="256" y="252" font-family="Bricolage Grotesque, Segoe UI, Arial, sans-serif" font-size="118" font-weight="800" fill="#FB5A47" text-anchor="middle">¿?</text>
  </g>
  <text x="136" y="108" font-family="Bricolage Grotesque, Segoe UI, Arial, sans-serif" font-size="50" font-weight="800" letter-spacing="-1"><tspan fill="#2D1B12">Hola</tspan><tspan fill="#FB5A47">Ruta</tspan></text>
  <rect x="138" y="122" width="106" height="34" rx="17" fill="#FB5A47" fill-opacity="0.14"/>
  <text x="191" y="145" font-family="Instrument Sans, Segoe UI, Arial, sans-serif" font-size="20" font-weight="700" fill="#D33A2C" text-anchor="middle" letter-spacing="1">WEROAD</text>
  <text x="56" y="228" font-family="Bricolage Grotesque, Segoe UI, Arial, sans-serif" font-size="58" font-weight="800" fill="#2D1B12" letter-spacing="-1">Survival Spanish</text>
  <text x="56" y="286" font-family="Bricolage Grotesque, Segoe UI, Arial, sans-serif" font-size="58" font-weight="800" fill="#FB5A47" letter-spacing="-1">for your trip.</text>
  <rect x="210" y="300" width="280" height="280" rx="22" fill="#FFFFFF" stroke="#2D1B12" stroke-opacity="0.12" stroke-width="2"/><g transform="translate(240.270,330.270) scale(7.56757)"><path d="M0,0l1,0 0,1 -1,0 0,-1z M1,0l1,0 0,1 -1,0 0,-1z M2,0l1,0 0,1 -1,0 0,-1z M3,0l1,0 0,1 -1,0 0,-1z M4,0l1,0 0,1 -1,0 0,-1z M5,0l1,0 0,1 -1,0 0,-1z M6,0l1,0 0,1 -1,0 0,-1z M8,0l1,0 0,1 -1,0 0,-1z M10,0l1,0 0,1 -1,0 0,-1z M11,0l1,0 0,1 -1,0 0,-1z M14,0l1,0 0,1 -1,0 0,-1z M15,0l1,0 0,1 -1,0 0,-1z M16,0l1,0 0,1 -1,0 0,-1z M17,0l1,0 0,1 -1,0 0,-1z M18,0l1,0 0,1 -1,0 0,-1z M22,0l1,0 0,1 -1,0 0,-1z M23,0l1,0 0,1 -1,0 0,-1z M24,0l1,0 0,1 -1,0 0,-1z M25,0l1,0 0,1 -1,0 0,-1z M26,0l1,0 0,1 -1,0 0,-1z M27,0l1,0 0,1 -1,0 0,-1z M28,0l1,0 0,1 -1,0 0,-1z M0,1l1,0 0,1 -1,0 0,-1z M6,1l1,0 0,1 -1,0 0,-1z M8,1l1,0 0,1 -1,0 0,-1z M10,1l1,0 0,1 -1,0 0,-1z M11,1l1,0 0,1 -1,0 0,-1z M12,1l1,0 0,1 -1,0 0,-1z M19,1l1,0 0,1 -1,0 0,-1z M22,1l1,0 0,1 -1,0 0,-1z M28,1l1,0 0,1 -1,0 0,-1z M0,2l1,0 0,1 -1,0 0,-1z M2,2l1,0 0,1 -1,0 0,-1z M3,2l1,0 0,1 -1,0 0,-1z M4,2l1,0 0,1 -1,0 0,-1z M6,2l1,0 0,1 -1,0 0,-1z M8,2l1,0 0,1 -1,0 0,-1z M9,2l1,0 0,1 -1,0 0,-1z M10,2l1,0 0,1 -1,0 0,-1z M12,2l1,0 0,1 -1,0 0,-1z M15,2l1,0 0,1 -1,0 0,-1z M20,2l1,0 0,1 -1,0 0,-1z M22,2l1,0 0,1 -1,0 0,-1z M24,2l1,0 0,1 -1,0 0,-1z M25,2l1,0 0,1 -1,0 0,-1z M26,2l1,0 0,1 -1,0 0,-1z M28,2l1,0 0,1 -1,0 0,-1z M0,3l1,0 0,1 -1,0 0,-1z M2,3l1,0 0,1 -1,0 0,-1z M3,3l1,0 0,1 -1,0 0,-1z M4,3l1,0 0,1 -1,0 0,-1z M6,3l1,0 0,1 -1,0 0,-1z M9,3l1,0 0,1 -1,0 0,-1z M11,3l1,0 0,1 -1,0 0,-1z M12,3l1,0 0,1 -1,0 0,-1z M16,3l1,0 0,1 -1,0 0,-1z M17,3l1,0 0,1 -1,0 0,-1z M19,3l1,0 0,1 -1,0 0,-1z M22,3l1,0 0,1 -1,0 0,-1z M24,3l1,0 0,1 -1,0 0,-1z M25,3l1,0 0,1 -1,0 0,-1z M26,3l1,0 0,1 -1,0 0,-1z M28,3l1,0 0,1 -1,0 0,-1z M0,4l1,0 0,1 -1,0 0,-1z M2,4l1,0 0,1 -1,0 0,-1z M3,4l1,0 0,1 -1,0 0,-1z M4,4l1,0 0,1 -1,0 0,-1z M6,4l1,0 0,1 -1,0 0,-1z M8,4l1,0 0,1 -1,0 0,-1z M9,4l1,0 0,1 -1,0 0,-1z M10,4l1,0 0,1 -1,0 0,-1z M11,4l1,0 0,1 -1,0 0,-1z M12,4l1,0 0,1 -1,0 0,-1z M14,4l1,0 0,1 -1,0 0,-1z M16,4l1,0 0,1 -1,0 0,-1z M17,4l1,0 0,1 -1,0 0,-1z M18,4l1,0 0,1 -1,0 0,-1z M19,4l1,0 0,1 -1,0 0,-1z M20,4l1,0 0,1 -1,0 0,-1z M22,4l1,0 0,1 -1,0 0,-1z M24,4l1,0 0,1 -1,0 0,-1z M25,4l1,0 0,1 -1,0 0,-1z M26,4l1,0 0,1 -1,0 0,-1z M28,4l1,0 0,1 -1,0 0,-1z M0,5l1,0 0,1 -1,0 0,-1z M6,5l1,0 0,1 -1,0 0,-1z M9,5l1,0 0,1 -1,0 0,-1z M12,5l1,0 0,1 -1,0 0,-1z M17,5l1,0 0,1 -1,0 0,-1z M20,5l1,0 0,1 -1,0 0,-1z M22,5l1,0 0,1 -1,0 0,-1z M28,5l1,0 0,1 -1,0 0,-1z M0,6l1,0 0,1 -1,0 0,-1z M1,6l1,0 0,1 -1,0 0,-1z M2,6l1,0 0,1 -1,0 0,-1z M3,6l1,0 0,1 -1,0 0,-1z M4,6l1,0 0,1 -1,0 0,-1z M5,6l1,0 0,1 -1,0 0,-1z M6,6l1,0 0,1 -1,0 0,-1z M8,6l1,0 0,1 -1,0 0,-1z M10,6l1,0 0,1 -1,0 0,-1z M12,6l1,0 0,1 -1,0 0,-1z M14,6l1,0 0,1 -1,0 0,-1z M16,6l1,0 0,1 -1,0 0,-1z M18,6l1,0 0,1 -1,0 0,-1z M20,6l1,0 0,1 -1,0 0,-1z M22,6l1,0 0,1 -1,0 0,-1z M23,6l1,0 0,1 -1,0 0,-1z M24,6l1,0 0,1 -1,0 0,-1z M25,6l1,0 0,1 -1,0 0,-1z M26,6l1,0 0,1 -1,0 0,-1z M27,6l1,0 0,1 -1,0 0,-1z M28,6l1,0 0,1 -1,0 0,-1z M13,7l1,0 0,1 -1,0 0,-1z M18,7l1,0 0,1 -1,0 0,-1z M0,8l1,0 0,1 -1,0 0,-1z M3,8l1,0 0,1 -1,0 0,-1z M4,8l1,0 0,1 -1,0 0,-1z M5,8l1,0 0,1 -1,0 0,-1z M6,8l1,0 0,1 -1,0 0,-1z M7,8l1,0 0,1 -1,0 0,-1z M8,8l1,0 0,1 -1,0 0,-1z M9,8l1,0 0,1 -1,0 0,-1z M10,8l1,0 0,1 -1,0 0,-1z M11,8l1,0 0,1 -1,0 0,-1z M12,8l1,0 0,1 -1,0 0,-1z M13,8l1,0 0,1 -1,0 0,-1z M15,8l1,0 0,1 -1,0 0,-1z M16,8l1,0 0,1 -1,0 0,-1z M17,8l1,0 0,1 -1,0 0,-1z M21,8l1,0 0,1 -1,0 0,-1z M24,8l1,0 0,1 -1,0 0,-1z M26,8l1,0 0,1 -1,0 0,-1z M27,8l1,0 0,1 -1,0 0,-1z M28,8l1,0 0,1 -1,0 0,-1z M0,9l1,0 0,1 -1,0 0,-1z M1,9l1,0 0,1 -1,0 0,-1z M5,9l1,0 0,1 -1,0 0,-1z M8,9l1,0 0,1 -1,0 0,-1z M9,9l1,0 0,1 -1,0 0,-1z M10,9l1,0 0,1 -1,0 0,-1z M11,9l1,0 0,1 -1,0 0,-1z M12,9l1,0 0,1 -1,0 0,-1z M13,9l1,0 0,1 -1,0 0,-1z M15,9l1,0 0,1 -1,0 0,-1z M17,9l1,0 0,1 -1,0 0,-1z M18,9l1,0 0,1 -1,0 0,-1z M19,9l1,0 0,1 -1,0 0,-1z M20,9l1,0 0,1 -1,0 0,-1z M21,9l1,0 0,1 -1,0 0,-1z M23,9l1,0 0,1 -1,0 0,-1z M24,9l1,0 0,1 -1,0 0,-1z M26,9l1,0 0,1 -1,0 0,-1z M27,9l1,0 0,1 -1,0 0,-1z M2,10l1,0 0,1 -1,0 0,-1z M3,10l1,0 0,1 -1,0 0,-1z M5,10l1,0 0,1 -1,0 0,-1z M6,10l1,0 0,1 -1,0 0,-1z M8,10l1,0 0,1 -1,0 0,-1z M13,10l1,0 0,1 -1,0 0,-1z M15,10l1,0 0,1 -1,0 0,-1z M16,10l1,0 0,1 -1,0 0,-1z M17,10l1,0 0,1 -1,0 0,-1z M18,10l1,0 0,1 -1,0 0,-1z M21,10l1,0 0,1 -1,0 0,-1z M24,10l1,0 0,1 -1,0 0,-1z M26,10l1,0 0,1 -1,0 0,-1z M0,11l1,0 0,1 -1,0 0,-1z M1,11l1,0 0,1 -1,0 0,-1z M2,11l1,0 0,1 -1,0 0,-1z M5,11l1,0 0,1 -1,0 0,-1z M7,11l1,0 0,1 -1,0 0,-1z M8,11l1,0 0,1 -1,0 0,-1z M9,11l1,0 0,1 -1,0 0,-1z M10,11l1,0 0,1 -1,0 0,-1z M11,11l1,0 0,1 -1,0 0,-1z M12,11l1,0 0,1 -1,0 0,-1z M13,11l1,0 0,1 -1,0 0,-1z M15,11l1,0 0,1 -1,0 0,-1z M17,11l1,0 0,1 -1,0 0,-1z M20,11l1,0 0,1 -1,0 0,-1z M23,11l1,0 0,1 -1,0 0,-1z M24,11l1,0 0,1 -1,0 0,-1z M25,11l1,0 0,1 -1,0 0,-1z M28,11l1,0 0,1 -1,0 0,-1z M1,12l1,0 0,1 -1,0 0,-1z M5,12l1,0 0,1 -1,0 0,-1z M6,12l1,0 0,1 -1,0 0,-1z M7,12l1,0 0,1 -1,0 0,-1z M8,12l1,0 0,1 -1,0 0,-1z M10,12l1,0 0,1 -1,0 0,-1z M11,12l1,0 0,1 -1,0 0,-1z M13,12l1,0 0,1 -1,0 0,-1z M16,12l1,0 0,1 -1,0 0,-1z M20,12l1,0 0,1 -1,0 0,-1z M22,12l1,0 0,1 -1,0 0,-1z M23,12l1,0 0,1 -1,0 0,-1z M28,12l1,0 0,1 -1,0 0,-1z M0,13l1,0 0,1 -1,0 0,-1z M1,13l1,0 0,1 -1,0 0,-1z M2,13l1,0 0,1 -1,0 0,-1z M8,13l1,0 0,1 -1,0 0,-1z M10,13l1,0 0,1 -1,0 0,-1z M11,13l1,0 0,1 -1,0 0,-1z M12,13l1,0 0,1 -1,0 0,-1z M13,13l1,0 0,1 -1,0 0,-1z M14,13l1,0 0,1 -1,0 0,-1z M15,13l1,0 0,1 -1,0 0,-1z M16,13l1,0 0,1 -1,0 0,-1z M21,13l1,0 0,1 -1,0 0,-1z M22,13l1,0 0,1 -1,0 0,-1z M23,13l1,0 0,1 -1,0 0,-1z M24,13l1,0 0,1 -1,0 0,-1z M25,13l1,0 0,1 -1,0 0,-1z M26,13l1,0 0,1 -1,0 0,-1z M27,13l1,0 0,1 -1,0 0,-1z M28,13l1,0 0,1 -1,0 0,-1z M0,14l1,0 0,1 -1,0 0,-1z M1,14l1,0 0,1 -1,0 0,-1z M2,14l1,0 0,1 -1,0 0,-1z M6,14l1,0 0,1 -1,0 0,-1z M7,14l1,0 0,1 -1,0 0,-1z M9,14l1,0 0,1 -1,0 0,-1z M12,14l1,0 0,1 -1,0 0,-1z M13,14l1,0 0,1 -1,0 0,-1z M15,14l1,0 0,1 -1,0 0,-1z M16,14l1,0 0,1 -1,0 0,-1z M19,14l1,0 0,1 -1,0 0,-1z M20,14l1,0 0,1 -1,0 0,-1z M22,14l1,0 0,1 -1,0 0,-1z M24,14l1,0 0,1 -1,0 0,-1z M26,14l1,0 0,1 -1,0 0,-1z M28,14l1,0 0,1 -1,0 0,-1z M0,15l1,0 0,1 -1,0 0,-1z M1,15l1,0 0,1 -1,0 0,-1z M3,15l1,0 0,1 -1,0 0,-1z M15,15l1,0 0,1 -1,0 0,-1z M16,15l1,0 0,1 -1,0 0,-1z M18,15l1,0 0,1 -1,0 0,-1z M19,15l1,0 0,1 -1,0 0,-1z M21,15l1,0 0,1 -1,0 0,-1z M22,15l1,0 0,1 -1,0 0,-1z M23,15l1,0 0,1 -1,0 0,-1z M26,15l1,0 0,1 -1,0 0,-1z M28,15l1,0 0,1 -1,0 0,-1z M0,16l1,0 0,1 -1,0 0,-1z M3,16l1,0 0,1 -1,0 0,-1z M5,16l1,0 0,1 -1,0 0,-1z M6,16l1,0 0,1 -1,0 0,-1z M8,16l1,0 0,1 -1,0 0,-1z M10,16l1,0 0,1 -1,0 0,-1z M12,16l1,0 0,1 -1,0 0,-1z M14,16l1,0 0,1 -1,0 0,-1z M15,16l1,0 0,1 -1,0 0,-1z M16,16l1,0 0,1 -1,0 0,-1z M19,16l1,0 0,1 -1,0 0,-1z M20,16l1,0 0,1 -1,0 0,-1z M23,16l1,0 0,1 -1,0 0,-1z M25,16l1,0 0,1 -1,0 0,-1z M0,17l1,0 0,1 -1,0 0,-1z M3,17l1,0 0,1 -1,0 0,-1z M4,17l1,0 0,1 -1,0 0,-1z M9,17l1,0 0,1 -1,0 0,-1z M10,17l1,0 0,1 -1,0 0,-1z M12,17l1,0 0,1 -1,0 0,-1z M13,17l1,0 0,1 -1,0 0,-1z M14,17l1,0 0,1 -1,0 0,-1z M15,17l1,0 0,1 -1,0 0,-1z M18,17l1,0 0,1 -1,0 0,-1z M19,17l1,0 0,1 -1,0 0,-1z M20,17l1,0 0,1 -1,0 0,-1z M21,17l1,0 0,1 -1,0 0,-1z M24,17l1,0 0,1 -1,0 0,-1z M26,17l1,0 0,1 -1,0 0,-1z M27,17l1,0 0,1 -1,0 0,-1z M0,18l1,0 0,1 -1,0 0,-1z M1,18l1,0 0,1 -1,0 0,-1z M4,18l1,0 0,1 -1,0 0,-1z M6,18l1,0 0,1 -1,0 0,-1z M7,18l1,0 0,1 -1,0 0,-1z M8,18l1,0 0,1 -1,0 0,-1z M12,18l1,0 0,1 -1,0 0,-1z M15,18l1,0 0,1 -1,0 0,-1z M17,18l1,0 0,1 -1,0 0,-1z M18,18l1,0 0,1 -1,0 0,-1z M19,18l1,0 0,1 -1,0 0,-1z M22,18l1,0 0,1 -1,0 0,-1z M25,18l1,0 0,1 -1,0 0,-1z M28,18l1,0 0,1 -1,0 0,-1z M0,19l1,0 0,1 -1,0 0,-1z M1,19l1,0 0,1 -1,0 0,-1z M7,19l1,0 0,1 -1,0 0,-1z M9,19l1,0 0,1 -1,0 0,-1z M11,19l1,0 0,1 -1,0 0,-1z M14,19l1,0 0,1 -1,0 0,-1z M16,19l1,0 0,1 -1,0 0,-1z M20,19l1,0 0,1 -1,0 0,-1z M23,19l1,0 0,1 -1,0 0,-1z M25,19l1,0 0,1 -1,0 0,-1z M26,19l1,0 0,1 -1,0 0,-1z M0,20l1,0 0,1 -1,0 0,-1z M1,20l1,0 0,1 -1,0 0,-1z M4,20l1,0 0,1 -1,0 0,-1z M6,20l1,0 0,1 -1,0 0,-1z M8,20l1,0 0,1 -1,0 0,-1z M10,20l1,0 0,1 -1,0 0,-1z M12,20l1,0 0,1 -1,0 0,-1z M13,20l1,0 0,1 -1,0 0,-1z M14,20l1,0 0,1 -1,0 0,-1z M15,20l1,0 0,1 -1,0 0,-1z M16,20l1,0 0,1 -1,0 0,-1z M17,20l1,0 0,1 -1,0 0,-1z M19,20l1,0 0,1 -1,0 0,-1z M20,20l1,0 0,1 -1,0 0,-1z M21,20l1,0 0,1 -1,0 0,-1z M22,20l1,0 0,1 -1,0 0,-1z M23,20l1,0 0,1 -1,0 0,-1z M24,20l1,0 0,1 -1,0 0,-1z M25,20l1,0 0,1 -1,0 0,-1z M26,20l1,0 0,1 -1,0 0,-1z M27,20l1,0 0,1 -1,0 0,-1z M8,21l1,0 0,1 -1,0 0,-1z M9,21l1,0 0,1 -1,0 0,-1z M10,21l1,0 0,1 -1,0 0,-1z M12,21l1,0 0,1 -1,0 0,-1z M14,21l1,0 0,1 -1,0 0,-1z M15,21l1,0 0,1 -1,0 0,-1z M17,21l1,0 0,1 -1,0 0,-1z M18,21l1,0 0,1 -1,0 0,-1z M20,21l1,0 0,1 -1,0 0,-1z M24,21l1,0 0,1 -1,0 0,-1z M25,21l1,0 0,1 -1,0 0,-1z M0,22l1,0 0,1 -1,0 0,-1z M1,22l1,0 0,1 -1,0 0,-1z M2,22l1,0 0,1 -1,0 0,-1z M3,22l1,0 0,1 -1,0 0,-1z M4,22l1,0 0,1 -1,0 0,-1z M5,22l1,0 0,1 -1,0 0,-1z M6,22l1,0 0,1 -1,0 0,-1z M8,22l1,0 0,1 -1,0 0,-1z M10,22l1,0 0,1 -1,0 0,-1z M11,22l1,0 0,1 -1,0 0,-1z M14,22l1,0 0,1 -1,0 0,-1z M15,22l1,0 0,1 -1,0 0,-1z M16,22l1,0 0,1 -1,0 0,-1z M19,22l1,0 0,1 -1,0 0,-1z M20,22l1,0 0,1 -1,0 0,-1z M22,22l1,0 0,1 -1,0 0,-1z M24,22l1,0 0,1 -1,0 0,-1z M25,22l1,0 0,1 -1,0 0,-1z M0,23l1,0 0,1 -1,0 0,-1z M6,23l1,0 0,1 -1,0 0,-1z M8,23l1,0 0,1 -1,0 0,-1z M9,23l1,0 0,1 -1,0 0,-1z M14,23l1,0 0,1 -1,0 0,-1z M15,23l1,0 0,1 -1,0 0,-1z M17,23l1,0 0,1 -1,0 0,-1z M19,23l1,0 0,1 -1,0 0,-1z M20,23l1,0 0,1 -1,0 0,-1z M24,23l1,0 0,1 -1,0 0,-1z M28,23l1,0 0,1 -1,0 0,-1z M0,24l1,0 0,1 -1,0 0,-1z M2,24l1,0 0,1 -1,0 0,-1z M3,24l1,0 0,1 -1,0 0,-1z M4,24l1,0 0,1 -1,0 0,-1z M6,24l1,0 0,1 -1,0 0,-1z M8,24l1,0 0,1 -1,0 0,-1z M10,24l1,0 0,1 -1,0 0,-1z M12,24l1,0 0,1 -1,0 0,-1z M13,24l1,0 0,1 -1,0 0,-1z M14,24l1,0 0,1 -1,0 0,-1z M15,24l1,0 0,1 -1,0 0,-1z M19,24l1,0 0,1 -1,0 0,-1z M20,24l1,0 0,1 -1,0 0,-1z M21,24l1,0 0,1 -1,0 0,-1z M22,24l1,0 0,1 -1,0 0,-1z M23,24l1,0 0,1 -1,0 0,-1z M24,24l1,0 0,1 -1,0 0,-1z M25,24l1,0 0,1 -1,0 0,-1z M28,24l1,0 0,1 -1,0 0,-1z M0,25l1,0 0,1 -1,0 0,-1z M2,25l1,0 0,1 -1,0 0,-1z M3,25l1,0 0,1 -1,0 0,-1z M4,25l1,0 0,1 -1,0 0,-1z M6,25l1,0 0,1 -1,0 0,-1z M8,25l1,0 0,1 -1,0 0,-1z M9,25l1,0 0,1 -1,0 0,-1z M11,25l1,0 0,1 -1,0 0,-1z M15,25l1,0 0,1 -1,0 0,-1z M16,25l1,0 0,1 -1,0 0,-1z M17,25l1,0 0,1 -1,0 0,-1z M18,25l1,0 0,1 -1,0 0,-1z M19,25l1,0 0,1 -1,0 0,-1z M21,25l1,0 0,1 -1,0 0,-1z M28,25l1,0 0,1 -1,0 0,-1z M0,26l1,0 0,1 -1,0 0,-1z M2,26l1,0 0,1 -1,0 0,-1z M3,26l1,0 0,1 -1,0 0,-1z M4,26l1,0 0,1 -1,0 0,-1z M6,26l1,0 0,1 -1,0 0,-1z M12,26l1,0 0,1 -1,0 0,-1z M14,26l1,0 0,1 -1,0 0,-1z M15,26l1,0 0,1 -1,0 0,-1z M17,26l1,0 0,1 -1,0 0,-1z M20,26l1,0 0,1 -1,0 0,-1z M21,26l1,0 0,1 -1,0 0,-1z M23,26l1,0 0,1 -1,0 0,-1z M24,26l1,0 0,1 -1,0 0,-1z M26,26l1,0 0,1 -1,0 0,-1z M27,26l1,0 0,1 -1,0 0,-1z M28,26l1,0 0,1 -1,0 0,-1z M0,27l1,0 0,1 -1,0 0,-1z M6,27l1,0 0,1 -1,0 0,-1z M10,27l1,0 0,1 -1,0 0,-1z M11,27l1,0 0,1 -1,0 0,-1z M12,27l1,0 0,1 -1,0 0,-1z M14,27l1,0 0,1 -1,0 0,-1z M18,27l1,0 0,1 -1,0 0,-1z M22,27l1,0 0,1 -1,0 0,-1z M24,27l1,0 0,1 -1,0 0,-1z M25,27l1,0 0,1 -1,0 0,-1z M26,27l1,0 0,1 -1,0 0,-1z M28,27l1,0 0,1 -1,0 0,-1z M0,28l1,0 0,1 -1,0 0,-1z M1,28l1,0 0,1 -1,0 0,-1z M2,28l1,0 0,1 -1,0 0,-1z M3,28l1,0 0,1 -1,0 0,-1z M4,28l1,0 0,1 -1,0 0,-1z M5,28l1,0 0,1 -1,0 0,-1z M6,28l1,0 0,1 -1,0 0,-1z M8,28l1,0 0,1 -1,0 0,-1z M13,28l1,0 0,1 -1,0 0,-1z M16,28l1,0 0,1 -1,0 0,-1z M18,28l1,0 0,1 -1,0 0,-1z M20,28l1,0 0,1 -1,0 0,-1z M23,28l1,0 0,1 -1,0 0,-1z " fill="#D33A2C"/></g>
  <text x="350" y="612" font-family="Instrument Sans, Segoe UI, Arial, sans-serif" font-size="22" font-weight="600" fill="#6E5848" text-anchor="middle">holaruta.com · Spanish for the road</text>
  <rect x="96" y="628" width="508" height="50" rx="25" fill="#3F7355" fill-opacity="0.12"/>
  <path d="M128 653 l8 9 l14 -20" fill="none" stroke="#3F7355" stroke-width="4" stroke-linecap="round" stroke-linejoin="round"/>
  <text x="162" y="662" font-family="Instrument Sans, Segoe UI, Arial, sans-serif" font-size="26" font-weight="700" fill="#3F7355">Offline · ohne Konto · kostenlos</text>
</svg>
