<?xml version="1.0" encoding="utf-8"?>
<!--
  HolaRuta Sticker · Hostel · Edition „ECOS · CARTAGENA"
  Automatisch erzeugt von docs/sticker/gen-editions.js – nicht von Hand editieren.
  QR → https://app.holaruta.com/?edition=ecos  ·  Akzent aus editions/registry.js
  Druckgröße: 70 × 70 mm · Vinyl matt · abgerundetes Quadrat.
-->
<svg xmlns="http://www.w3.org/2000/svg" width="70mm" height="70mm" viewBox="0 0 700 700">
  <defs>
    <linearGradient id="g" x1="0" y1="0" x2="1" y2="1">
      <stop offset="0" stop-color="#1F7A8C"/>
      <stop offset="1" stop-color="#4FA9BA"/>
    </linearGradient>
    <clipPath id="card"><rect x="8" y="8" width="684" height="684" rx="48"/></clipPath>
    <style>
      @font-face{font-family:'Bricolage Grotesque';src:url('../../fonts/bricolage-grotesque-600-800-latin.woff2') format('woff2');font-weight:600 800;}
      @font-face{font-family:'Instrument Sans';src:url('../../fonts/instrument-sans-400-700-latin.woff2') format('woff2');font-weight:400 700;}
    </style>
  </defs>
  <rect x="8" y="8" width="684" height="684" rx="48" fill="#FFFDF6" stroke="#2D1B12" stroke-opacity="0.14" stroke-width="3"/>
  <rect x="8" y="8" width="684" height="26" fill="url(#g)" clip-path="url(#card)"/>
  <g transform="translate(56,64) scale(0.125)">
    <rect width="512" height="512" rx="116" fill="url(#g)"/>
    <path d="M256 86 C326 86 382 142 382 212 C382 296 296 360 256 446 C216 360 130 296 130 212 C130 142 186 86 256 86 Z" fill="#FBF3E4"/>
    <text x="256" y="252" font-family="Bricolage Grotesque, Segoe UI, Arial, sans-serif" font-size="118" font-weight="800" fill="#1F7A8C" text-anchor="middle">¿?</text>
  </g>
  <text x="136" y="108" font-family="Bricolage Grotesque, Segoe UI, Arial, sans-serif" font-size="50" font-weight="800" letter-spacing="-1"><tspan fill="#2D1B12">Hola</tspan><tspan fill="#1F7A8C">Ruta</tspan></text>
  <rect x="138" y="122" width="236" height="34" rx="17" fill="#1F7A8C" fill-opacity="0.14"/>
  <text x="256" y="145" font-family="Instrument Sans, Segoe UI, Arial, sans-serif" font-size="20" font-weight="700" fill="#155C69" text-anchor="middle" letter-spacing="1">ECOS · CARTAGENA</text>
  <text x="56" y="228" font-family="Bricolage Grotesque, Segoe UI, Arial, sans-serif" font-size="58" font-weight="800" fill="#2D1B12" letter-spacing="-1">Survival Spanish</text>
  <text x="56" y="286" font-family="Bricolage Grotesque, Segoe UI, Arial, sans-serif" font-size="58" font-weight="800" fill="#1F7A8C" letter-spacing="-1">for your trip.</text>
  <rect x="210" y="300" width="280" height="280" rx="22" fill="#FFFFFF" stroke="#2D1B12" stroke-opacity="0.12" stroke-width="2"/><g transform="translate(240.270,330.270) scale(7.56757)"><path d="M0,0l1,0 0,1 -1,0 0,-1z M1,0l1,0 0,1 -1,0 0,-1z M2,0l1,0 0,1 -1,0 0,-1z M3,0l1,0 0,1 -1,0 0,-1z M4,0l1,0 0,1 -1,0 0,-1z M5,0l1,0 0,1 -1,0 0,-1z M6,0l1,0 0,1 -1,0 0,-1z M9,0l1,0 0,1 -1,0 0,-1z M10,0l1,0 0,1 -1,0 0,-1z M11,0l1,0 0,1 -1,0 0,-1z M12,0l1,0 0,1 -1,0 0,-1z M14,0l1,0 0,1 -1,0 0,-1z M18,0l1,0 0,1 -1,0 0,-1z M22,0l1,0 0,1 -1,0 0,-1z M23,0l1,0 0,1 -1,0 0,-1z M24,0l1,0 0,1 -1,0 0,-1z M25,0l1,0 0,1 -1,0 0,-1z M26,0l1,0 0,1 -1,0 0,-1z M27,0l1,0 0,1 -1,0 0,-1z M28,0l1,0 0,1 -1,0 0,-1z M0,1l1,0 0,1 -1,0 0,-1z M6,1l1,0 0,1 -1,0 0,-1z M8,1l1,0 0,1 -1,0 0,-1z M9,1l1,0 0,1 -1,0 0,-1z M10,1l1,0 0,1 -1,0 0,-1z M11,1l1,0 0,1 -1,0 0,-1z M13,1l1,0 0,1 -1,0 0,-1z M14,1l1,0 0,1 -1,0 0,-1z M16,1l1,0 0,1 -1,0 0,-1z M17,1l1,0 0,1 -1,0 0,-1z M20,1l1,0 0,1 -1,0 0,-1z M22,1l1,0 0,1 -1,0 0,-1z M28,1l1,0 0,1 -1,0 0,-1z M0,2l1,0 0,1 -1,0 0,-1z M2,2l1,0 0,1 -1,0 0,-1z M3,2l1,0 0,1 -1,0 0,-1z M4,2l1,0 0,1 -1,0 0,-1z M6,2l1,0 0,1 -1,0 0,-1z M8,2l1,0 0,1 -1,0 0,-1z M11,2l1,0 0,1 -1,0 0,-1z M12,2l1,0 0,1 -1,0 0,-1z M14,2l1,0 0,1 -1,0 0,-1z M19,2l1,0 0,1 -1,0 0,-1z M22,2l1,0 0,1 -1,0 0,-1z M24,2l1,0 0,1 -1,0 0,-1z M25,2l1,0 0,1 -1,0 0,-1z M26,2l1,0 0,1 -1,0 0,-1z M28,2l1,0 0,1 -1,0 0,-1z M0,3l1,0 0,1 -1,0 0,-1z M2,3l1,0 0,1 -1,0 0,-1z M3,3l1,0 0,1 -1,0 0,-1z M4,3l1,0 0,1 -1,0 0,-1z M6,3l1,0 0,1 -1,0 0,-1z M8,3l1,0 0,1 -1,0 0,-1z M10,3l1,0 0,1 -1,0 0,-1z M13,3l1,0 0,1 -1,0 0,-1z M16,3l1,0 0,1 -1,0 0,-1z M17,3l1,0 0,1 -1,0 0,-1z M20,3l1,0 0,1 -1,0 0,-1z M22,3l1,0 0,1 -1,0 0,-1z M24,3l1,0 0,1 -1,0 0,-1z M25,3l1,0 0,1 -1,0 0,-1z M26,3l1,0 0,1 -1,0 0,-1z M28,3l1,0 0,1 -1,0 0,-1z M0,4l1,0 0,1 -1,0 0,-1z M2,4l1,0 0,1 -1,0 0,-1z M3,4l1,0 0,1 -1,0 0,-1z M4,4l1,0 0,1 -1,0 0,-1z M6,4l1,0 0,1 -1,0 0,-1z M9,4l1,0 0,1 -1,0 0,-1z M11,4l1,0 0,1 -1,0 0,-1z M14,4l1,0 0,1 -1,0 0,-1z M16,4l1,0 0,1 -1,0 0,-1z M17,4l1,0 0,1 -1,0 0,-1z M18,4l1,0 0,1 -1,0 0,-1z M19,4l1,0 0,1 -1,0 0,-1z M20,4l1,0 0,1 -1,0 0,-1z M22,4l1,0 0,1 -1,0 0,-1z M24,4l1,0 0,1 -1,0 0,-1z M25,4l1,0 0,1 -1,0 0,-1z M26,4l1,0 0,1 -1,0 0,-1z M28,4l1,0 0,1 -1,0 0,-1z M0,5l1,0 0,1 -1,0 0,-1z M6,5l1,0 0,1 -1,0 0,-1z M9,5l1,0 0,1 -1,0 0,-1z M10,5l1,0 0,1 -1,0 0,-1z M13,5l1,0 0,1 -1,0 0,-1z M16,5l1,0 0,1 -1,0 0,-1z M22,5l1,0 0,1 -1,0 0,-1z M28,5l1,0 0,1 -1,0 0,-1z M0,6l1,0 0,1 -1,0 0,-1z M1,6l1,0 0,1 -1,0 0,-1z M2,6l1,0 0,1 -1,0 0,-1z M3,6l1,0 0,1 -1,0 0,-1z M4,6l1,0 0,1 -1,0 0,-1z M5,6l1,0 0,1 -1,0 0,-1z M6,6l1,0 0,1 -1,0 0,-1z M8,6l1,0 0,1 -1,0 0,-1z M10,6l1,0 0,1 -1,0 0,-1z M12,6l1,0 0,1 -1,0 0,-1z M14,6l1,0 0,1 -1,0 0,-1z M16,6l1,0 0,1 -1,0 0,-1z M18,6l1,0 0,1 -1,0 0,-1z M20,6l1,0 0,1 -1,0 0,-1z M22,6l1,0 0,1 -1,0 0,-1z M23,6l1,0 0,1 -1,0 0,-1z M24,6l1,0 0,1 -1,0 0,-1z M25,6l1,0 0,1 -1,0 0,-1z M26,6l1,0 0,1 -1,0 0,-1z M27,6l1,0 0,1 -1,0 0,-1z M28,6l1,0 0,1 -1,0 0,-1z M8,7l1,0 0,1 -1,0 0,-1z M11,7l1,0 0,1 -1,0 0,-1z M14,7l1,0 0,1 -1,0 0,-1z M16,7l1,0 0,1 -1,0 0,-1z M19,7l1,0 0,1 -1,0 0,-1z M20,7l1,0 0,1 -1,0 0,-1z M0,8l1,0 0,1 -1,0 0,-1z M6,8l1,0 0,1 -1,0 0,-1z M8,8l1,0 0,1 -1,0 0,-1z M9,8l1,0 0,1 -1,0 0,-1z M11,8l1,0 0,1 -1,0 0,-1z M12,8l1,0 0,1 -1,0 0,-1z M15,8l1,0 0,1 -1,0 0,-1z M17,8l1,0 0,1 -1,0 0,-1z M18,8l1,0 0,1 -1,0 0,-1z M19,8l1,0 0,1 -1,0 0,-1z M21,8l1,0 0,1 -1,0 0,-1z M22,8l1,0 0,1 -1,0 0,-1z M25,8l1,0 0,1 -1,0 0,-1z M26,8l1,0 0,1 -1,0 0,-1z M27,8l1,0 0,1 -1,0 0,-1z M3,9l1,0 0,1 -1,0 0,-1z M8,9l1,0 0,1 -1,0 0,-1z M9,9l1,0 0,1 -1,0 0,-1z M10,9l1,0 0,1 -1,0 0,-1z M12,9l1,0 0,1 -1,0 0,-1z M13,9l1,0 0,1 -1,0 0,-1z M14,9l1,0 0,1 -1,0 0,-1z M15,9l1,0 0,1 -1,0 0,-1z M17,9l1,0 0,1 -1,0 0,-1z M18,9l1,0 0,1 -1,0 0,-1z M19,9l1,0 0,1 -1,0 0,-1z M20,9l1,0 0,1 -1,0 0,-1z M23,9l1,0 0,1 -1,0 0,-1z M24,9l1,0 0,1 -1,0 0,-1z M26,9l1,0 0,1 -1,0 0,-1z M27,9l1,0 0,1 -1,0 0,-1z M0,10l1,0 0,1 -1,0 0,-1z M1,10l1,0 0,1 -1,0 0,-1z M3,10l1,0 0,1 -1,0 0,-1z M6,10l1,0 0,1 -1,0 0,-1z M12,10l1,0 0,1 -1,0 0,-1z M13,10l1,0 0,1 -1,0 0,-1z M14,10l1,0 0,1 -1,0 0,-1z M15,10l1,0 0,1 -1,0 0,-1z M16,10l1,0 0,1 -1,0 0,-1z M17,10l1,0 0,1 -1,0 0,-1z M20,10l1,0 0,1 -1,0 0,-1z M21,10l1,0 0,1 -1,0 0,-1z M22,10l1,0 0,1 -1,0 0,-1z M4,11l1,0 0,1 -1,0 0,-1z M5,11l1,0 0,1 -1,0 0,-1z M12,11l1,0 0,1 -1,0 0,-1z M13,11l1,0 0,1 -1,0 0,-1z M16,11l1,0 0,1 -1,0 0,-1z M23,11l1,0 0,1 -1,0 0,-1z M25,11l1,0 0,1 -1,0 0,-1z M2,12l1,0 0,1 -1,0 0,-1z M5,12l1,0 0,1 -1,0 0,-1z M6,12l1,0 0,1 -1,0 0,-1z M7,12l1,0 0,1 -1,0 0,-1z M9,12l1,0 0,1 -1,0 0,-1z M11,12l1,0 0,1 -1,0 0,-1z M12,12l1,0 0,1 -1,0 0,-1z M13,12l1,0 0,1 -1,0 0,-1z M18,12l1,0 0,1 -1,0 0,-1z M19,12l1,0 0,1 -1,0 0,-1z M20,12l1,0 0,1 -1,0 0,-1z M22,12l1,0 0,1 -1,0 0,-1z M23,12l1,0 0,1 -1,0 0,-1z M28,12l1,0 0,1 -1,0 0,-1z M0,13l1,0 0,1 -1,0 0,-1z M1,13l1,0 0,1 -1,0 0,-1z M2,13l1,0 0,1 -1,0 0,-1z M7,13l1,0 0,1 -1,0 0,-1z M8,13l1,0 0,1 -1,0 0,-1z M9,13l1,0 0,1 -1,0 0,-1z M12,13l1,0 0,1 -1,0 0,-1z M15,13l1,0 0,1 -1,0 0,-1z M17,13l1,0 0,1 -1,0 0,-1z M19,13l1,0 0,1 -1,0 0,-1z M20,13l1,0 0,1 -1,0 0,-1z M22,13l1,0 0,1 -1,0 0,-1z M24,13l1,0 0,1 -1,0 0,-1z M27,13l1,0 0,1 -1,0 0,-1z M28,13l1,0 0,1 -1,0 0,-1z M0,14l1,0 0,1 -1,0 0,-1z M1,14l1,0 0,1 -1,0 0,-1z M3,14l1,0 0,1 -1,0 0,-1z M4,14l1,0 0,1 -1,0 0,-1z M6,14l1,0 0,1 -1,0 0,-1z M7,14l1,0 0,1 -1,0 0,-1z M9,14l1,0 0,1 -1,0 0,-1z M10,14l1,0 0,1 -1,0 0,-1z M11,14l1,0 0,1 -1,0 0,-1z M15,14l1,0 0,1 -1,0 0,-1z M17,14l1,0 0,1 -1,0 0,-1z M22,14l1,0 0,1 -1,0 0,-1z M24,14l1,0 0,1 -1,0 0,-1z M25,14l1,0 0,1 -1,0 0,-1z M26,14l1,0 0,1 -1,0 0,-1z M0,15l1,0 0,1 -1,0 0,-1z M1,15l1,0 0,1 -1,0 0,-1z M2,15l1,0 0,1 -1,0 0,-1z M5,15l1,0 0,1 -1,0 0,-1z M7,15l1,0 0,1 -1,0 0,-1z M15,15l1,0 0,1 -1,0 0,-1z M21,15l1,0 0,1 -1,0 0,-1z M24,15l1,0 0,1 -1,0 0,-1z M26,15l1,0 0,1 -1,0 0,-1z M28,15l1,0 0,1 -1,0 0,-1z M2,16l1,0 0,1 -1,0 0,-1z M4,16l1,0 0,1 -1,0 0,-1z M5,16l1,0 0,1 -1,0 0,-1z M6,16l1,0 0,1 -1,0 0,-1z M7,16l1,0 0,1 -1,0 0,-1z M12,16l1,0 0,1 -1,0 0,-1z M17,16l1,0 0,1 -1,0 0,-1z M20,16l1,0 0,1 -1,0 0,-1z M23,16l1,0 0,1 -1,0 0,-1z M25,16l1,0 0,1 -1,0 0,-1z M26,16l1,0 0,1 -1,0 0,-1z M0,17l1,0 0,1 -1,0 0,-1z M2,17l1,0 0,1 -1,0 0,-1z M3,17l1,0 0,1 -1,0 0,-1z M9,17l1,0 0,1 -1,0 0,-1z M12,17l1,0 0,1 -1,0 0,-1z M13,17l1,0 0,1 -1,0 0,-1z M14,17l1,0 0,1 -1,0 0,-1z M15,17l1,0 0,1 -1,0 0,-1z M16,17l1,0 0,1 -1,0 0,-1z M18,17l1,0 0,1 -1,0 0,-1z M19,17l1,0 0,1 -1,0 0,-1z M20,17l1,0 0,1 -1,0 0,-1z M22,17l1,0 0,1 -1,0 0,-1z M23,17l1,0 0,1 -1,0 0,-1z M24,17l1,0 0,1 -1,0 0,-1z M26,17l1,0 0,1 -1,0 0,-1z M27,17l1,0 0,1 -1,0 0,-1z M28,17l1,0 0,1 -1,0 0,-1z M0,18l1,0 0,1 -1,0 0,-1z M1,18l1,0 0,1 -1,0 0,-1z M3,18l1,0 0,1 -1,0 0,-1z M5,18l1,0 0,1 -1,0 0,-1z M6,18l1,0 0,1 -1,0 0,-1z M8,18l1,0 0,1 -1,0 0,-1z M9,18l1,0 0,1 -1,0 0,-1z M11,18l1,0 0,1 -1,0 0,-1z M15,18l1,0 0,1 -1,0 0,-1z M17,18l1,0 0,1 -1,0 0,-1z M19,18l1,0 0,1 -1,0 0,-1z M23,18l1,0 0,1 -1,0 0,-1z M24,18l1,0 0,1 -1,0 0,-1z M25,18l1,0 0,1 -1,0 0,-1z M28,18l1,0 0,1 -1,0 0,-1z M0,19l1,0 0,1 -1,0 0,-1z M2,19l1,0 0,1 -1,0 0,-1z M3,19l1,0 0,1 -1,0 0,-1z M4,19l1,0 0,1 -1,0 0,-1z M9,19l1,0 0,1 -1,0 0,-1z M11,19l1,0 0,1 -1,0 0,-1z M13,19l1,0 0,1 -1,0 0,-1z M15,19l1,0 0,1 -1,0 0,-1z M16,19l1,0 0,1 -1,0 0,-1z M20,19l1,0 0,1 -1,0 0,-1z M24,19l1,0 0,1 -1,0 0,-1z M0,20l1,0 0,1 -1,0 0,-1z M3,20l1,0 0,1 -1,0 0,-1z M6,20l1,0 0,1 -1,0 0,-1z M8,20l1,0 0,1 -1,0 0,-1z M10,20l1,0 0,1 -1,0 0,-1z M14,20l1,0 0,1 -1,0 0,-1z M17,20l1,0 0,1 -1,0 0,-1z M20,20l1,0 0,1 -1,0 0,-1z M21,20l1,0 0,1 -1,0 0,-1z M22,20l1,0 0,1 -1,0 0,-1z M23,20l1,0 0,1 -1,0 0,-1z M24,20l1,0 0,1 -1,0 0,-1z M26,20l1,0 0,1 -1,0 0,-1z M27,20l1,0 0,1 -1,0 0,-1z M28,20l1,0 0,1 -1,0 0,-1z M8,21l1,0 0,1 -1,0 0,-1z M9,21l1,0 0,1 -1,0 0,-1z M12,21l1,0 0,1 -1,0 0,-1z M14,21l1,0 0,1 -1,0 0,-1z M15,21l1,0 0,1 -1,0 0,-1z M18,21l1,0 0,1 -1,0 0,-1z M19,21l1,0 0,1 -1,0 0,-1z M20,21l1,0 0,1 -1,0 0,-1z M24,21l1,0 0,1 -1,0 0,-1z M25,21l1,0 0,1 -1,0 0,-1z M0,22l1,0 0,1 -1,0 0,-1z M1,22l1,0 0,1 -1,0 0,-1z M2,22l1,0 0,1 -1,0 0,-1z M3,22l1,0 0,1 -1,0 0,-1z M4,22l1,0 0,1 -1,0 0,-1z M5,22l1,0 0,1 -1,0 0,-1z M6,22l1,0 0,1 -1,0 0,-1z M9,22l1,0 0,1 -1,0 0,-1z M11,22l1,0 0,1 -1,0 0,-1z M12,22l1,0 0,1 -1,0 0,-1z M15,22l1,0 0,1 -1,0 0,-1z M16,22l1,0 0,1 -1,0 0,-1z M19,22l1,0 0,1 -1,0 0,-1z M20,22l1,0 0,1 -1,0 0,-1z M22,22l1,0 0,1 -1,0 0,-1z M24,22l1,0 0,1 -1,0 0,-1z M25,22l1,0 0,1 -1,0 0,-1z M26,22l1,0 0,1 -1,0 0,-1z M0,23l1,0 0,1 -1,0 0,-1z M6,23l1,0 0,1 -1,0 0,-1z M9,23l1,0 0,1 -1,0 0,-1z M14,23l1,0 0,1 -1,0 0,-1z M18,23l1,0 0,1 -1,0 0,-1z M19,23l1,0 0,1 -1,0 0,-1z M20,23l1,0 0,1 -1,0 0,-1z M24,23l1,0 0,1 -1,0 0,-1z M28,23l1,0 0,1 -1,0 0,-1z M0,24l1,0 0,1 -1,0 0,-1z M2,24l1,0 0,1 -1,0 0,-1z M3,24l1,0 0,1 -1,0 0,-1z M4,24l1,0 0,1 -1,0 0,-1z M6,24l1,0 0,1 -1,0 0,-1z M9,24l1,0 0,1 -1,0 0,-1z M10,24l1,0 0,1 -1,0 0,-1z M11,24l1,0 0,1 -1,0 0,-1z M13,24l1,0 0,1 -1,0 0,-1z M14,24l1,0 0,1 -1,0 0,-1z M16,24l1,0 0,1 -1,0 0,-1z M19,24l1,0 0,1 -1,0 0,-1z M20,24l1,0 0,1 -1,0 0,-1z M21,24l1,0 0,1 -1,0 0,-1z M22,24l1,0 0,1 -1,0 0,-1z M23,24l1,0 0,1 -1,0 0,-1z M24,24l1,0 0,1 -1,0 0,-1z M25,24l1,0 0,1 -1,0 0,-1z M28,24l1,0 0,1 -1,0 0,-1z M0,25l1,0 0,1 -1,0 0,-1z M2,25l1,0 0,1 -1,0 0,-1z M3,25l1,0 0,1 -1,0 0,-1z M4,25l1,0 0,1 -1,0 0,-1z M6,25l1,0 0,1 -1,0 0,-1z M9,25l1,0 0,1 -1,0 0,-1z M11,25l1,0 0,1 -1,0 0,-1z M14,25l1,0 0,1 -1,0 0,-1z M15,25l1,0 0,1 -1,0 0,-1z M16,25l1,0 0,1 -1,0 0,-1z M17,25l1,0 0,1 -1,0 0,-1z M18,25l1,0 0,1 -1,0 0,-1z M20,25l1,0 0,1 -1,0 0,-1z M21,25l1,0 0,1 -1,0 0,-1z M23,25l1,0 0,1 -1,0 0,-1z M25,25l1,0 0,1 -1,0 0,-1z M26,25l1,0 0,1 -1,0 0,-1z M28,25l1,0 0,1 -1,0 0,-1z M0,26l1,0 0,1 -1,0 0,-1z M2,26l1,0 0,1 -1,0 0,-1z M3,26l1,0 0,1 -1,0 0,-1z M4,26l1,0 0,1 -1,0 0,-1z M6,26l1,0 0,1 -1,0 0,-1z M12,26l1,0 0,1 -1,0 0,-1z M14,26l1,0 0,1 -1,0 0,-1z M15,26l1,0 0,1 -1,0 0,-1z M18,26l1,0 0,1 -1,0 0,-1z M21,26l1,0 0,1 -1,0 0,-1z M22,26l1,0 0,1 -1,0 0,-1z M23,26l1,0 0,1 -1,0 0,-1z M24,26l1,0 0,1 -1,0 0,-1z M25,26l1,0 0,1 -1,0 0,-1z M26,26l1,0 0,1 -1,0 0,-1z M27,26l1,0 0,1 -1,0 0,-1z M0,27l1,0 0,1 -1,0 0,-1z M6,27l1,0 0,1 -1,0 0,-1z M9,27l1,0 0,1 -1,0 0,-1z M10,27l1,0 0,1 -1,0 0,-1z M11,27l1,0 0,1 -1,0 0,-1z M14,27l1,0 0,1 -1,0 0,-1z M19,27l1,0 0,1 -1,0 0,-1z M22,27l1,0 0,1 -1,0 0,-1z M23,27l1,0 0,1 -1,0 0,-1z M24,27l1,0 0,1 -1,0 0,-1z M25,27l1,0 0,1 -1,0 0,-1z M26,27l1,0 0,1 -1,0 0,-1z M28,27l1,0 0,1 -1,0 0,-1z M0,28l1,0 0,1 -1,0 0,-1z M1,28l1,0 0,1 -1,0 0,-1z M2,28l1,0 0,1 -1,0 0,-1z M3,28l1,0 0,1 -1,0 0,-1z M4,28l1,0 0,1 -1,0 0,-1z M5,28l1,0 0,1 -1,0 0,-1z M6,28l1,0 0,1 -1,0 0,-1z M8,28l1,0 0,1 -1,0 0,-1z M9,28l1,0 0,1 -1,0 0,-1z M11,28l1,0 0,1 -1,0 0,-1z M13,28l1,0 0,1 -1,0 0,-1z M14,28l1,0 0,1 -1,0 0,-1z M15,28l1,0 0,1 -1,0 0,-1z M16,28l1,0 0,1 -1,0 0,-1z M17,28l1,0 0,1 -1,0 0,-1z M19,28l1,0 0,1 -1,0 0,-1z M24,28l1,0 0,1 -1,0 0,-1z M26,28l1,0 0,1 -1,0 0,-1z " fill="#155C69"/></g>
  <text x="350" y="612" font-family="Instrument Sans, Segoe UI, Arial, sans-serif" font-size="22" font-weight="600" fill="#6E5848" text-anchor="middle">holaruta.com · Español para tu viaje</text>
  <rect x="96" y="628" width="508" height="50" rx="25" fill="#3F7355" fill-opacity="0.12"/>
  <path d="M128 653 l8 9 l14 -20" fill="none" stroke="#3F7355" stroke-width="4" stroke-linecap="round" stroke-linejoin="round"/>
  <text x="162" y="662" font-family="Instrument Sans, Segoe UI, Arial, sans-serif" font-size="26" font-weight="700" fill="#3F7355">Offline · ohne Konto · kostenlos</text>
</svg>
