<?xml version="1.0" encoding="utf-8"?>
<!--
  HolaRuta Sticker · Stadt · „¿Perdido?" (rund)
  Druckgröße: Ø 60 mm · wetterfestes Vinyl (Outdoor), runder Schnitt.
  QR → moarci.github.io/holaRuta (Pfaddaten aus docs/anleitungen/qr-holaruta.svg).
-->
<svg xmlns="http://www.w3.org/2000/svg" width="60mm" height="60mm" viewBox="0 0 600 600">
  <defs>
    <style>
      @font-face{font-family:'Bricolage Grotesque';src:url('../../fonts/bricolage-grotesque-600-800-latin.woff2') format('woff2');font-weight:600 800;}
      @font-face{font-family:'Instrument Sans';src:url('../../fonts/instrument-sans-400-700-latin.woff2') format('woff2');font-weight:400 700;}
    </style>
  </defs>
  <circle cx="300" cy="300" r="294" fill="#241510"/>
  <circle cx="300" cy="300" r="285" fill="none" stroke="#E9A23B" stroke-width="6" stroke-opacity="0.85"/>
  <!-- Pin (Form aus icon.svg) -->
  <g transform="translate(228,45) scale(0.28)">
    <path d="M256 86 C326 86 382 142 382 212 C382 296 296 360 256 446 C216 360 130 296 130 212 C130 142 186 86 256 86 Z" fill="#FBF3E4"/>
    <text x="256" y="252" font-family="Bricolage Grotesque, Segoe UI, Arial, sans-serif"
          font-size="118" font-weight="800" fill="#241510" text-anchor="middle">¿?</text>
  </g>
  <text x="300" y="252" font-family="Bricolage Grotesque, Segoe UI, Arial, sans-serif"
        font-size="76" font-weight="800" fill="#FBF3E4" text-anchor="middle">¿Perdido?</text>
  <text x="300" y="296" font-family="Instrument Sans, Segoe UI, Arial, sans-serif"
        font-size="27" font-weight="600" fill="#F0996B" text-anchor="middle">Reise-Spanisch · offline · gratis</text>
  <rect x="205" y="320" width="190" height="190" rx="16" fill="#FFFFFF"/>
  <g transform="translate(215,330) scale(5.1515)">
    <path fill="#fff" d="M0 0h33v33h-33z"/><path class="qrline" stroke="#241510" d="M2 2.5h7m1 0h2m1 0h5m2 0h1m3 0h7m-29 1h1m5 0h1m1 0h2m2 0h4m2 0h3m1 0h1m5 0h1m-29 1h1m1 0h3m1 0h1m1 0h1m2 0h1m1 0h2m5 0h1m1 0h1m1 0h3m1 0h1m-29 1h1m1 0h3m1 0h1m2 0h4m1 0h4m1 0h2m1 0h1m1 0h3m1 0h1m-29 1h1m1 0h3m1 0h1m1 0h3m1 0h2m1 0h1m2 0h3m1 0h1m1 0h3m1 0h1m-29 1h1m5 0h1m2 0h1m1 0h4m1 0h1m5 0h1m5 0h1m-29 1h7m1 0h1m1 0h1m1 0h1m1 0h1m1 0h1m1 0h1m1 0h1m1 0h7m-20 1h3m2 0h1m5 0h1m-21 1h1m2 0h6m1 0h2m1 0h7m1 0h1m2 0h1m1 0h3m-29 1h1m1 0h1m1 0h2m1 0h3m1 0h1m2 0h1m1 0h4m3 0h2m1 0h2m-28 1h3m2 0h2m1 0h3m1 0h1m1 0h3m4 0h1m1 0h1m2 0h1m-27 1h1m3 0h2m8 0h2m1 0h1m2 0h2m1 0h3m2 0h1m-28 1h3m2 0h1m1 0h7m1 0h1m2 0h1m2 0h1m5 0h1m-28 1h1m9 0h1m3 0h1m1 0h2m3 0h7m-28 1h2m2 0h3m1 0h2m1 0h1m1 0h2m2 0h2m1 0h1m1 0h2m1 0h1m1 0h1m-27 1h4m1 0h1m5 0h2m1 0h1m1 0h1m1 0h3m1 0h1m1 0h1m1 0h1m-29 1h1m3 0h6m1 0h1m3 0h1m3 0h3m1 0h1m1 0h1m-26 1h3m6 0h2m1 0h1m2 0h1m2 0h3m3 0h1m1 0h2m-28 1h3m1 0h1m1 0h1m1 0h1m3 0h5m2 0h2m4 0h1m2 0h1m-29 1h2m1 0h1m3 0h2m4 0h1m2 0h1m2 0h1m2 0h2m1 0h2m-27 1h5m1 0h1m3 0h2m1 0h1m1 0h1m1 0h1m1 0h9m-20 1h2m1 0h1m1 0h1m1 0h1m1 0h4m3 0h2m-26 1h7m1 0h1m1 0h2m1 0h1m1 0h3m1 0h2m1 0h1m1 0h2m-26 1h1m5 0h1m1 0h1m1 0h1m1 0h2m3 0h4m3 0h1m-25 1h1m1 0h3m1 0h1m1 0h2m1 0h3m1 0h1m3 0h7m1 0h2m-29 1h1m1 0h3m1 0h1m1 0h1m1 0h1m3 0h3m1 0h1m1 0h2m6 0h1m-29 1h1m1 0h3m1 0h1m4 0h1m1 0h1m1 0h2m1 0h4m1 0h2m1 0h3m-29 1h1m5 0h1m2 0h1m3 0h1m1 0h2m4 0h6m1 0h1m-29 1h7m1 0h1m1 0h3m2 0h3m1 0h2m1 0h1"/>
  </g>
  <text x="300" y="548" font-family="Instrument Sans, Segoe UI, Arial, sans-serif"
        font-size="21" font-weight="700" fill="#E9A23B" text-anchor="middle">moarci.github.io/holaRuta</text>
</svg>
