<svg xmlns="http://www.w3.org/2000/svg" width="1080" height="1080" viewBox="0 0 1080 1080">
  <defs>
  <linearGradient id="bg" x1="0" y1="0" x2="0.5" y2="1"><stop offset="0" stop-color="#2E1B12"/><stop offset="1" stop-color="#1B0F0A"/></linearGradient>
  <linearGradient id="stripe" x1="0" y1="0" x2="1" y2="0"><stop offset="0" stop-color="#C2502E"/><stop offset="1" stop-color="#E9A23B"/></linearGradient>
  <linearGradient id="cream" x1="0" y1="0" x2="0" y2="1"><stop offset="0" stop-color="#FBF4E8"/><stop offset="1" stop-color="#F7EFE3"/></linearGradient>
  <filter id="soft" x="-20%" y="-20%" width="140%" height="140%"><feDropShadow dx="0" dy="10" stdDeviation="18" flood-color="#000" flood-opacity="0.33"/></filter>
  <filter id="cardsh" x="-30%" y="-30%" width="160%" height="160%"><feDropShadow dx="0" dy="14" stdDeviation="20" flood-color="#1B0F0A" flood-opacity="0.28"/></filter>
  </defs>
  <rect width="1080" height="1080" fill="url(#bg)"/>
  <path d="M-20 250 C 220 180, 360 330, 560 240 S 960 120, 1120 210" fill="none" stroke="#E9A23B" stroke-opacity="0.15" stroke-width="3" stroke-dasharray="2 14" stroke-linecap="round"/>
  <path d="M-20 880 C 240 820, 400 940, 600 850 S 980 720, 1120 800" fill="none" stroke="#E9A23B" stroke-opacity="0.13" stroke-width="3" stroke-dasharray="2 14" stroke-linecap="round"/>
  <circle cx="560" cy="240" r="7" fill="#E9A23B" fill-opacity="0.22"/>
  <circle cx="600" cy="850" r="7" fill="#E9A23B" fill-opacity="0.20"/>
  <g filter="url(#soft)"><rect x="36" y="36" width="1008" height="1008" rx="44" fill="url(#cream)"/></g>
  <rect x="36" y="36" width="1008" height="13" rx="6.5" fill="url(#stripe)"/>
  
  <g transform="translate(474,106) scale(0.2578125)">
    <defs>
      <linearGradient id="icS" x1="0" y1="0" x2="1" y2="1">
        <stop offset="0" stop-color="#C2502E"/><stop offset="1" stop-color="#E9A23B"/>
      </linearGradient>
    </defs>
    <rect width="512" height="512" rx="116" fill="url(#icS)"/>
    <path d="M256 86 C326 86 382 142 382 212 C382 296 296 360 256 446 C216 360 130 296 130 212 C130 142 186 86 256 86 Z" fill="#FBF3E4"/>
    <text x="256" y="252" font-family="Bricolage Grotesque" font-size="118" font-weight="800" fill="#C2502E" text-anchor="middle" dominant-baseline="middle">¿?</text>
  </g>
  <text x="540" y="366" font-family="Bricolage Grotesque" font-weight="800" font-size="120" letter-spacing="-2" text-anchor="middle"><tspan fill="#2D1B12">Hola</tspan><tspan fill="#C2502E">Ruta</tspan></text>
  <text x="540" y="424" font-family="Instrument Sans" font-weight="700" font-size="34" fill="#2D1B12" text-anchor="middle">Reise-Spanisch für echte Situationen</text>
  <g filter="url(#cardsh)"><g transform="rotate(-3 540 620)">
    <rect x="220" y="470" width="640" height="300" rx="30" fill="#FFFDF6" stroke="#C2502E" stroke-opacity="0.16" stroke-width="2"/>
    <rect x="226" y="488" width="8" height="264" rx="4" fill="#C2502E"/>
    <rect x="260" y="508" width="150" height="44" rx="22" fill="#B97C24" fill-opacity="0.14"/>
    <text x="335" y="530" font-family="Instrument Sans" font-weight="700" font-size="20" fill="#B97C24" text-anchor="middle" dominant-baseline="middle" letter-spacing="0.5">Geld &amp; Markt</text>
    <text x="260" y="602" font-family="Instrument Sans" font-weight="600" font-size="27" fill="#6E5A4C">Was kostet das?</text>
    <text x="260" y="670" font-family="Bricolage Grotesque" font-weight="800" font-size="58" fill="#A23E20">¿Cuánto cuesta?</text>
    <text x="260" y="718" font-family="Instrument Sans" font-style="italic" font-weight="400" font-size="25" fill="#6E5848">kuán-to kués-ta</text>
  </g></g>
  <g transform="rotate(-14 830 498)" opacity="0.85">
    <circle cx="830" cy="498" r="56" fill="none" stroke="#C2502E" stroke-width="4" stroke-opacity="0.7"/>
    <circle cx="830" cy="498" r="47" fill="none" stroke="#C2502E" stroke-width="2" stroke-opacity="0.55" stroke-dasharray="2 6"/>
    <text x="830" y="507" font-family="Bricolage Grotesque" font-weight="800" font-size="26" fill="#C2502E" fill-opacity="0.8" text-anchor="middle" letter-spacing="1">¡HOLA!</text>
  </g>
  <g>
    <rect x="162" y="840" width="80" height="52" rx="26" fill="#C2502E" fill-opacity="0.10" stroke="#C2502E" stroke-opacity="0.30" stroke-width="1.5"/>
    <text x="202" y="867" font-family="Instrument Sans" font-weight="700" font-size="24" fill="#A23E20" text-anchor="middle" dominant-baseline="middle">Bus</text>
  </g><g>
    <rect x="258" y="840" width="106" height="52" rx="26" fill="#C2502E" fill-opacity="0.10" stroke="#C2502E" stroke-opacity="0.30" stroke-width="1.5"/>
    <text x="311" y="867" font-family="Instrument Sans" font-weight="700" font-size="24" fill="#A23E20" text-anchor="middle" dominant-baseline="middle">Hotel</text>
  </g><g>
    <rect x="380" y="840" width="106" height="52" rx="26" fill="#C2502E" fill-opacity="0.10" stroke="#C2502E" stroke-opacity="0.30" stroke-width="1.5"/>
    <text x="433" y="867" font-family="Instrument Sans" font-weight="700" font-size="24" fill="#A23E20" text-anchor="middle" dominant-baseline="middle">Essen</text>
  </g><g>
    <rect x="502" y="840" width="93" height="52" rx="26" fill="#C2502E" fill-opacity="0.10" stroke="#C2502E" stroke-opacity="0.30" stroke-width="1.5"/>
    <text x="548.5" y="867" font-family="Instrument Sans" font-weight="700" font-size="24" fill="#A23E20" text-anchor="middle" dominant-baseline="middle">Geld</text>
  </g><g>
    <rect x="611" y="840" width="132" height="52" rx="26" fill="#C2502E" fill-opacity="0.10" stroke="#C2502E" stroke-opacity="0.30" stroke-width="1.5"/>
    <text x="677" y="867" font-family="Instrument Sans" font-weight="700" font-size="24" fill="#A23E20" text-anchor="middle" dominant-baseline="middle">Notfall</text>
  </g><g>
    <rect x="759" y="840" width="159" height="52" rx="26" fill="#C2502E" fill-opacity="0.10" stroke="#C2502E" stroke-opacity="0.30" stroke-width="1.5"/>
    <text x="838.5" y="867" font-family="Instrument Sans" font-weight="700" font-size="24" fill="#A23E20" text-anchor="middle" dominant-baseline="middle">Smalltalk</text>
  </g>
  <rect x="310" y="930" width="460" height="54" rx="27" fill="#3F7355" fill-opacity="0.12"/>
  <path d="M344 958.2 l8.399999999999999 9.600000000000001 l14.879999999999999 -21.6" fill="none" stroke="#3F7355" stroke-width="4.32" stroke-linecap="round" stroke-linejoin="round"/>
  <text x="556" y="959" font-family="Instrument Sans" font-weight="700" font-size="25" fill="#3F7355" text-anchor="middle">Offline · ohne Konto · kostenlos</text>
</svg>