<svg xmlns="http://www.w3.org/2000/svg" width="1200" height="630" viewBox="0 0 1200 630">
  <defs>
  <linearGradient id="bg" x1="0" y1="0" x2="0.5" y2="1"><stop offset="0" stop-color="#265257"/><stop offset="1" stop-color="#123336"/></linearGradient>
  <linearGradient id="stripe" x1="0" y1="0" x2="1" y2="0"><stop offset="0" stop-color="#2F6B70"/><stop offset="1" stop-color="#3E8388"/></linearGradient>
  <linearGradient id="cream" x1="0" y1="0" x2="0" y2="1"><stop offset="0" stop-color="#FBF4E8"/><stop offset="1" stop-color="#F7EFE3"/></linearGradient>
  <filter id="soft" x="-20%" y="-20%" width="140%" height="140%"><feDropShadow dx="0" dy="10" stdDeviation="18" flood-color="#000" flood-opacity="0.33"/></filter>
  <filter id="cardsh" x="-30%" y="-30%" width="160%" height="160%"><feDropShadow dx="0" dy="14" stdDeviation="20" flood-color="#1B0F0A" flood-opacity="0.28"/></filter>
  </defs>
  <rect width="1200" height="630" fill="url(#bg)"/>
  <path d="M-20 540 C 240 470, 380 600, 640 470 S 1080 330, 1240 420" fill="none" stroke="#E9A23B" stroke-opacity="0.16" stroke-width="3" stroke-dasharray="2 14" stroke-linecap="round"/>
  <circle cx="240" cy="487" r="7" fill="#E9A23B" fill-opacity="0.22"/>
  <circle cx="640" cy="470" r="7" fill="#E9A23B" fill-opacity="0.22"/>
  <circle cx="1040" cy="356" r="7" fill="#E9A23B" fill-opacity="0.22"/>
  <g filter="url(#soft)"><rect x="40" y="48" width="1120" height="534" rx="40" fill="url(#cream)"/></g>
  <rect x="40" y="48" width="1120" height="12" rx="6" fill="url(#stripe)"/>
  
  <g transform="translate(96,118) scale(0.203125)">
    <defs>
      <linearGradient id="icL" x1="0" y1="0" x2="1" y2="1">
        <stop offset="0" stop-color="#2F6B70"/><stop offset="1" stop-color="#3E8388"/>
      </linearGradient>
    </defs>
    <rect width="512" height="512" rx="116" fill="url(#icL)"/>
    <path d="M96 150 h320 a40 40 0 0 1 40 40 v140 a40 40 0 0 1 -40 40 h-186 l-64 62 v-62 h-70 a40 40 0 0 1 -40 -40 v-140 a40 40 0 0 1 40 -40 Z" fill="#FBF3E4"/>
    <text x="256" y="258" font-family="Bricolage Grotesque" font-size="150" font-weight="800" fill="#1F4A4E" text-anchor="middle" dominant-baseline="middle">Hi</text>
  </g>
  <text x="96" y="318" font-family="Bricolage Grotesque" font-weight="800" font-size="104" letter-spacing="-2"><tspan fill="#22343A">Hello</tspan><tspan fill="#2F6B70">Abroad</tspan></text>
  <text x="100" y="370" font-family="Instrument Sans" font-weight="700" font-size="31" fill="#22343A">Reiseenglisch für echte Situationen</text>
  <text x="100" y="410" font-family="Instrument Sans" font-weight="400" font-size="24" fill="#5A6E6E">Karteikarten mit Spaced Repetition – lernt mit dir mit.</text>
  <g>
    <rect x="100" y="440" width="159" height="52" rx="26" fill="#2F6B70" fill-opacity="0.10" stroke="#2F6B70" stroke-opacity="0.30" stroke-width="1.5"/>
    <text x="179.5" y="467" font-family="Instrument Sans" font-weight="700" font-size="24" fill="#1F4A4E" text-anchor="middle" dominant-baseline="middle">Flughafen</text>
  </g><g>
    <rect x="273" y="440" width="106" height="52" rx="26" fill="#2F6B70" fill-opacity="0.10" stroke="#2F6B70" stroke-opacity="0.30" stroke-width="1.5"/>
    <text x="326" y="467" font-family="Instrument Sans" font-weight="700" font-size="24" fill="#1F4A4E" text-anchor="middle" dominant-baseline="middle">Hotel</text>
  </g><g>
    <rect x="393" y="440" width="172" height="52" rx="26" fill="#2F6B70" fill-opacity="0.10" stroke="#2F6B70" stroke-opacity="0.30" stroke-width="1.5"/>
    <text x="479" y="467" font-family="Instrument Sans" font-weight="700" font-size="24" fill="#1F4A4E" text-anchor="middle" dominant-baseline="middle">Restaurant</text>
  </g><g>
    <rect x="579" y="440" width="93" height="52" rx="26" fill="#2F6B70" fill-opacity="0.10" stroke="#2F6B70" stroke-opacity="0.30" stroke-width="1.5"/>
    <text x="625.5" y="467" font-family="Instrument Sans" font-weight="700" font-size="24" fill="#1F4A4E" text-anchor="middle" dominant-baseline="middle">Taxi</text>
  </g><g>
    <rect x="686" y="440" width="132" height="52" rx="26" fill="#2F6B70" fill-opacity="0.10" stroke="#2F6B70" stroke-opacity="0.30" stroke-width="1.5"/>
    <text x="752" y="467" font-family="Instrument Sans" font-weight="700" font-size="24" fill="#1F4A4E" text-anchor="middle" dominant-baseline="middle">Notfall</text>
  </g>
  <rect x="100" y="572" width="412" height="48" rx="24" fill="#3F7355" fill-opacity="0.12"/>
  <path d="M124 597.1 l7.699999999999999 8.8 l13.64 -19.8" fill="none" stroke="#3F7355" stroke-width="3.96" stroke-linecap="round" stroke-linejoin="round"/>
  <text x="156" y="603" font-family="Instrument Sans" font-weight="700" font-size="22" fill="#3F7355">Offline · ohne Konto · kostenlos</text>
  <g filter="url(#cardsh)"><g transform="rotate(4 912 290)">
    <rect x="702" y="140" width="420" height="300" rx="30" fill="#FFFDF6" stroke="#2F6B70" stroke-opacity="0.16" stroke-width="2"/>
    <rect x="708" y="158" width="8" height="264" rx="4" fill="#2F6B70"/>
    <rect x="742" y="178" width="130" height="44" rx="22" fill="#B97C24" fill-opacity="0.14"/>
    <text x="807" y="200" font-family="Instrument Sans" font-weight="700" font-size="20" fill="#B97C24" text-anchor="middle" dominant-baseline="middle" letter-spacing="0.5">Einkaufen</text>
    <text x="742" y="272" font-family="Instrument Sans" font-weight="600" font-size="27" fill="#5A6E6E">Was kostet das?</text>
    <text x="742" y="340" font-family="Bricolage Grotesque" font-weight="800" font-size="52" fill="#1F4A4E">How much is it?</text>
    <text x="742" y="388" font-family="Instrument Sans" font-style="italic" font-weight="400" font-size="25" fill="#6E7A78">hau matsch is it</text>
  </g></g>
  <g transform="rotate(-14 1082 408)" opacity="0.85">
    <circle cx="1082" cy="408" r="56" fill="none" stroke="#2F6B70" stroke-width="4" stroke-opacity="0.7"/>
    <circle cx="1082" cy="408" r="47" fill="none" stroke="#2F6B70" stroke-width="2" stroke-opacity="0.55" stroke-dasharray="2 6"/>
    <text x="1082" y="417" font-family="Bricolage Grotesque" font-weight="800" font-size="26" fill="#2F6B70" fill-opacity="0.8" text-anchor="middle" letter-spacing="1">HELLO!</text>
  </g>
</svg>