<svg xmlns="http://www.w3.org/2000/svg" width="1200" height="630" viewBox="0 0 1200 630">
  <defs>
  <linearGradient id="bg" x1="0" y1="0" x2="0.5" y2="1"><stop offset="0" stop-color="#2E1B12"/><stop offset="1" stop-color="#1B0F0A"/></linearGradient>
  <linearGradient id="stripe" x1="0" y1="0" x2="1" y2="0"><stop offset="0" stop-color="#C2502E"/><stop offset="1" stop-color="#E9A23B"/></linearGradient>
  <linearGradient id="cream" x1="0" y1="0" x2="0" y2="1"><stop offset="0" stop-color="#FBF4E8"/><stop offset="1" stop-color="#F7EFE3"/></linearGradient>
  <filter id="soft" x="-20%" y="-20%" width="140%" height="140%"><feDropShadow dx="0" dy="10" stdDeviation="18" flood-color="#000" flood-opacity="0.33"/></filter>
  <filter id="cardsh" x="-30%" y="-30%" width="160%" height="160%"><feDropShadow dx="0" dy="14" stdDeviation="20" flood-color="#1B0F0A" flood-opacity="0.28"/></filter>
  </defs>
  <rect width="1200" height="630" fill="url(#bg)"/>
  <path d="M-20 540 C 240 470, 380 600, 640 470 S 1080 330, 1240 420" fill="none" stroke="#E9A23B" stroke-opacity="0.16" stroke-width="3" stroke-dasharray="2 14" stroke-linecap="round"/>
  <circle cx="240" cy="487" r="7" fill="#E9A23B" fill-opacity="0.22"/>
  <circle cx="640" cy="470" r="7" fill="#E9A23B" fill-opacity="0.22"/>
  <circle cx="1040" cy="356" r="7" fill="#E9A23B" fill-opacity="0.22"/>
  <g filter="url(#soft)"><rect x="40" y="48" width="1120" height="534" rx="40" fill="url(#cream)"/></g>
  <rect x="40" y="48" width="1120" height="12" rx="6" fill="url(#stripe)"/>
  
  <g transform="translate(96,118) scale(0.203125)">
    <defs>
      <linearGradient id="icL" x1="0" y1="0" x2="1" y2="1">
        <stop offset="0" stop-color="#C2502E"/><stop offset="1" stop-color="#E9A23B"/>
      </linearGradient>
    </defs>
    <rect width="512" height="512" rx="116" fill="url(#icL)"/>
    <path d="M256 86 C326 86 382 142 382 212 C382 296 296 360 256 446 C216 360 130 296 130 212 C130 142 186 86 256 86 Z" fill="#FBF3E4"/>
    <text x="256" y="252" font-family="Bricolage Grotesque" font-size="118" font-weight="800" fill="#C2502E" text-anchor="middle" dominant-baseline="middle">¿?</text>
  </g>
  <text x="96" y="318" font-family="Bricolage Grotesque" font-weight="800" font-size="104" letter-spacing="-2"><tspan fill="#2D1B12">Hola</tspan><tspan fill="#C2502E">Ruta</tspan></text>
  <text x="100" y="370" font-family="Instrument Sans" font-weight="700" font-size="31" fill="#2D1B12">Reise-Spanisch für echte Situationen</text>
  <text x="100" y="410" font-family="Instrument Sans" font-weight="400" font-size="24" fill="#6E5A4C">Karteikarten mit Spaced Repetition – lernt mit dir mit.</text>
  <g>
    <rect x="100" y="440" width="80" height="52" rx="26" fill="#C2502E" fill-opacity="0.10" stroke="#C2502E" stroke-opacity="0.30" stroke-width="1.5"/>
    <text x="140" y="467" font-family="Instrument Sans" font-weight="700" font-size="24" fill="#A23E20" text-anchor="middle" dominant-baseline="middle">Bus</text>
  </g><g>
    <rect x="194" y="440" width="106" height="52" rx="26" fill="#C2502E" fill-opacity="0.10" stroke="#C2502E" stroke-opacity="0.30" stroke-width="1.5"/>
    <text x="247" y="467" font-family="Instrument Sans" font-weight="700" font-size="24" fill="#A23E20" text-anchor="middle" dominant-baseline="middle">Hotel</text>
  </g><g>
    <rect x="314" y="440" width="106" height="52" rx="26" fill="#C2502E" fill-opacity="0.10" stroke="#C2502E" stroke-opacity="0.30" stroke-width="1.5"/>
    <text x="367" y="467" font-family="Instrument Sans" font-weight="700" font-size="24" fill="#A23E20" text-anchor="middle" dominant-baseline="middle">Essen</text>
  </g><g>
    <rect x="434" y="440" width="93" height="52" rx="26" fill="#C2502E" fill-opacity="0.10" stroke="#C2502E" stroke-opacity="0.30" stroke-width="1.5"/>
    <text x="480.5" y="467" font-family="Instrument Sans" font-weight="700" font-size="24" fill="#A23E20" text-anchor="middle" dominant-baseline="middle">Geld</text>
  </g><g>
    <rect x="541" y="440" width="132" height="52" rx="26" fill="#C2502E" fill-opacity="0.10" stroke="#C2502E" stroke-opacity="0.30" stroke-width="1.5"/>
    <text x="607" y="467" font-family="Instrument Sans" font-weight="700" font-size="24" fill="#A23E20" text-anchor="middle" dominant-baseline="middle">Notfall</text>
  </g>
  <rect x="100" y="572" width="412" height="48" rx="24" fill="#3F7355" fill-opacity="0.12"/>
  <path d="M124 597.1 l7.699999999999999 8.8 l13.64 -19.8" fill="none" stroke="#3F7355" stroke-width="3.96" stroke-linecap="round" stroke-linejoin="round"/>
  <text x="156" y="603" font-family="Instrument Sans" font-weight="700" font-size="22" fill="#3F7355">Offline · ohne Konto · kostenlos</text>
  <g filter="url(#cardsh)"><g transform="rotate(4 912 290)">
    <rect x="702" y="140" width="420" height="300" rx="30" fill="#FFFDF6" stroke="#C2502E" stroke-opacity="0.16" stroke-width="2"/>
    <rect x="708" y="158" width="8" height="264" rx="4" fill="#C2502E"/>
    <rect x="742" y="178" width="150" height="44" rx="22" fill="#B97C24" fill-opacity="0.14"/>
    <text x="817" y="200" font-family="Instrument Sans" font-weight="700" font-size="20" fill="#B97C24" text-anchor="middle" dominant-baseline="middle" letter-spacing="0.5">Geld &amp; Markt</text>
    <text x="742" y="272" font-family="Instrument Sans" font-weight="600" font-size="27" fill="#6E5A4C">Was kostet das?</text>
    <text x="742" y="340" font-family="Bricolage Grotesque" font-weight="800" font-size="52" fill="#A23E20">¿Cuánto cuesta?</text>
    <text x="742" y="388" font-family="Instrument Sans" font-style="italic" font-weight="400" font-size="25" fill="#6E5848">kuán-to kués-ta</text>
  </g></g>
  <g transform="rotate(-14 1082 408)" opacity="0.85">
    <circle cx="1082" cy="408" r="56" fill="none" stroke="#C2502E" stroke-width="4" stroke-opacity="0.7"/>
    <circle cx="1082" cy="408" r="47" fill="none" stroke="#C2502E" stroke-width="2" stroke-opacity="0.55" stroke-dasharray="2 6"/>
    <text x="1082" y="417" font-family="Bricolage Grotesque" font-weight="800" font-size="26" fill="#C2502E" fill-opacity="0.8" text-anchor="middle" letter-spacing="1">¡HOLA!</text>
  </g>
</svg>