<svg version="1.1" xmlns="http://www.w3.org/2000/svg" viewBox="0 0 258 258"  preserveAspectRatio="xMinYMin meet"><rect width="100%" height="100%" fill="white" cx="0" cy="0"/><path d="M4,4l10,0 0,10 -10,0 0,-10z M14,4l10,0 0,10 -10,0 0,-10z M24,4l10,0 0,10 -10,0 0,-10z M34,4l10,0 0,10 -10,0 0,-10z M44,4l10,0 0,10 -10,0 0,-10z M54,4l10,0 0,10 -10,0 0,-10z M64,4l10,0 0,10 -10,0 0,-10z M94,4l10,0 0,10 -10,0 0,-10z M104,4l10,0 0,10 -10,0 0,-10z M144,4l10,0 0,10 -10,0 0,-10z M154,4l10,0 0,10 -10,0 0,-10z M184,4l10,0 0,10 -10,0 0,-10z M194,4l10,0 0,10 -10,0 0,-10z M204,4l10,0 0,10 -10,0 0,-10z M214,4l10,0 0,10 -10,0 0,-10z M224,4l10,0 0,10 -10,0 0,-10z M234,4l10,0 0,10 -10,0 0,-10z M244,4l10,0 0,10 -10,0 0,-10z M4,14l10,0 0,10 -10,0 0,-10z M64,14l10,0 0,10 -10,0 0,-10z M84,14l10,0 0,10 -10,0 0,-10z M94,14l10,0 0,10 -10,0 0,-10z M154,14l10,0 0,10 -10,0 0,-10z M184,14l10,0 0,10 -10,0 0,-10z M244,14l10,0 0,10 -10,0 0,-10z M4,24l10,0 0,10 -10,0 0,-10z M24,24l10,0 0,10 -10,0 0,-10z M34,24l10,0 0,10 -10,0 0,-10z M44,24l10,0 0,10 -10,0 0,-10z M64,24l10,0 0,10 -10,0 0,-10z M94,24l10,0 0,10 -10,0 0,-10z M124,24l10,0 0,10 -10,0 0,-10z M154,24l10,0 0,10 -10,0 0,-10z M184,24l10,0 0,10 -10,0 0,-10z M204,24l10,0 0,10 -10,0 0,-10z M214,24l10,0 0,10 -10,0 0,-10z M224,24l10,0 0,10 -10,0 0,-10z M244,24l10,0 0,10 -10,0 0,-10z M4,34l10,0 0,10 -10,0 0,-10z M24,34l10,0 0,10 -10,0 0,-10z M34,34l10,0 0,10 -10,0 0,-10z M44,34l10,0 0,10 -10,0 0,-10z M64,34l10,0 0,10 -10,0 0,-10z M104,34l10,0 0,10 -10,0 0,-10z M114,34l10,0 0,10 -10,0 0,-10z M124,34l10,0 0,10 -10,0 0,-10z M144,34l10,0 0,10 -10,0 0,-10z M184,34l10,0 0,10 -10,0 0,-10z M204,34l10,0 0,10 -10,0 0,-10z M214,34l10,0 0,10 -10,0 0,-10z M224,34l10,0 0,10 -10,0 0,-10z M244,34l10,0 0,10 -10,0 0,-10z M4,44l10,0 0,10 -10,0 0,-10z M24,44l10,0 0,10 -10,0 0,-10z M34,44l10,0 0,10 -10,0 0,-10z M44,44l10,0 0,10 -10,0 0,-10z M64,44l10,0 0,10 -10,0 0,-10z M84,44l10,0 0,10 -10,0 0,-10z M94,44l10,0 0,10 -10,0 0,-10z M124,44l10,0 0,10 -10,0 0,-10z M134,44l10,0 0,10 -10,0 0,-10z M144,44l10,0 0,10 -10,0 0,-10z M154,44l10,0 0,10 -10,0 0,-10z M164,44l10,0 0,10 -10,0 0,-10z M184,44l10,0 0,10 -10,0 0,-10z M204,44l10,0 0,10 -10,0 0,-10z M214,44l10,0 0,10 -10,0 0,-10z M224,44l10,0 0,10 -10,0 0,-10z M244,44l10,0 0,10 -10,0 0,-10z M4,54l10,0 0,10 -10,0 0,-10z M64,54l10,0 0,10 -10,0 0,-10z M114,54l10,0 0,10 -10,0 0,-10z M124,54l10,0 0,10 -10,0 0,-10z M144,54l10,0 0,10 -10,0 0,-10z M154,54l10,0 0,10 -10,0 0,-10z M164,54l10,0 0,10 -10,0 0,-10z M184,54l10,0 0,10 -10,0 0,-10z M244,54l10,0 0,10 -10,0 0,-10z M4,64l10,0 0,10 -10,0 0,-10z M14,64l10,0 0,10 -10,0 0,-10z M24,64l10,0 0,10 -10,0 0,-10z M34,64l10,0 0,10 -10,0 0,-10z M44,64l10,0 0,10 -10,0 0,-10z M54,64l10,0 0,10 -10,0 0,-10z M64,64l10,0 0,10 -10,0 0,-10z M84,64l10,0 0,10 -10,0 0,-10z M104,64l10,0 0,10 -10,0 0,-10z M124,64l10,0 0,10 -10,0 0,-10z M144,64l10,0 0,10 -10,0 0,-10z M164,64l10,0 0,10 -10,0 0,-10z M184,64l10,0 0,10 -10,0 0,-10z M194,64l10,0 0,10 -10,0 0,-10z M204,64l10,0 0,10 -10,0 0,-10z M214,64l10,0 0,10 -10,0 0,-10z M224,64l10,0 0,10 -10,0 0,-10z M234,64l10,0 0,10 -10,0 0,-10z M244,64l10,0 0,10 -10,0 0,-10z M104,74l10,0 0,10 -10,0 0,-10z M114,74l10,0 0,10 -10,0 0,-10z M134,74l10,0 0,10 -10,0 0,-10z M144,74l10,0 0,10 -10,0 0,-10z M154,74l10,0 0,10 -10,0 0,-10z M4,84l10,0 0,10 -10,0 0,-10z M24,84l10,0 0,10 -10,0 0,-10z M44,84l10,0 0,10 -10,0 0,-10z M64,84l10,0 0,10 -10,0 0,-10z M94,84l10,0 0,10 -10,0 0,-10z M114,84l10,0 0,10 -10,0 0,-10z M124,84l10,0 0,10 -10,0 0,-10z M134,84l10,0 0,10 -10,0 0,-10z M164,84l10,0 0,10 -10,0 0,-10z M204,84l10,0 0,10 -10,0 0,-10z M234,84l10,0 0,10 -10,0 0,-10z M4,94l10,0 0,10 -10,0 0,-10z M24,94l10,0 0,10 -10,0 0,-10z M34,94l10,0 0,10 -10,0 0,-10z M84,94l10,0 0,10 -10,0 0,-10z M94,94l10,0 0,10 -10,0 0,-10z M104,94l10,0 0,10 -10,0 0,-10z M124,94l10,0 0,10 -10,0 0,-10z M164,94l10,0 0,10 -10,0 0,-10z M174,94l10,0 0,10 -10,0 0,-10z M184,94l10,0 0,10 -10,0 0,-10z M244,94l10,0 0,10 -10,0 0,-10z M24,104l10,0 0,10 -10,0 0,-10z M34,104l10,0 0,10 -10,0 0,-10z M64,104l10,0 0,10 -10,0 0,-10z M74,104l10,0 0,10 -10,0 0,-10z M84,104l10,0 0,10 -10,0 0,-10z M94,104l10,0 0,10 -10,0 0,-10z M124,104l10,0 0,10 -10,0 0,-10z M164,104l10,0 0,10 -10,0 0,-10z M174,104l10,0 0,10 -10,0 0,-10z M204,104l10,0 0,10 -10,0 0,-10z M224,104l10,0 0,10 -10,0 0,-10z M234,104l10,0 0,10 -10,0 0,-10z M244,104l10,0 0,10 -10,0 0,-10z M4,114l10,0 0,10 -10,0 0,-10z M14,114l10,0 0,10 -10,0 0,-10z M24,114l10,0 0,10 -10,0 0,-10z M74,114l10,0 0,10 -10,0 0,-10z M104,114l10,0 0,10 -10,0 0,-10z M114,114l10,0 0,10 -10,0 0,-10z M124,114l10,0 0,10 -10,0 0,-10z M134,114l10,0 0,10 -10,0 0,-10z M144,114l10,0 0,10 -10,0 0,-10z M154,114l10,0 0,10 -10,0 0,-10z M164,114l10,0 0,10 -10,0 0,-10z M184,114l10,0 0,10 -10,0 0,-10z M194,114l10,0 0,10 -10,0 0,-10z M204,114l10,0 0,10 -10,0 0,-10z M234,114l10,0 0,10 -10,0 0,-10z M34,124l10,0 0,10 -10,0 0,-10z M54,124l10,0 0,10 -10,0 0,-10z M64,124l10,0 0,10 -10,0 0,-10z M74,124l10,0 0,10 -10,0 0,-10z M124,124l10,0 0,10 -10,0 0,-10z M134,124l10,0 0,10 -10,0 0,-10z M144,124l10,0 0,10 -10,0 0,-10z M174,124l10,0 0,10 -10,0 0,-10z M184,124l10,0 0,10 -10,0 0,-10z M214,124l10,0 0,10 -10,0 0,-10z M234,124l10,0 0,10 -10,0 0,-10z M244,124l10,0 0,10 -10,0 0,-10z M14,134l10,0 0,10 -10,0 0,-10z M24,134l10,0 0,10 -10,0 0,-10z M74,134l10,0 0,10 -10,0 0,-10z M94,134l10,0 0,10 -10,0 0,-10z M114,134l10,0 0,10 -10,0 0,-10z M124,134l10,0 0,10 -10,0 0,-10z M164,134l10,0 0,10 -10,0 0,-10z M174,134l10,0 0,10 -10,0 0,-10z M184,134l10,0 0,10 -10,0 0,-10z M214,134l10,0 0,10 -10,0 0,-10z M244,134l10,0 0,10 -10,0 0,-10z M4,144l10,0 0,10 -10,0 0,-10z M34,144l10,0 0,10 -10,0 0,-10z M44,144l10,0 0,10 -10,0 0,-10z M64,144l10,0 0,10 -10,0 0,-10z M74,144l10,0 0,10 -10,0 0,-10z M84,144l10,0 0,10 -10,0 0,-10z M94,144l10,0 0,10 -10,0 0,-10z M104,144l10,0 0,10 -10,0 0,-10z M114,144l10,0 0,10 -10,0 0,-10z M124,144l10,0 0,10 -10,0 0,-10z M134,144l10,0 0,10 -10,0 0,-10z M174,144l10,0 0,10 -10,0 0,-10z M194,144l10,0 0,10 -10,0 0,-10z M224,144l10,0 0,10 -10,0 0,-10z M234,144l10,0 0,10 -10,0 0,-10z M244,144l10,0 0,10 -10,0 0,-10z M14,154l10,0 0,10 -10,0 0,-10z M34,154l10,0 0,10 -10,0 0,-10z M44,154l10,0 0,10 -10,0 0,-10z M54,154l10,0 0,10 -10,0 0,-10z M74,154l10,0 0,10 -10,0 0,-10z M104,154l10,0 0,10 -10,0 0,-10z M124,154l10,0 0,10 -10,0 0,-10z M134,154l10,0 0,10 -10,0 0,-10z M144,154l10,0 0,10 -10,0 0,-10z M154,154l10,0 0,10 -10,0 0,-10z M164,154l10,0 0,10 -10,0 0,-10z M174,154l10,0 0,10 -10,0 0,-10z M204,154l10,0 0,10 -10,0 0,-10z M234,154l10,0 0,10 -10,0 0,-10z M4,164l10,0 0,10 -10,0 0,-10z M24,164l10,0 0,10 -10,0 0,-10z M64,164l10,0 0,10 -10,0 0,-10z M74,164l10,0 0,10 -10,0 0,-10z M84,164l10,0 0,10 -10,0 0,-10z M94,164l10,0 0,10 -10,0 0,-10z M104,164l10,0 0,10 -10,0 0,-10z M114,164l10,0 0,10 -10,0 0,-10z M144,164l10,0 0,10 -10,0 0,-10z M164,164l10,0 0,10 -10,0 0,-10z M174,164l10,0 0,10 -10,0 0,-10z M184,164l10,0 0,10 -10,0 0,-10z M194,164l10,0 0,10 -10,0 0,-10z M204,164l10,0 0,10 -10,0 0,-10z M214,164l10,0 0,10 -10,0 0,-10z M84,174l10,0 0,10 -10,0 0,-10z M94,174l10,0 0,10 -10,0 0,-10z M114,174l10,0 0,10 -10,0 0,-10z M164,174l10,0 0,10 -10,0 0,-10z M204,174l10,0 0,10 -10,0 0,-10z M214,174l10,0 0,10 -10,0 0,-10z M234,174l10,0 0,10 -10,0 0,-10z M244,174l10,0 0,10 -10,0 0,-10z M4,184l10,0 0,10 -10,0 0,-10z M14,184l10,0 0,10 -10,0 0,-10z M24,184l10,0 0,10 -10,0 0,-10z M34,184l10,0 0,10 -10,0 0,-10z M44,184l10,0 0,10 -10,0 0,-10z M54,184l10,0 0,10 -10,0 0,-10z M64,184l10,0 0,10 -10,0 0,-10z M94,184l10,0 0,10 -10,0 0,-10z M104,184l10,0 0,10 -10,0 0,-10z M134,184l10,0 0,10 -10,0 0,-10z M154,184l10,0 0,10 -10,0 0,-10z M164,184l10,0 0,10 -10,0 0,-10z M184,184l10,0 0,10 -10,0 0,-10z M204,184l10,0 0,10 -10,0 0,-10z M214,184l10,0 0,10 -10,0 0,-10z M234,184l10,0 0,10 -10,0 0,-10z M244,184l10,0 0,10 -10,0 0,-10z M4,194l10,0 0,10 -10,0 0,-10z M64,194l10,0 0,10 -10,0 0,-10z M114,194l10,0 0,10 -10,0 0,-10z M164,194l10,0 0,10 -10,0 0,-10z M204,194l10,0 0,10 -10,0 0,-10z M214,194l10,0 0,10 -10,0 0,-10z M4,204l10,0 0,10 -10,0 0,-10z M24,204l10,0 0,10 -10,0 0,-10z M34,204l10,0 0,10 -10,0 0,-10z M44,204l10,0 0,10 -10,0 0,-10z M64,204l10,0 0,10 -10,0 0,-10z M84,204l10,0 0,10 -10,0 0,-10z M124,204l10,0 0,10 -10,0 0,-10z M164,204l10,0 0,10 -10,0 0,-10z M174,204l10,0 0,10 -10,0 0,-10z M184,204l10,0 0,10 -10,0 0,-10z M194,204l10,0 0,10 -10,0 0,-10z M204,204l10,0 0,10 -10,0 0,-10z M214,204l10,0 0,10 -10,0 0,-10z M234,204l10,0 0,10 -10,0 0,-10z M244,204l10,0 0,10 -10,0 0,-10z M4,214l10,0 0,10 -10,0 0,-10z M24,214l10,0 0,10 -10,0 0,-10z M34,214l10,0 0,10 -10,0 0,-10z M44,214l10,0 0,10 -10,0 0,-10z M64,214l10,0 0,10 -10,0 0,-10z M104,214l10,0 0,10 -10,0 0,-10z M114,214l10,0 0,10 -10,0 0,-10z M124,214l10,0 0,10 -10,0 0,-10z M134,214l10,0 0,10 -10,0 0,-10z M154,214l10,0 0,10 -10,0 0,-10z M164,214l10,0 0,10 -10,0 0,-10z M194,214l10,0 0,10 -10,0 0,-10z M204,214l10,0 0,10 -10,0 0,-10z M214,214l10,0 0,10 -10,0 0,-10z M224,214l10,0 0,10 -10,0 0,-10z M4,224l10,0 0,10 -10,0 0,-10z M24,224l10,0 0,10 -10,0 0,-10z M34,224l10,0 0,10 -10,0 0,-10z M44,224l10,0 0,10 -10,0 0,-10z M64,224l10,0 0,10 -10,0 0,-10z M84,224l10,0 0,10 -10,0 0,-10z M104,224l10,0 0,10 -10,0 0,-10z M114,224l10,0 0,10 -10,0 0,-10z M124,224l10,0 0,10 -10,0 0,-10z M144,224l10,0 0,10 -10,0 0,-10z M164,224l10,0 0,10 -10,0 0,-10z M204,224l10,0 0,10 -10,0 0,-10z M244,224l10,0 0,10 -10,0 0,-10z M4,234l10,0 0,10 -10,0 0,-10z M64,234l10,0 0,10 -10,0 0,-10z M94,234l10,0 0,10 -10,0 0,-10z M124,234l10,0 0,10 -10,0 0,-10z M134,234l10,0 0,10 -10,0 0,-10z M144,234l10,0 0,10 -10,0 0,-10z M164,234l10,0 0,10 -10,0 0,-10z M174,234l10,0 0,10 -10,0 0,-10z M204,234l10,0 0,10 -10,0 0,-10z M214,234l10,0 0,10 -10,0 0,-10z M234,234l10,0 0,10 -10,0 0,-10z M4,244l10,0 0,10 -10,0 0,-10z M14,244l10,0 0,10 -10,0 0,-10z M24,244l10,0 0,10 -10,0 0,-10z M34,244l10,0 0,10 -10,0 0,-10z M44,244l10,0 0,10 -10,0 0,-10z M54,244l10,0 0,10 -10,0 0,-10z M64,244l10,0 0,10 -10,0 0,-10z M84,244l10,0 0,10 -10,0 0,-10z M94,244l10,0 0,10 -10,0 0,-10z M104,244l10,0 0,10 -10,0 0,-10z M114,244l10,0 0,10 -10,0 0,-10z M144,244l10,0 0,10 -10,0 0,-10z M154,244l10,0 0,10 -10,0 0,-10z M164,244l10,0 0,10 -10,0 0,-10z M174,244l10,0 0,10 -10,0 0,-10z M184,244l10,0 0,10 -10,0 0,-10z M194,244l10,0 0,10 -10,0 0,-10z M234,244l10,0 0,10 -10,0 0,-10z M244,244l10,0 0,10 -10,0 0,-10z " stroke="transparent" fill="black"/></svg>
