<svg version="1.1" xmlns="http://www.w3.org/2000/svg" viewBox="0 0 258 258"  preserveAspectRatio="xMinYMin meet"><rect width="100%" height="100%" fill="white" cx="0" cy="0"/><path d="M4,4l10,0 0,10 -10,0 0,-10z M14,4l10,0 0,10 -10,0 0,-10z M24,4l10,0 0,10 -10,0 0,-10z M34,4l10,0 0,10 -10,0 0,-10z M44,4l10,0 0,10 -10,0 0,-10z M54,4l10,0 0,10 -10,0 0,-10z M64,4l10,0 0,10 -10,0 0,-10z M84,4l10,0 0,10 -10,0 0,-10z M94,4l10,0 0,10 -10,0 0,-10z M134,4l10,0 0,10 -10,0 0,-10z M184,4l10,0 0,10 -10,0 0,-10z M194,4l10,0 0,10 -10,0 0,-10z M204,4l10,0 0,10 -10,0 0,-10z M214,4l10,0 0,10 -10,0 0,-10z M224,4l10,0 0,10 -10,0 0,-10z M234,4l10,0 0,10 -10,0 0,-10z M244,4l10,0 0,10 -10,0 0,-10z M4,14l10,0 0,10 -10,0 0,-10z M64,14l10,0 0,10 -10,0 0,-10z M84,14l10,0 0,10 -10,0 0,-10z M134,14l10,0 0,10 -10,0 0,-10z M184,14l10,0 0,10 -10,0 0,-10z M244,14l10,0 0,10 -10,0 0,-10z M4,24l10,0 0,10 -10,0 0,-10z M24,24l10,0 0,10 -10,0 0,-10z M34,24l10,0 0,10 -10,0 0,-10z M44,24l10,0 0,10 -10,0 0,-10z M64,24l10,0 0,10 -10,0 0,-10z M84,24l10,0 0,10 -10,0 0,-10z M94,24l10,0 0,10 -10,0 0,-10z M104,24l10,0 0,10 -10,0 0,-10z M134,24l10,0 0,10 -10,0 0,-10z M144,24l10,0 0,10 -10,0 0,-10z M164,24l10,0 0,10 -10,0 0,-10z M184,24l10,0 0,10 -10,0 0,-10z M204,24l10,0 0,10 -10,0 0,-10z M214,24l10,0 0,10 -10,0 0,-10z M224,24l10,0 0,10 -10,0 0,-10z M244,24l10,0 0,10 -10,0 0,-10z M4,34l10,0 0,10 -10,0 0,-10z M24,34l10,0 0,10 -10,0 0,-10z M34,34l10,0 0,10 -10,0 0,-10z M44,34l10,0 0,10 -10,0 0,-10z M64,34l10,0 0,10 -10,0 0,-10z M114,34l10,0 0,10 -10,0 0,-10z M134,34l10,0 0,10 -10,0 0,-10z M184,34l10,0 0,10 -10,0 0,-10z M204,34l10,0 0,10 -10,0 0,-10z M214,34l10,0 0,10 -10,0 0,-10z M224,34l10,0 0,10 -10,0 0,-10z M244,34l10,0 0,10 -10,0 0,-10z M4,44l10,0 0,10 -10,0 0,-10z M24,44l10,0 0,10 -10,0 0,-10z M34,44l10,0 0,10 -10,0 0,-10z M44,44l10,0 0,10 -10,0 0,-10z M64,44l10,0 0,10 -10,0 0,-10z M84,44l10,0 0,10 -10,0 0,-10z M94,44l10,0 0,10 -10,0 0,-10z M164,44l10,0 0,10 -10,0 0,-10z M184,44l10,0 0,10 -10,0 0,-10z M204,44l10,0 0,10 -10,0 0,-10z M214,44l10,0 0,10 -10,0 0,-10z M224,44l10,0 0,10 -10,0 0,-10z M244,44l10,0 0,10 -10,0 0,-10z M4,54l10,0 0,10 -10,0 0,-10z M64,54l10,0 0,10 -10,0 0,-10z M94,54l10,0 0,10 -10,0 0,-10z M124,54l10,0 0,10 -10,0 0,-10z M144,54l10,0 0,10 -10,0 0,-10z M184,54l10,0 0,10 -10,0 0,-10z M244,54l10,0 0,10 -10,0 0,-10z M4,64l10,0 0,10 -10,0 0,-10z M14,64l10,0 0,10 -10,0 0,-10z M24,64l10,0 0,10 -10,0 0,-10z M34,64l10,0 0,10 -10,0 0,-10z M44,64l10,0 0,10 -10,0 0,-10z M54,64l10,0 0,10 -10,0 0,-10z M64,64l10,0 0,10 -10,0 0,-10z M84,64l10,0 0,10 -10,0 0,-10z M104,64l10,0 0,10 -10,0 0,-10z M124,64l10,0 0,10 -10,0 0,-10z M144,64l10,0 0,10 -10,0 0,-10z M164,64l10,0 0,10 -10,0 0,-10z M184,64l10,0 0,10 -10,0 0,-10z M194,64l10,0 0,10 -10,0 0,-10z M204,64l10,0 0,10 -10,0 0,-10z M214,64l10,0 0,10 -10,0 0,-10z M224,64l10,0 0,10 -10,0 0,-10z M234,64l10,0 0,10 -10,0 0,-10z M244,64l10,0 0,10 -10,0 0,-10z M134,74l10,0 0,10 -10,0 0,-10z M144,74l10,0 0,10 -10,0 0,-10z M4,84l10,0 0,10 -10,0 0,-10z M34,84l10,0 0,10 -10,0 0,-10z M44,84l10,0 0,10 -10,0 0,-10z M54,84l10,0 0,10 -10,0 0,-10z M64,84l10,0 0,10 -10,0 0,-10z M74,84l10,0 0,10 -10,0 0,-10z M84,84l10,0 0,10 -10,0 0,-10z M94,84l10,0 0,10 -10,0 0,-10z M104,84l10,0 0,10 -10,0 0,-10z M114,84l10,0 0,10 -10,0 0,-10z M124,84l10,0 0,10 -10,0 0,-10z M144,84l10,0 0,10 -10,0 0,-10z M154,84l10,0 0,10 -10,0 0,-10z M164,84l10,0 0,10 -10,0 0,-10z M174,84l10,0 0,10 -10,0 0,-10z M204,84l10,0 0,10 -10,0 0,-10z M224,84l10,0 0,10 -10,0 0,-10z M234,84l10,0 0,10 -10,0 0,-10z M244,84l10,0 0,10 -10,0 0,-10z M4,94l10,0 0,10 -10,0 0,-10z M14,94l10,0 0,10 -10,0 0,-10z M24,94l10,0 0,10 -10,0 0,-10z M94,94l10,0 0,10 -10,0 0,-10z M104,94l10,0 0,10 -10,0 0,-10z M144,94l10,0 0,10 -10,0 0,-10z M154,94l10,0 0,10 -10,0 0,-10z M174,94l10,0 0,10 -10,0 0,-10z M194,94l10,0 0,10 -10,0 0,-10z M204,94l10,0 0,10 -10,0 0,-10z M214,94l10,0 0,10 -10,0 0,-10z M224,94l10,0 0,10 -10,0 0,-10z M234,94l10,0 0,10 -10,0 0,-10z M4,104l10,0 0,10 -10,0 0,-10z M24,104l10,0 0,10 -10,0 0,-10z M64,104l10,0 0,10 -10,0 0,-10z M74,104l10,0 0,10 -10,0 0,-10z M114,104l10,0 0,10 -10,0 0,-10z M144,104l10,0 0,10 -10,0 0,-10z M154,104l10,0 0,10 -10,0 0,-10z M174,104l10,0 0,10 -10,0 0,-10z M184,104l10,0 0,10 -10,0 0,-10z M194,104l10,0 0,10 -10,0 0,-10z M204,104l10,0 0,10 -10,0 0,-10z M214,104l10,0 0,10 -10,0 0,-10z M244,104l10,0 0,10 -10,0 0,-10z M4,114l10,0 0,10 -10,0 0,-10z M24,114l10,0 0,10 -10,0 0,-10z M54,114l10,0 0,10 -10,0 0,-10z M84,114l10,0 0,10 -10,0 0,-10z M94,114l10,0 0,10 -10,0 0,-10z M104,114l10,0 0,10 -10,0 0,-10z M124,114l10,0 0,10 -10,0 0,-10z M144,114l10,0 0,10 -10,0 0,-10z M174,114l10,0 0,10 -10,0 0,-10z M184,114l10,0 0,10 -10,0 0,-10z M214,114l10,0 0,10 -10,0 0,-10z M224,114l10,0 0,10 -10,0 0,-10z M234,114l10,0 0,10 -10,0 0,-10z M244,114l10,0 0,10 -10,0 0,-10z M4,124l10,0 0,10 -10,0 0,-10z M24,124l10,0 0,10 -10,0 0,-10z M54,124l10,0 0,10 -10,0 0,-10z M64,124l10,0 0,10 -10,0 0,-10z M104,124l10,0 0,10 -10,0 0,-10z M114,124l10,0 0,10 -10,0 0,-10z M124,124l10,0 0,10 -10,0 0,-10z M144,124l10,0 0,10 -10,0 0,-10z M164,124l10,0 0,10 -10,0 0,-10z M184,124l10,0 0,10 -10,0 0,-10z M194,124l10,0 0,10 -10,0 0,-10z M244,124l10,0 0,10 -10,0 0,-10z M4,134l10,0 0,10 -10,0 0,-10z M14,134l10,0 0,10 -10,0 0,-10z M24,134l10,0 0,10 -10,0 0,-10z M34,134l10,0 0,10 -10,0 0,-10z M84,134l10,0 0,10 -10,0 0,-10z M144,134l10,0 0,10 -10,0 0,-10z M154,134l10,0 0,10 -10,0 0,-10z M164,134l10,0 0,10 -10,0 0,-10z M174,134l10,0 0,10 -10,0 0,-10z M204,134l10,0 0,10 -10,0 0,-10z M234,134l10,0 0,10 -10,0 0,-10z M4,144l10,0 0,10 -10,0 0,-10z M14,144l10,0 0,10 -10,0 0,-10z M64,144l10,0 0,10 -10,0 0,-10z M74,144l10,0 0,10 -10,0 0,-10z M94,144l10,0 0,10 -10,0 0,-10z M114,144l10,0 0,10 -10,0 0,-10z M124,144l10,0 0,10 -10,0 0,-10z M144,144l10,0 0,10 -10,0 0,-10z M154,144l10,0 0,10 -10,0 0,-10z M184,144l10,0 0,10 -10,0 0,-10z M204,144l10,0 0,10 -10,0 0,-10z M214,144l10,0 0,10 -10,0 0,-10z M224,144l10,0 0,10 -10,0 0,-10z M234,144l10,0 0,10 -10,0 0,-10z M244,144l10,0 0,10 -10,0 0,-10z M4,154l10,0 0,10 -10,0 0,-10z M24,154l10,0 0,10 -10,0 0,-10z M114,154l10,0 0,10 -10,0 0,-10z M144,154l10,0 0,10 -10,0 0,-10z M154,154l10,0 0,10 -10,0 0,-10z M184,154l10,0 0,10 -10,0 0,-10z M194,154l10,0 0,10 -10,0 0,-10z M214,154l10,0 0,10 -10,0 0,-10z M224,154l10,0 0,10 -10,0 0,-10z M244,154l10,0 0,10 -10,0 0,-10z M4,164l10,0 0,10 -10,0 0,-10z M44,164l10,0 0,10 -10,0 0,-10z M64,164l10,0 0,10 -10,0 0,-10z M74,164l10,0 0,10 -10,0 0,-10z M84,164l10,0 0,10 -10,0 0,-10z M94,164l10,0 0,10 -10,0 0,-10z M104,164l10,0 0,10 -10,0 0,-10z M124,164l10,0 0,10 -10,0 0,-10z M134,164l10,0 0,10 -10,0 0,-10z M164,164l10,0 0,10 -10,0 0,-10z M174,164l10,0 0,10 -10,0 0,-10z M184,164l10,0 0,10 -10,0 0,-10z M194,164l10,0 0,10 -10,0 0,-10z M204,164l10,0 0,10 -10,0 0,-10z M224,164l10,0 0,10 -10,0 0,-10z M234,164l10,0 0,10 -10,0 0,-10z M84,174l10,0 0,10 -10,0 0,-10z M94,174l10,0 0,10 -10,0 0,-10z M104,174l10,0 0,10 -10,0 0,-10z M114,174l10,0 0,10 -10,0 0,-10z M124,174l10,0 0,10 -10,0 0,-10z M164,174l10,0 0,10 -10,0 0,-10z M204,174l10,0 0,10 -10,0 0,-10z M224,174l10,0 0,10 -10,0 0,-10z M234,174l10,0 0,10 -10,0 0,-10z M4,184l10,0 0,10 -10,0 0,-10z M14,184l10,0 0,10 -10,0 0,-10z M24,184l10,0 0,10 -10,0 0,-10z M34,184l10,0 0,10 -10,0 0,-10z M44,184l10,0 0,10 -10,0 0,-10z M54,184l10,0 0,10 -10,0 0,-10z M64,184l10,0 0,10 -10,0 0,-10z M84,184l10,0 0,10 -10,0 0,-10z M94,184l10,0 0,10 -10,0 0,-10z M114,184l10,0 0,10 -10,0 0,-10z M144,184l10,0 0,10 -10,0 0,-10z M164,184l10,0 0,10 -10,0 0,-10z M184,184l10,0 0,10 -10,0 0,-10z M204,184l10,0 0,10 -10,0 0,-10z M244,184l10,0 0,10 -10,0 0,-10z M4,194l10,0 0,10 -10,0 0,-10z M64,194l10,0 0,10 -10,0 0,-10z M84,194l10,0 0,10 -10,0 0,-10z M94,194l10,0 0,10 -10,0 0,-10z M114,194l10,0 0,10 -10,0 0,-10z M134,194l10,0 0,10 -10,0 0,-10z M154,194l10,0 0,10 -10,0 0,-10z M164,194l10,0 0,10 -10,0 0,-10z M204,194l10,0 0,10 -10,0 0,-10z M234,194l10,0 0,10 -10,0 0,-10z M244,194l10,0 0,10 -10,0 0,-10z M4,204l10,0 0,10 -10,0 0,-10z M24,204l10,0 0,10 -10,0 0,-10z M34,204l10,0 0,10 -10,0 0,-10z M44,204l10,0 0,10 -10,0 0,-10z M64,204l10,0 0,10 -10,0 0,-10z M84,204l10,0 0,10 -10,0 0,-10z M94,204l10,0 0,10 -10,0 0,-10z M104,204l10,0 0,10 -10,0 0,-10z M114,204l10,0 0,10 -10,0 0,-10z M124,204l10,0 0,10 -10,0 0,-10z M144,204l10,0 0,10 -10,0 0,-10z M154,204l10,0 0,10 -10,0 0,-10z M164,204l10,0 0,10 -10,0 0,-10z M174,204l10,0 0,10 -10,0 0,-10z M184,204l10,0 0,10 -10,0 0,-10z M194,204l10,0 0,10 -10,0 0,-10z M204,204l10,0 0,10 -10,0 0,-10z M4,214l10,0 0,10 -10,0 0,-10z M24,214l10,0 0,10 -10,0 0,-10z M34,214l10,0 0,10 -10,0 0,-10z M44,214l10,0 0,10 -10,0 0,-10z M64,214l10,0 0,10 -10,0 0,-10z M84,214l10,0 0,10 -10,0 0,-10z M114,214l10,0 0,10 -10,0 0,-10z M124,214l10,0 0,10 -10,0 0,-10z M134,214l10,0 0,10 -10,0 0,-10z M144,214l10,0 0,10 -10,0 0,-10z M164,214l10,0 0,10 -10,0 0,-10z M184,214l10,0 0,10 -10,0 0,-10z M234,214l10,0 0,10 -10,0 0,-10z M244,214l10,0 0,10 -10,0 0,-10z M4,224l10,0 0,10 -10,0 0,-10z M24,224l10,0 0,10 -10,0 0,-10z M34,224l10,0 0,10 -10,0 0,-10z M44,224l10,0 0,10 -10,0 0,-10z M64,224l10,0 0,10 -10,0 0,-10z M104,224l10,0 0,10 -10,0 0,-10z M114,224l10,0 0,10 -10,0 0,-10z M134,224l10,0 0,10 -10,0 0,-10z M154,224l10,0 0,10 -10,0 0,-10z M164,224l10,0 0,10 -10,0 0,-10z M174,224l10,0 0,10 -10,0 0,-10z M204,224l10,0 0,10 -10,0 0,-10z M214,224l10,0 0,10 -10,0 0,-10z M224,224l10,0 0,10 -10,0 0,-10z M234,224l10,0 0,10 -10,0 0,-10z M244,224l10,0 0,10 -10,0 0,-10z M4,234l10,0 0,10 -10,0 0,-10z M64,234l10,0 0,10 -10,0 0,-10z M94,234l10,0 0,10 -10,0 0,-10z M114,234l10,0 0,10 -10,0 0,-10z M144,234l10,0 0,10 -10,0 0,-10z M194,234l10,0 0,10 -10,0 0,-10z M204,234l10,0 0,10 -10,0 0,-10z M224,234l10,0 0,10 -10,0 0,-10z M234,234l10,0 0,10 -10,0 0,-10z M244,234l10,0 0,10 -10,0 0,-10z M4,244l10,0 0,10 -10,0 0,-10z M14,244l10,0 0,10 -10,0 0,-10z M24,244l10,0 0,10 -10,0 0,-10z M34,244l10,0 0,10 -10,0 0,-10z M44,244l10,0 0,10 -10,0 0,-10z M54,244l10,0 0,10 -10,0 0,-10z M64,244l10,0 0,10 -10,0 0,-10z M84,244l10,0 0,10 -10,0 0,-10z M124,244l10,0 0,10 -10,0 0,-10z M164,244l10,0 0,10 -10,0 0,-10z M174,244l10,0 0,10 -10,0 0,-10z M214,244l10,0 0,10 -10,0 0,-10z M244,244l10,0 0,10 -10,0 0,-10z " stroke="transparent" fill="black"/></svg>