<svg version="1.1" xmlns="http://www.w3.org/2000/svg" viewBox="0 0 298 298"  preserveAspectRatio="xMinYMin meet"><rect width="100%" height="100%" fill="white" cx="0" cy="0"/><path d="M4,4l10,0 0,10 -10,0 0,-10z M14,4l10,0 0,10 -10,0 0,-10z M24,4l10,0 0,10 -10,0 0,-10z M34,4l10,0 0,10 -10,0 0,-10z M44,4l10,0 0,10 -10,0 0,-10z M54,4l10,0 0,10 -10,0 0,-10z M64,4l10,0 0,10 -10,0 0,-10z M104,4l10,0 0,10 -10,0 0,-10z M134,4l10,0 0,10 -10,0 0,-10z M144,4l10,0 0,10 -10,0 0,-10z M154,4l10,0 0,10 -10,0 0,-10z M174,4l10,0 0,10 -10,0 0,-10z M184,4l10,0 0,10 -10,0 0,-10z M194,4l10,0 0,10 -10,0 0,-10z M224,4l10,0 0,10 -10,0 0,-10z M234,4l10,0 0,10 -10,0 0,-10z M244,4l10,0 0,10 -10,0 0,-10z M254,4l10,0 0,10 -10,0 0,-10z M264,4l10,0 0,10 -10,0 0,-10z M274,4l10,0 0,10 -10,0 0,-10z M284,4l10,0 0,10 -10,0 0,-10z M4,14l10,0 0,10 -10,0 0,-10z M64,14l10,0 0,10 -10,0 0,-10z M94,14l10,0 0,10 -10,0 0,-10z M124,14l10,0 0,10 -10,0 0,-10z M134,14l10,0 0,10 -10,0 0,-10z M144,14l10,0 0,10 -10,0 0,-10z M154,14l10,0 0,10 -10,0 0,-10z M184,14l10,0 0,10 -10,0 0,-10z M204,14l10,0 0,10 -10,0 0,-10z M224,14l10,0 0,10 -10,0 0,-10z M284,14l10,0 0,10 -10,0 0,-10z M4,24l10,0 0,10 -10,0 0,-10z M24,24l10,0 0,10 -10,0 0,-10z M34,24l10,0 0,10 -10,0 0,-10z M44,24l10,0 0,10 -10,0 0,-10z M64,24l10,0 0,10 -10,0 0,-10z M124,24l10,0 0,10 -10,0 0,-10z M174,24l10,0 0,10 -10,0 0,-10z M194,24l10,0 0,10 -10,0 0,-10z M224,24l10,0 0,10 -10,0 0,-10z M244,24l10,0 0,10 -10,0 0,-10z M254,24l10,0 0,10 -10,0 0,-10z M264,24l10,0 0,10 -10,0 0,-10z M284,24l10,0 0,10 -10,0 0,-10z M4,34l10,0 0,10 -10,0 0,-10z M24,34l10,0 0,10 -10,0 0,-10z M34,34l10,0 0,10 -10,0 0,-10z M44,34l10,0 0,10 -10,0 0,-10z M64,34l10,0 0,10 -10,0 0,-10z M94,34l10,0 0,10 -10,0 0,-10z M104,34l10,0 0,10 -10,0 0,-10z M114,34l10,0 0,10 -10,0 0,-10z M144,34l10,0 0,10 -10,0 0,-10z M154,34l10,0 0,10 -10,0 0,-10z M184,34l10,0 0,10 -10,0 0,-10z M194,34l10,0 0,10 -10,0 0,-10z M224,34l10,0 0,10 -10,0 0,-10z M244,34l10,0 0,10 -10,0 0,-10z M254,34l10,0 0,10 -10,0 0,-10z M264,34l10,0 0,10 -10,0 0,-10z M284,34l10,0 0,10 -10,0 0,-10z M4,44l10,0 0,10 -10,0 0,-10z M24,44l10,0 0,10 -10,0 0,-10z M34,44l10,0 0,10 -10,0 0,-10z M44,44l10,0 0,10 -10,0 0,-10z M64,44l10,0 0,10 -10,0 0,-10z M104,44l10,0 0,10 -10,0 0,-10z M134,44l10,0 0,10 -10,0 0,-10z M154,44l10,0 0,10 -10,0 0,-10z M164,44l10,0 0,10 -10,0 0,-10z M174,44l10,0 0,10 -10,0 0,-10z M184,44l10,0 0,10 -10,0 0,-10z M224,44l10,0 0,10 -10,0 0,-10z M244,44l10,0 0,10 -10,0 0,-10z M254,44l10,0 0,10 -10,0 0,-10z M264,44l10,0 0,10 -10,0 0,-10z M284,44l10,0 0,10 -10,0 0,-10z M4,54l10,0 0,10 -10,0 0,-10z M64,54l10,0 0,10 -10,0 0,-10z M84,54l10,0 0,10 -10,0 0,-10z M94,54l10,0 0,10 -10,0 0,-10z M124,54l10,0 0,10 -10,0 0,-10z M134,54l10,0 0,10 -10,0 0,-10z M154,54l10,0 0,10 -10,0 0,-10z M184,54l10,0 0,10 -10,0 0,-10z M194,54l10,0 0,10 -10,0 0,-10z M204,54l10,0 0,10 -10,0 0,-10z M224,54l10,0 0,10 -10,0 0,-10z M284,54l10,0 0,10 -10,0 0,-10z M4,64l10,0 0,10 -10,0 0,-10z M14,64l10,0 0,10 -10,0 0,-10z M24,64l10,0 0,10 -10,0 0,-10z M34,64l10,0 0,10 -10,0 0,-10z M44,64l10,0 0,10 -10,0 0,-10z M54,64l10,0 0,10 -10,0 0,-10z M64,64l10,0 0,10 -10,0 0,-10z M84,64l10,0 0,10 -10,0 0,-10z M104,64l10,0 0,10 -10,0 0,-10z M124,64l10,0 0,10 -10,0 0,-10z M144,64l10,0 0,10 -10,0 0,-10z M164,64l10,0 0,10 -10,0 0,-10z M184,64l10,0 0,10 -10,0 0,-10z M204,64l10,0 0,10 -10,0 0,-10z M224,64l10,0 0,10 -10,0 0,-10z M234,64l10,0 0,10 -10,0 0,-10z M244,64l10,0 0,10 -10,0 0,-10z M254,64l10,0 0,10 -10,0 0,-10z M264,64l10,0 0,10 -10,0 0,-10z M274,64l10,0 0,10 -10,0 0,-10z M284,64l10,0 0,10 -10,0 0,-10z M114,74l10,0 0,10 -10,0 0,-10z M124,74l10,0 0,10 -10,0 0,-10z M144,74l10,0 0,10 -10,0 0,-10z M174,74l10,0 0,10 -10,0 0,-10z M184,74l10,0 0,10 -10,0 0,-10z M194,74l10,0 0,10 -10,0 0,-10z M204,74l10,0 0,10 -10,0 0,-10z M4,84l10,0 0,10 -10,0 0,-10z M34,84l10,0 0,10 -10,0 0,-10z M54,84l10,0 0,10 -10,0 0,-10z M64,84l10,0 0,10 -10,0 0,-10z M84,84l10,0 0,10 -10,0 0,-10z M94,84l10,0 0,10 -10,0 0,-10z M104,84l10,0 0,10 -10,0 0,-10z M114,84l10,0 0,10 -10,0 0,-10z M134,84l10,0 0,10 -10,0 0,-10z M144,84l10,0 0,10 -10,0 0,-10z M184,84l10,0 0,10 -10,0 0,-10z M194,84l10,0 0,10 -10,0 0,-10z M214,84l10,0 0,10 -10,0 0,-10z M234,84l10,0 0,10 -10,0 0,-10z M4,94l10,0 0,10 -10,0 0,-10z M14,94l10,0 0,10 -10,0 0,-10z M24,94l10,0 0,10 -10,0 0,-10z M44,94l10,0 0,10 -10,0 0,-10z M54,94l10,0 0,10 -10,0 0,-10z M84,94l10,0 0,10 -10,0 0,-10z M104,94l10,0 0,10 -10,0 0,-10z M114,94l10,0 0,10 -10,0 0,-10z M134,94l10,0 0,10 -10,0 0,-10z M164,94l10,0 0,10 -10,0 0,-10z M214,94l10,0 0,10 -10,0 0,-10z M224,94l10,0 0,10 -10,0 0,-10z M254,94l10,0 0,10 -10,0 0,-10z M284,94l10,0 0,10 -10,0 0,-10z M4,104l10,0 0,10 -10,0 0,-10z M14,104l10,0 0,10 -10,0 0,-10z M24,104l10,0 0,10 -10,0 0,-10z M34,104l10,0 0,10 -10,0 0,-10z M44,104l10,0 0,10 -10,0 0,-10z M64,104l10,0 0,10 -10,0 0,-10z M74,104l10,0 0,10 -10,0 0,-10z M94,104l10,0 0,10 -10,0 0,-10z M104,104l10,0 0,10 -10,0 0,-10z M114,104l10,0 0,10 -10,0 0,-10z M134,104l10,0 0,10 -10,0 0,-10z M164,104l10,0 0,10 -10,0 0,-10z M174,104l10,0 0,10 -10,0 0,-10z M194,104l10,0 0,10 -10,0 0,-10z M224,104l10,0 0,10 -10,0 0,-10z M254,104l10,0 0,10 -10,0 0,-10z M264,104l10,0 0,10 -10,0 0,-10z M274,104l10,0 0,10 -10,0 0,-10z M44,114l10,0 0,10 -10,0 0,-10z M54,114l10,0 0,10 -10,0 0,-10z M84,114l10,0 0,10 -10,0 0,-10z M94,114l10,0 0,10 -10,0 0,-10z M104,114l10,0 0,10 -10,0 0,-10z M114,114l10,0 0,10 -10,0 0,-10z M124,114l10,0 0,10 -10,0 0,-10z M134,114l10,0 0,10 -10,0 0,-10z M154,114l10,0 0,10 -10,0 0,-10z M164,114l10,0 0,10 -10,0 0,-10z M184,114l10,0 0,10 -10,0 0,-10z M194,114l10,0 0,10 -10,0 0,-10z M204,114l10,0 0,10 -10,0 0,-10z M214,114l10,0 0,10 -10,0 0,-10z M234,114l10,0 0,10 -10,0 0,-10z M244,114l10,0 0,10 -10,0 0,-10z M264,114l10,0 0,10 -10,0 0,-10z M274,114l10,0 0,10 -10,0 0,-10z M4,124l10,0 0,10 -10,0 0,-10z M24,124l10,0 0,10 -10,0 0,-10z M44,124l10,0 0,10 -10,0 0,-10z M54,124l10,0 0,10 -10,0 0,-10z M64,124l10,0 0,10 -10,0 0,-10z M74,124l10,0 0,10 -10,0 0,-10z M84,124l10,0 0,10 -10,0 0,-10z M94,124l10,0 0,10 -10,0 0,-10z M104,124l10,0 0,10 -10,0 0,-10z M124,124l10,0 0,10 -10,0 0,-10z M134,124l10,0 0,10 -10,0 0,-10z M144,124l10,0 0,10 -10,0 0,-10z M154,124l10,0 0,10 -10,0 0,-10z M174,124l10,0 0,10 -10,0 0,-10z M184,124l10,0 0,10 -10,0 0,-10z M204,124l10,0 0,10 -10,0 0,-10z M214,124l10,0 0,10 -10,0 0,-10z M224,124l10,0 0,10 -10,0 0,-10z M254,124l10,0 0,10 -10,0 0,-10z M274,124l10,0 0,10 -10,0 0,-10z M284,124l10,0 0,10 -10,0 0,-10z M4,134l10,0 0,10 -10,0 0,-10z M34,134l10,0 0,10 -10,0 0,-10z M44,134l10,0 0,10 -10,0 0,-10z M54,134l10,0 0,10 -10,0 0,-10z M84,134l10,0 0,10 -10,0 0,-10z M94,134l10,0 0,10 -10,0 0,-10z M104,134l10,0 0,10 -10,0 0,-10z M134,134l10,0 0,10 -10,0 0,-10z M164,134l10,0 0,10 -10,0 0,-10z M184,134l10,0 0,10 -10,0 0,-10z M194,134l10,0 0,10 -10,0 0,-10z M204,134l10,0 0,10 -10,0 0,-10z M214,134l10,0 0,10 -10,0 0,-10z M234,134l10,0 0,10 -10,0 0,-10z M4,144l10,0 0,10 -10,0 0,-10z M14,144l10,0 0,10 -10,0 0,-10z M24,144l10,0 0,10 -10,0 0,-10z M34,144l10,0 0,10 -10,0 0,-10z M44,144l10,0 0,10 -10,0 0,-10z M64,144l10,0 0,10 -10,0 0,-10z M84,144l10,0 0,10 -10,0 0,-10z M104,144l10,0 0,10 -10,0 0,-10z M114,144l10,0 0,10 -10,0 0,-10z M124,144l10,0 0,10 -10,0 0,-10z M144,144l10,0 0,10 -10,0 0,-10z M164,144l10,0 0,10 -10,0 0,-10z M214,144l10,0 0,10 -10,0 0,-10z M234,144l10,0 0,10 -10,0 0,-10z M244,144l10,0 0,10 -10,0 0,-10z M254,144l10,0 0,10 -10,0 0,-10z M264,144l10,0 0,10 -10,0 0,-10z M274,144l10,0 0,10 -10,0 0,-10z M284,144l10,0 0,10 -10,0 0,-10z M14,154l10,0 0,10 -10,0 0,-10z M24,154l10,0 0,10 -10,0 0,-10z M34,154l10,0 0,10 -10,0 0,-10z M54,154l10,0 0,10 -10,0 0,-10z M74,154l10,0 0,10 -10,0 0,-10z M84,154l10,0 0,10 -10,0 0,-10z M94,154l10,0 0,10 -10,0 0,-10z M104,154l10,0 0,10 -10,0 0,-10z M114,154l10,0 0,10 -10,0 0,-10z M124,154l10,0 0,10 -10,0 0,-10z M134,154l10,0 0,10 -10,0 0,-10z M144,154l10,0 0,10 -10,0 0,-10z M164,154l10,0 0,10 -10,0 0,-10z M174,154l10,0 0,10 -10,0 0,-10z M184,154l10,0 0,10 -10,0 0,-10z M194,154l10,0 0,10 -10,0 0,-10z M204,154l10,0 0,10 -10,0 0,-10z M224,154l10,0 0,10 -10,0 0,-10z M234,154l10,0 0,10 -10,0 0,-10z M254,154l10,0 0,10 -10,0 0,-10z M274,154l10,0 0,10 -10,0 0,-10z M24,164l10,0 0,10 -10,0 0,-10z M34,164l10,0 0,10 -10,0 0,-10z M64,164l10,0 0,10 -10,0 0,-10z M84,164l10,0 0,10 -10,0 0,-10z M154,164l10,0 0,10 -10,0 0,-10z M174,164l10,0 0,10 -10,0 0,-10z M194,164l10,0 0,10 -10,0 0,-10z M214,164l10,0 0,10 -10,0 0,-10z M234,164l10,0 0,10 -10,0 0,-10z M274,164l10,0 0,10 -10,0 0,-10z M14,174l10,0 0,10 -10,0 0,-10z M24,174l10,0 0,10 -10,0 0,-10z M34,174l10,0 0,10 -10,0 0,-10z M54,174l10,0 0,10 -10,0 0,-10z M74,174l10,0 0,10 -10,0 0,-10z M134,174l10,0 0,10 -10,0 0,-10z M144,174l10,0 0,10 -10,0 0,-10z M164,174l10,0 0,10 -10,0 0,-10z M214,174l10,0 0,10 -10,0 0,-10z M224,174l10,0 0,10 -10,0 0,-10z M234,174l10,0 0,10 -10,0 0,-10z M254,174l10,0 0,10 -10,0 0,-10z M284,174l10,0 0,10 -10,0 0,-10z M4,184l10,0 0,10 -10,0 0,-10z M24,184l10,0 0,10 -10,0 0,-10z M54,184l10,0 0,10 -10,0 0,-10z M64,184l10,0 0,10 -10,0 0,-10z M74,184l10,0 0,10 -10,0 0,-10z M84,184l10,0 0,10 -10,0 0,-10z M104,184l10,0 0,10 -10,0 0,-10z M114,184l10,0 0,10 -10,0 0,-10z M214,184l10,0 0,10 -10,0 0,-10z M244,184l10,0 0,10 -10,0 0,-10z M274,184l10,0 0,10 -10,0 0,-10z M284,184l10,0 0,10 -10,0 0,-10z M104,194l10,0 0,10 -10,0 0,-10z M114,194l10,0 0,10 -10,0 0,-10z M124,194l10,0 0,10 -10,0 0,-10z M144,194l10,0 0,10 -10,0 0,-10z M174,194l10,0 0,10 -10,0 0,-10z M184,194l10,0 0,10 -10,0 0,-10z M204,194l10,0 0,10 -10,0 0,-10z M214,194l10,0 0,10 -10,0 0,-10z M224,194l10,0 0,10 -10,0 0,-10z M234,194l10,0 0,10 -10,0 0,-10z M274,194l10,0 0,10 -10,0 0,-10z M284,194l10,0 0,10 -10,0 0,-10z M4,204l10,0 0,10 -10,0 0,-10z M64,204l10,0 0,10 -10,0 0,-10z M74,204l10,0 0,10 -10,0 0,-10z M134,204l10,0 0,10 -10,0 0,-10z M144,204l10,0 0,10 -10,0 0,-10z M154,204l10,0 0,10 -10,0 0,-10z M164,204l10,0 0,10 -10,0 0,-10z M204,204l10,0 0,10 -10,0 0,-10z M214,204l10,0 0,10 -10,0 0,-10z M224,204l10,0 0,10 -10,0 0,-10z M234,204l10,0 0,10 -10,0 0,-10z M244,204l10,0 0,10 -10,0 0,-10z M264,204l10,0 0,10 -10,0 0,-10z M84,214l10,0 0,10 -10,0 0,-10z M94,214l10,0 0,10 -10,0 0,-10z M114,214l10,0 0,10 -10,0 0,-10z M124,214l10,0 0,10 -10,0 0,-10z M164,214l10,0 0,10 -10,0 0,-10z M174,214l10,0 0,10 -10,0 0,-10z M204,214l10,0 0,10 -10,0 0,-10z M244,214l10,0 0,10 -10,0 0,-10z M264,214l10,0 0,10 -10,0 0,-10z M274,214l10,0 0,10 -10,0 0,-10z M284,214l10,0 0,10 -10,0 0,-10z M4,224l10,0 0,10 -10,0 0,-10z M14,224l10,0 0,10 -10,0 0,-10z M24,224l10,0 0,10 -10,0 0,-10z M34,224l10,0 0,10 -10,0 0,-10z M44,224l10,0 0,10 -10,0 0,-10z M54,224l10,0 0,10 -10,0 0,-10z M64,224l10,0 0,10 -10,0 0,-10z M124,224l10,0 0,10 -10,0 0,-10z M164,224l10,0 0,10 -10,0 0,-10z M204,224l10,0 0,10 -10,0 0,-10z M224,224l10,0 0,10 -10,0 0,-10z M244,224l10,0 0,10 -10,0 0,-10z M274,224l10,0 0,10 -10,0 0,-10z M4,234l10,0 0,10 -10,0 0,-10z M64,234l10,0 0,10 -10,0 0,-10z M84,234l10,0 0,10 -10,0 0,-10z M94,234l10,0 0,10 -10,0 0,-10z M104,234l10,0 0,10 -10,0 0,-10z M124,234l10,0 0,10 -10,0 0,-10z M134,234l10,0 0,10 -10,0 0,-10z M144,234l10,0 0,10 -10,0 0,-10z M154,234l10,0 0,10 -10,0 0,-10z M204,234l10,0 0,10 -10,0 0,-10z M244,234l10,0 0,10 -10,0 0,-10z M254,234l10,0 0,10 -10,0 0,-10z M264,234l10,0 0,10 -10,0 0,-10z M274,234l10,0 0,10 -10,0 0,-10z M284,234l10,0 0,10 -10,0 0,-10z M4,244l10,0 0,10 -10,0 0,-10z M24,244l10,0 0,10 -10,0 0,-10z M34,244l10,0 0,10 -10,0 0,-10z M44,244l10,0 0,10 -10,0 0,-10z M64,244l10,0 0,10 -10,0 0,-10z M94,244l10,0 0,10 -10,0 0,-10z M114,244l10,0 0,10 -10,0 0,-10z M144,244l10,0 0,10 -10,0 0,-10z M154,244l10,0 0,10 -10,0 0,-10z M164,244l10,0 0,10 -10,0 0,-10z M174,244l10,0 0,10 -10,0 0,-10z M204,244l10,0 0,10 -10,0 0,-10z M214,244l10,0 0,10 -10,0 0,-10z M224,244l10,0 0,10 -10,0 0,-10z M234,244l10,0 0,10 -10,0 0,-10z M244,244l10,0 0,10 -10,0 0,-10z M4,254l10,0 0,10 -10,0 0,-10z M24,254l10,0 0,10 -10,0 0,-10z M34,254l10,0 0,10 -10,0 0,-10z M44,254l10,0 0,10 -10,0 0,-10z M64,254l10,0 0,10 -10,0 0,-10z M84,254l10,0 0,10 -10,0 0,-10z M204,254l10,0 0,10 -10,0 0,-10z M224,254l10,0 0,10 -10,0 0,-10z M244,254l10,0 0,10 -10,0 0,-10z M254,254l10,0 0,10 -10,0 0,-10z M264,254l10,0 0,10 -10,0 0,-10z M274,254l10,0 0,10 -10,0 0,-10z M4,264l10,0 0,10 -10,0 0,-10z M24,264l10,0 0,10 -10,0 0,-10z M34,264l10,0 0,10 -10,0 0,-10z M44,264l10,0 0,10 -10,0 0,-10z M64,264l10,0 0,10 -10,0 0,-10z M94,264l10,0 0,10 -10,0 0,-10z M104,264l10,0 0,10 -10,0 0,-10z M134,264l10,0 0,10 -10,0 0,-10z M164,264l10,0 0,10 -10,0 0,-10z M174,264l10,0 0,10 -10,0 0,-10z M184,264l10,0 0,10 -10,0 0,-10z M244,264l10,0 0,10 -10,0 0,-10z M254,264l10,0 0,10 -10,0 0,-10z M264,264l10,0 0,10 -10,0 0,-10z M284,264l10,0 0,10 -10,0 0,-10z M4,274l10,0 0,10 -10,0 0,-10z M64,274l10,0 0,10 -10,0 0,-10z M94,274l10,0 0,10 -10,0 0,-10z M114,274l10,0 0,10 -10,0 0,-10z M134,274l10,0 0,10 -10,0 0,-10z M154,274l10,0 0,10 -10,0 0,-10z M164,274l10,0 0,10 -10,0 0,-10z M174,274l10,0 0,10 -10,0 0,-10z M184,274l10,0 0,10 -10,0 0,-10z M204,274l10,0 0,10 -10,0 0,-10z M214,274l10,0 0,10 -10,0 0,-10z M274,274l10,0 0,10 -10,0 0,-10z M4,284l10,0 0,10 -10,0 0,-10z M14,284l10,0 0,10 -10,0 0,-10z M24,284l10,0 0,10 -10,0 0,-10z M34,284l10,0 0,10 -10,0 0,-10z M44,284l10,0 0,10 -10,0 0,-10z M54,284l10,0 0,10 -10,0 0,-10z M64,284l10,0 0,10 -10,0 0,-10z M84,284l10,0 0,10 -10,0 0,-10z M104,284l10,0 0,10 -10,0 0,-10z M114,284l10,0 0,10 -10,0 0,-10z M124,284l10,0 0,10 -10,0 0,-10z M134,284l10,0 0,10 -10,0 0,-10z M164,284l10,0 0,10 -10,0 0,-10z M174,284l10,0 0,10 -10,0 0,-10z M204,284l10,0 0,10 -10,0 0,-10z M214,284l10,0 0,10 -10,0 0,-10z M244,284l10,0 0,10 -10,0 0,-10z M254,284l10,0 0,10 -10,0 0,-10z M274,284l10,0 0,10 -10,0 0,-10z " stroke="transparent" fill="black"/></svg>