<svg version="1.1" xmlns="http://www.w3.org/2000/svg" viewBox="0 0 298 298"  preserveAspectRatio="xMinYMin meet"><rect width="100%" height="100%" fill="white" cx="0" cy="0"/><path d="M4,4l10,0 0,10 -10,0 0,-10z M14,4l10,0 0,10 -10,0 0,-10z M24,4l10,0 0,10 -10,0 0,-10z M34,4l10,0 0,10 -10,0 0,-10z M44,4l10,0 0,10 -10,0 0,-10z M54,4l10,0 0,10 -10,0 0,-10z M64,4l10,0 0,10 -10,0 0,-10z M84,4l10,0 0,10 -10,0 0,-10z M134,4l10,0 0,10 -10,0 0,-10z M144,4l10,0 0,10 -10,0 0,-10z M174,4l10,0 0,10 -10,0 0,-10z M184,4l10,0 0,10 -10,0 0,-10z M224,4l10,0 0,10 -10,0 0,-10z M234,4l10,0 0,10 -10,0 0,-10z M244,4l10,0 0,10 -10,0 0,-10z M254,4l10,0 0,10 -10,0 0,-10z M264,4l10,0 0,10 -10,0 0,-10z M274,4l10,0 0,10 -10,0 0,-10z M284,4l10,0 0,10 -10,0 0,-10z M4,14l10,0 0,10 -10,0 0,-10z M64,14l10,0 0,10 -10,0 0,-10z M84,14l10,0 0,10 -10,0 0,-10z M94,14l10,0 0,10 -10,0 0,-10z M104,14l10,0 0,10 -10,0 0,-10z M124,14l10,0 0,10 -10,0 0,-10z M134,14l10,0 0,10 -10,0 0,-10z M164,14l10,0 0,10 -10,0 0,-10z M194,14l10,0 0,10 -10,0 0,-10z M224,14l10,0 0,10 -10,0 0,-10z M284,14l10,0 0,10 -10,0 0,-10z M4,24l10,0 0,10 -10,0 0,-10z M24,24l10,0 0,10 -10,0 0,-10z M34,24l10,0 0,10 -10,0 0,-10z M44,24l10,0 0,10 -10,0 0,-10z M64,24l10,0 0,10 -10,0 0,-10z M84,24l10,0 0,10 -10,0 0,-10z M114,24l10,0 0,10 -10,0 0,-10z M134,24l10,0 0,10 -10,0 0,-10z M144,24l10,0 0,10 -10,0 0,-10z M154,24l10,0 0,10 -10,0 0,-10z M204,24l10,0 0,10 -10,0 0,-10z M224,24l10,0 0,10 -10,0 0,-10z M244,24l10,0 0,10 -10,0 0,-10z M254,24l10,0 0,10 -10,0 0,-10z M264,24l10,0 0,10 -10,0 0,-10z M284,24l10,0 0,10 -10,0 0,-10z M4,34l10,0 0,10 -10,0 0,-10z M24,34l10,0 0,10 -10,0 0,-10z M34,34l10,0 0,10 -10,0 0,-10z M44,34l10,0 0,10 -10,0 0,-10z M64,34l10,0 0,10 -10,0 0,-10z M104,34l10,0 0,10 -10,0 0,-10z M134,34l10,0 0,10 -10,0 0,-10z M154,34l10,0 0,10 -10,0 0,-10z M164,34l10,0 0,10 -10,0 0,-10z M174,34l10,0 0,10 -10,0 0,-10z M194,34l10,0 0,10 -10,0 0,-10z M224,34l10,0 0,10 -10,0 0,-10z M244,34l10,0 0,10 -10,0 0,-10z M254,34l10,0 0,10 -10,0 0,-10z M264,34l10,0 0,10 -10,0 0,-10z M284,34l10,0 0,10 -10,0 0,-10z M4,44l10,0 0,10 -10,0 0,-10z M24,44l10,0 0,10 -10,0 0,-10z M34,44l10,0 0,10 -10,0 0,-10z M44,44l10,0 0,10 -10,0 0,-10z M64,44l10,0 0,10 -10,0 0,-10z M84,44l10,0 0,10 -10,0 0,-10z M104,44l10,0 0,10 -10,0 0,-10z M124,44l10,0 0,10 -10,0 0,-10z M134,44l10,0 0,10 -10,0 0,-10z M144,44l10,0 0,10 -10,0 0,-10z M174,44l10,0 0,10 -10,0 0,-10z M184,44l10,0 0,10 -10,0 0,-10z M194,44l10,0 0,10 -10,0 0,-10z M204,44l10,0 0,10 -10,0 0,-10z M224,44l10,0 0,10 -10,0 0,-10z M244,44l10,0 0,10 -10,0 0,-10z M254,44l10,0 0,10 -10,0 0,-10z M264,44l10,0 0,10 -10,0 0,-10z M284,44l10,0 0,10 -10,0 0,-10z M4,54l10,0 0,10 -10,0 0,-10z M64,54l10,0 0,10 -10,0 0,-10z M124,54l10,0 0,10 -10,0 0,-10z M134,54l10,0 0,10 -10,0 0,-10z M144,54l10,0 0,10 -10,0 0,-10z M174,54l10,0 0,10 -10,0 0,-10z M204,54l10,0 0,10 -10,0 0,-10z M224,54l10,0 0,10 -10,0 0,-10z M284,54l10,0 0,10 -10,0 0,-10z M4,64l10,0 0,10 -10,0 0,-10z M14,64l10,0 0,10 -10,0 0,-10z M24,64l10,0 0,10 -10,0 0,-10z M34,64l10,0 0,10 -10,0 0,-10z M44,64l10,0 0,10 -10,0 0,-10z M54,64l10,0 0,10 -10,0 0,-10z M64,64l10,0 0,10 -10,0 0,-10z M84,64l10,0 0,10 -10,0 0,-10z M104,64l10,0 0,10 -10,0 0,-10z M124,64l10,0 0,10 -10,0 0,-10z M144,64l10,0 0,10 -10,0 0,-10z M164,64l10,0 0,10 -10,0 0,-10z M184,64l10,0 0,10 -10,0 0,-10z M204,64l10,0 0,10 -10,0 0,-10z M224,64l10,0 0,10 -10,0 0,-10z M234,64l10,0 0,10 -10,0 0,-10z M244,64l10,0 0,10 -10,0 0,-10z M254,64l10,0 0,10 -10,0 0,-10z M264,64l10,0 0,10 -10,0 0,-10z M274,64l10,0 0,10 -10,0 0,-10z M284,64l10,0 0,10 -10,0 0,-10z M94,74l10,0 0,10 -10,0 0,-10z M134,74l10,0 0,10 -10,0 0,-10z M144,74l10,0 0,10 -10,0 0,-10z M164,74l10,0 0,10 -10,0 0,-10z M184,74l10,0 0,10 -10,0 0,-10z M4,84l10,0 0,10 -10,0 0,-10z M34,84l10,0 0,10 -10,0 0,-10z M44,84l10,0 0,10 -10,0 0,-10z M54,84l10,0 0,10 -10,0 0,-10z M64,84l10,0 0,10 -10,0 0,-10z M74,84l10,0 0,10 -10,0 0,-10z M84,84l10,0 0,10 -10,0 0,-10z M94,84l10,0 0,10 -10,0 0,-10z M134,84l10,0 0,10 -10,0 0,-10z M154,84l10,0 0,10 -10,0 0,-10z M164,84l10,0 0,10 -10,0 0,-10z M174,84l10,0 0,10 -10,0 0,-10z M214,84l10,0 0,10 -10,0 0,-10z M244,84l10,0 0,10 -10,0 0,-10z M264,84l10,0 0,10 -10,0 0,-10z M274,84l10,0 0,10 -10,0 0,-10z M284,84l10,0 0,10 -10,0 0,-10z M34,94l10,0 0,10 -10,0 0,-10z M54,94l10,0 0,10 -10,0 0,-10z M74,94l10,0 0,10 -10,0 0,-10z M84,94l10,0 0,10 -10,0 0,-10z M94,94l10,0 0,10 -10,0 0,-10z M104,94l10,0 0,10 -10,0 0,-10z M114,94l10,0 0,10 -10,0 0,-10z M124,94l10,0 0,10 -10,0 0,-10z M134,94l10,0 0,10 -10,0 0,-10z M144,94l10,0 0,10 -10,0 0,-10z M154,94l10,0 0,10 -10,0 0,-10z M174,94l10,0 0,10 -10,0 0,-10z M184,94l10,0 0,10 -10,0 0,-10z M194,94l10,0 0,10 -10,0 0,-10z M204,94l10,0 0,10 -10,0 0,-10z M214,94l10,0 0,10 -10,0 0,-10z M234,94l10,0 0,10 -10,0 0,-10z M244,94l10,0 0,10 -10,0 0,-10z M264,94l10,0 0,10 -10,0 0,-10z M274,94l10,0 0,10 -10,0 0,-10z M4,104l10,0 0,10 -10,0 0,-10z M34,104l10,0 0,10 -10,0 0,-10z M54,104l10,0 0,10 -10,0 0,-10z M64,104l10,0 0,10 -10,0 0,-10z M94,104l10,0 0,10 -10,0 0,-10z M134,104l10,0 0,10 -10,0 0,-10z M154,104l10,0 0,10 -10,0 0,-10z M164,104l10,0 0,10 -10,0 0,-10z M174,104l10,0 0,10 -10,0 0,-10z M184,104l10,0 0,10 -10,0 0,-10z M214,104l10,0 0,10 -10,0 0,-10z M244,104l10,0 0,10 -10,0 0,-10z M264,104l10,0 0,10 -10,0 0,-10z M4,114l10,0 0,10 -10,0 0,-10z M24,114l10,0 0,10 -10,0 0,-10z M54,114l10,0 0,10 -10,0 0,-10z M74,114l10,0 0,10 -10,0 0,-10z M94,114l10,0 0,10 -10,0 0,-10z M114,114l10,0 0,10 -10,0 0,-10z M134,114l10,0 0,10 -10,0 0,-10z M174,114l10,0 0,10 -10,0 0,-10z M204,114l10,0 0,10 -10,0 0,-10z M234,114l10,0 0,10 -10,0 0,-10z M244,114l10,0 0,10 -10,0 0,-10z M254,114l10,0 0,10 -10,0 0,-10z M284,114l10,0 0,10 -10,0 0,-10z M14,124l10,0 0,10 -10,0 0,-10z M34,124l10,0 0,10 -10,0 0,-10z M44,124l10,0 0,10 -10,0 0,-10z M54,124l10,0 0,10 -10,0 0,-10z M64,124l10,0 0,10 -10,0 0,-10z M74,124l10,0 0,10 -10,0 0,-10z M84,124l10,0 0,10 -10,0 0,-10z M134,124l10,0 0,10 -10,0 0,-10z M154,124l10,0 0,10 -10,0 0,-10z M204,124l10,0 0,10 -10,0 0,-10z M224,124l10,0 0,10 -10,0 0,-10z M234,124l10,0 0,10 -10,0 0,-10z M284,124l10,0 0,10 -10,0 0,-10z M4,134l10,0 0,10 -10,0 0,-10z M34,134l10,0 0,10 -10,0 0,-10z M44,134l10,0 0,10 -10,0 0,-10z M54,134l10,0 0,10 -10,0 0,-10z M74,134l10,0 0,10 -10,0 0,-10z M84,134l10,0 0,10 -10,0 0,-10z M104,134l10,0 0,10 -10,0 0,-10z M124,134l10,0 0,10 -10,0 0,-10z M134,134l10,0 0,10 -10,0 0,-10z M144,134l10,0 0,10 -10,0 0,-10z M154,134l10,0 0,10 -10,0 0,-10z M164,134l10,0 0,10 -10,0 0,-10z M214,134l10,0 0,10 -10,0 0,-10z M224,134l10,0 0,10 -10,0 0,-10z M234,134l10,0 0,10 -10,0 0,-10z M244,134l10,0 0,10 -10,0 0,-10z M254,134l10,0 0,10 -10,0 0,-10z M264,134l10,0 0,10 -10,0 0,-10z M274,134l10,0 0,10 -10,0 0,-10z M284,134l10,0 0,10 -10,0 0,-10z M4,144l10,0 0,10 -10,0 0,-10z M14,144l10,0 0,10 -10,0 0,-10z M34,144l10,0 0,10 -10,0 0,-10z M54,144l10,0 0,10 -10,0 0,-10z M64,144l10,0 0,10 -10,0 0,-10z M74,144l10,0 0,10 -10,0 0,-10z M94,144l10,0 0,10 -10,0 0,-10z M104,144l10,0 0,10 -10,0 0,-10z M114,144l10,0 0,10 -10,0 0,-10z M124,144l10,0 0,10 -10,0 0,-10z M134,144l10,0 0,10 -10,0 0,-10z M154,144l10,0 0,10 -10,0 0,-10z M164,144l10,0 0,10 -10,0 0,-10z M194,144l10,0 0,10 -10,0 0,-10z M204,144l10,0 0,10 -10,0 0,-10z M224,144l10,0 0,10 -10,0 0,-10z M244,144l10,0 0,10 -10,0 0,-10z M264,144l10,0 0,10 -10,0 0,-10z M284,144l10,0 0,10 -10,0 0,-10z M4,154l10,0 0,10 -10,0 0,-10z M14,154l10,0 0,10 -10,0 0,-10z M24,154l10,0 0,10 -10,0 0,-10z M34,154l10,0 0,10 -10,0 0,-10z M54,154l10,0 0,10 -10,0 0,-10z M84,154l10,0 0,10 -10,0 0,-10z M104,154l10,0 0,10 -10,0 0,-10z M154,154l10,0 0,10 -10,0 0,-10z M184,154l10,0 0,10 -10,0 0,-10z M194,154l10,0 0,10 -10,0 0,-10z M214,154l10,0 0,10 -10,0 0,-10z M224,154l10,0 0,10 -10,0 0,-10z M234,154l10,0 0,10 -10,0 0,-10z M264,154l10,0 0,10 -10,0 0,-10z M284,154l10,0 0,10 -10,0 0,-10z M4,164l10,0 0,10 -10,0 0,-10z M14,164l10,0 0,10 -10,0 0,-10z M24,164l10,0 0,10 -10,0 0,-10z M34,164l10,0 0,10 -10,0 0,-10z M44,164l10,0 0,10 -10,0 0,-10z M54,164l10,0 0,10 -10,0 0,-10z M64,164l10,0 0,10 -10,0 0,-10z M94,164l10,0 0,10 -10,0 0,-10z M104,164l10,0 0,10 -10,0 0,-10z M144,164l10,0 0,10 -10,0 0,-10z M194,164l10,0 0,10 -10,0 0,-10z M204,164l10,0 0,10 -10,0 0,-10z M234,164l10,0 0,10 -10,0 0,-10z M254,164l10,0 0,10 -10,0 0,-10z M4,174l10,0 0,10 -10,0 0,-10z M14,174l10,0 0,10 -10,0 0,-10z M24,174l10,0 0,10 -10,0 0,-10z M34,174l10,0 0,10 -10,0 0,-10z M44,174l10,0 0,10 -10,0 0,-10z M54,174l10,0 0,10 -10,0 0,-10z M114,174l10,0 0,10 -10,0 0,-10z M124,174l10,0 0,10 -10,0 0,-10z M134,174l10,0 0,10 -10,0 0,-10z M144,174l10,0 0,10 -10,0 0,-10z M154,174l10,0 0,10 -10,0 0,-10z M184,174l10,0 0,10 -10,0 0,-10z M194,174l10,0 0,10 -10,0 0,-10z M204,174l10,0 0,10 -10,0 0,-10z M214,174l10,0 0,10 -10,0 0,-10z M244,174l10,0 0,10 -10,0 0,-10z M264,174l10,0 0,10 -10,0 0,-10z M274,174l10,0 0,10 -10,0 0,-10z M4,184l10,0 0,10 -10,0 0,-10z M14,184l10,0 0,10 -10,0 0,-10z M24,184l10,0 0,10 -10,0 0,-10z M54,184l10,0 0,10 -10,0 0,-10z M64,184l10,0 0,10 -10,0 0,-10z M84,184l10,0 0,10 -10,0 0,-10z M104,184l10,0 0,10 -10,0 0,-10z M114,184l10,0 0,10 -10,0 0,-10z M124,184l10,0 0,10 -10,0 0,-10z M154,184l10,0 0,10 -10,0 0,-10z M174,184l10,0 0,10 -10,0 0,-10z M184,184l10,0 0,10 -10,0 0,-10z M194,184l10,0 0,10 -10,0 0,-10z M224,184l10,0 0,10 -10,0 0,-10z M254,184l10,0 0,10 -10,0 0,-10z M284,184l10,0 0,10 -10,0 0,-10z M4,194l10,0 0,10 -10,0 0,-10z M14,194l10,0 0,10 -10,0 0,-10z M24,194l10,0 0,10 -10,0 0,-10z M44,194l10,0 0,10 -10,0 0,-10z M114,194l10,0 0,10 -10,0 0,-10z M124,194l10,0 0,10 -10,0 0,-10z M144,194l10,0 0,10 -10,0 0,-10z M164,194l10,0 0,10 -10,0 0,-10z M204,194l10,0 0,10 -10,0 0,-10z M234,194l10,0 0,10 -10,0 0,-10z M254,194l10,0 0,10 -10,0 0,-10z M264,194l10,0 0,10 -10,0 0,-10z M4,204l10,0 0,10 -10,0 0,-10z M14,204l10,0 0,10 -10,0 0,-10z M24,204l10,0 0,10 -10,0 0,-10z M54,204l10,0 0,10 -10,0 0,-10z M64,204l10,0 0,10 -10,0 0,-10z M74,204l10,0 0,10 -10,0 0,-10z M84,204l10,0 0,10 -10,0 0,-10z M94,204l10,0 0,10 -10,0 0,-10z M134,204l10,0 0,10 -10,0 0,-10z M144,204l10,0 0,10 -10,0 0,-10z M154,204l10,0 0,10 -10,0 0,-10z M164,204l10,0 0,10 -10,0 0,-10z M174,204l10,0 0,10 -10,0 0,-10z M194,204l10,0 0,10 -10,0 0,-10z M204,204l10,0 0,10 -10,0 0,-10z M214,204l10,0 0,10 -10,0 0,-10z M224,204l10,0 0,10 -10,0 0,-10z M234,204l10,0 0,10 -10,0 0,-10z M244,204l10,0 0,10 -10,0 0,-10z M254,204l10,0 0,10 -10,0 0,-10z M264,204l10,0 0,10 -10,0 0,-10z M274,204l10,0 0,10 -10,0 0,-10z M84,214l10,0 0,10 -10,0 0,-10z M94,214l10,0 0,10 -10,0 0,-10z M114,214l10,0 0,10 -10,0 0,-10z M144,214l10,0 0,10 -10,0 0,-10z M154,214l10,0 0,10 -10,0 0,-10z M174,214l10,0 0,10 -10,0 0,-10z M184,214l10,0 0,10 -10,0 0,-10z M204,214l10,0 0,10 -10,0 0,-10z M244,214l10,0 0,10 -10,0 0,-10z M254,214l10,0 0,10 -10,0 0,-10z M4,224l10,0 0,10 -10,0 0,-10z M14,224l10,0 0,10 -10,0 0,-10z M24,224l10,0 0,10 -10,0 0,-10z M34,224l10,0 0,10 -10,0 0,-10z M44,224l10,0 0,10 -10,0 0,-10z M54,224l10,0 0,10 -10,0 0,-10z M64,224l10,0 0,10 -10,0 0,-10z M84,224l10,0 0,10 -10,0 0,-10z M104,224l10,0 0,10 -10,0 0,-10z M114,224l10,0 0,10 -10,0 0,-10z M144,224l10,0 0,10 -10,0 0,-10z M154,224l10,0 0,10 -10,0 0,-10z M194,224l10,0 0,10 -10,0 0,-10z M204,224l10,0 0,10 -10,0 0,-10z M224,224l10,0 0,10 -10,0 0,-10z M244,224l10,0 0,10 -10,0 0,-10z M254,224l10,0 0,10 -10,0 0,-10z M4,234l10,0 0,10 -10,0 0,-10z M64,234l10,0 0,10 -10,0 0,-10z M84,234l10,0 0,10 -10,0 0,-10z M94,234l10,0 0,10 -10,0 0,-10z M114,234l10,0 0,10 -10,0 0,-10z M124,234l10,0 0,10 -10,0 0,-10z M144,234l10,0 0,10 -10,0 0,-10z M154,234l10,0 0,10 -10,0 0,-10z M174,234l10,0 0,10 -10,0 0,-10z M194,234l10,0 0,10 -10,0 0,-10z M204,234l10,0 0,10 -10,0 0,-10z M244,234l10,0 0,10 -10,0 0,-10z M4,244l10,0 0,10 -10,0 0,-10z M24,244l10,0 0,10 -10,0 0,-10z M34,244l10,0 0,10 -10,0 0,-10z M44,244l10,0 0,10 -10,0 0,-10z M64,244l10,0 0,10 -10,0 0,-10z M84,244l10,0 0,10 -10,0 0,-10z M94,244l10,0 0,10 -10,0 0,-10z M134,244l10,0 0,10 -10,0 0,-10z M144,244l10,0 0,10 -10,0 0,-10z M154,244l10,0 0,10 -10,0 0,-10z M194,244l10,0 0,10 -10,0 0,-10z M204,244l10,0 0,10 -10,0 0,-10z M214,244l10,0 0,10 -10,0 0,-10z M224,244l10,0 0,10 -10,0 0,-10z M234,244l10,0 0,10 -10,0 0,-10z M244,244l10,0 0,10 -10,0 0,-10z M254,244l10,0 0,10 -10,0 0,-10z M284,244l10,0 0,10 -10,0 0,-10z M4,254l10,0 0,10 -10,0 0,-10z M24,254l10,0 0,10 -10,0 0,-10z M34,254l10,0 0,10 -10,0 0,-10z M44,254l10,0 0,10 -10,0 0,-10z M64,254l10,0 0,10 -10,0 0,-10z M84,254l10,0 0,10 -10,0 0,-10z M94,254l10,0 0,10 -10,0 0,-10z M104,254l10,0 0,10 -10,0 0,-10z M114,254l10,0 0,10 -10,0 0,-10z M124,254l10,0 0,10 -10,0 0,-10z M154,254l10,0 0,10 -10,0 0,-10z M164,254l10,0 0,10 -10,0 0,-10z M174,254l10,0 0,10 -10,0 0,-10z M184,254l10,0 0,10 -10,0 0,-10z M194,254l10,0 0,10 -10,0 0,-10z M214,254l10,0 0,10 -10,0 0,-10z M284,254l10,0 0,10 -10,0 0,-10z M4,264l10,0 0,10 -10,0 0,-10z M24,264l10,0 0,10 -10,0 0,-10z M34,264l10,0 0,10 -10,0 0,-10z M44,264l10,0 0,10 -10,0 0,-10z M64,264l10,0 0,10 -10,0 0,-10z M94,264l10,0 0,10 -10,0 0,-10z M104,264l10,0 0,10 -10,0 0,-10z M114,264l10,0 0,10 -10,0 0,-10z M154,264l10,0 0,10 -10,0 0,-10z M174,264l10,0 0,10 -10,0 0,-10z M204,264l10,0 0,10 -10,0 0,-10z M214,264l10,0 0,10 -10,0 0,-10z M234,264l10,0 0,10 -10,0 0,-10z M244,264l10,0 0,10 -10,0 0,-10z M264,264l10,0 0,10 -10,0 0,-10z M274,264l10,0 0,10 -10,0 0,-10z M284,264l10,0 0,10 -10,0 0,-10z M4,274l10,0 0,10 -10,0 0,-10z M64,274l10,0 0,10 -10,0 0,-10z M104,274l10,0 0,10 -10,0 0,-10z M134,274l10,0 0,10 -10,0 0,-10z M144,274l10,0 0,10 -10,0 0,-10z M184,274l10,0 0,10 -10,0 0,-10z M224,274l10,0 0,10 -10,0 0,-10z M244,274l10,0 0,10 -10,0 0,-10z M254,274l10,0 0,10 -10,0 0,-10z M264,274l10,0 0,10 -10,0 0,-10z M284,274l10,0 0,10 -10,0 0,-10z M4,284l10,0 0,10 -10,0 0,-10z M14,284l10,0 0,10 -10,0 0,-10z M24,284l10,0 0,10 -10,0 0,-10z M34,284l10,0 0,10 -10,0 0,-10z M44,284l10,0 0,10 -10,0 0,-10z M54,284l10,0 0,10 -10,0 0,-10z M64,284l10,0 0,10 -10,0 0,-10z M84,284l10,0 0,10 -10,0 0,-10z M104,284l10,0 0,10 -10,0 0,-10z M114,284l10,0 0,10 -10,0 0,-10z M124,284l10,0 0,10 -10,0 0,-10z M134,284l10,0 0,10 -10,0 0,-10z M164,284l10,0 0,10 -10,0 0,-10z M184,284l10,0 0,10 -10,0 0,-10z M204,284l10,0 0,10 -10,0 0,-10z M234,284l10,0 0,10 -10,0 0,-10z " stroke="transparent" fill="black"/></svg>
